<mxfile host="app.diagrams.net" agent="Mozilla/5.0 (Windows NT 10.0; Win64; x64) AppleWebKit/537.36 (KHTML, like Gecko) Chrome/135.0.0.0 Safari/537.36" version="26.2.13" pages="4">
  <diagram id="b-4v9Q_9GDSzK5QJdKNT" name="Use-Case">
    <mxGraphModel dx="2065" dy="730" grid="1" gridSize="10" guides="1" tooltips="1" connect="1" arrows="1" fold="1" page="1" pageScale="1" pageWidth="850" pageHeight="1100" math="0" shadow="0">
      <root>
        <mxCell id="0" />
        <mxCell id="1" parent="0" />
        <UserObject label="" plantUmlData="{&quot;data&quot;:&quot;@startuml\n\nactor \&quot;Authenticated User\&quot; as AuthUser\nactor Bank\nactor PrepaidCardIssuer\n\nrectangle \&quot;FalsoPay Web App\&quot; {\n  AuthUser -- (Send Money)\n  AuthUser -- (Receive Money)\n  AuthUser -- (Onboard Bank Accounts)\n  AuthUser -- (Onboard Prepaid Cards)\n  AuthUser -- (Balance Inquiry)\n  AuthUser -- (Mini Statement)\n  AuthUser -- (Register Mobile Number)\n  AuthUser -- (Register Debit Card)\n\n  (Send Money) .down.&gt; (Secure Instant Payment Network) : &lt;&lt;include&gt;&gt;\n  (Receive Money) .down.&gt; (Secure Instant Payment Network) : &lt;&lt;include&gt;&gt;\n  (Onboard Bank Accounts) .down.&gt; (Bank) : &lt;&lt;extend&gt;&gt;\n  (Onboard Prepaid Cards) .down.&gt; (PrepaidCardIssuer) : &lt;&lt;extend&gt;&gt;\n  (Balance Inquiry) .down.&gt; (Bank) : &lt;&lt;extend&gt;&gt;\n  (Mini Statement) .down.&gt; (Bank) : &lt;&lt;extend&gt;&gt;\n\n  (Onboard Bank Accounts) -- (Register Mobile Number)\n  (Onboard Bank Accounts) -- (Register Debit Card)\n  (Onboard Prepaid Cards) -- (Provide Prepaid Card Number)\n}\n\n@enduml\n&quot;,&quot;format&quot;:&quot;svg&quot;}" id="9FsBBDLXFXYkr1byQQyZ-1">
          <mxCell style="shape=image;noLabel=1;verticalAlign=top;aspect=fixed;imageAspect=0;image=data:image/svg+xml,PHN2ZyB4bWxucz0iaHR0cDovL3d3dy53My5vcmcvMjAwMC9zdmciIHhtbG5zOnhsaW5rPSJodHRwOi8vd3d3LnczLm9yZy8xOTk5L3hsaW5rIiBjb250ZW50U3R5bGVUeXBlPSJ0ZXh0L2NzcyIgZGF0YS1kaWFncmFtLXR5cGU9IkRFU0NSSVBUSU9OIiBoZWlnaHQ9IjM2MnB4IiBwcmVzZXJ2ZUFzcGVjdFJhdGlvPSJub25lIiBzdHlsZT0id2lkdGg6MTM4NnB4O2hlaWdodDozNjJweDtiYWNrZ3JvdW5kOiNGRkZGRkY7IiB2ZXJzaW9uPSIxLjEiIHZpZXdCb3g9IjAgMCAxMzg2IDM2MiIgd2lkdGg9IjEzODZweCIgem9vbUFuZFBhbj0ibWFnbmlmeSI+PGRlZnMvPjxnPjwhLS1jbHVzdGVyIEZhbHNvUGF5IFdlYiBBcHAtLT48ZyBjbGFzcz0iY2x1c3RlciIgZGF0YS1lbnRpdHk9IkZhbHNvUGF5IFdlYiBBcHAiIGRhdGEtc291cmNlLWxpbmU9IjUiIGRhdGEtdWlkPSJlbnQwMDA1IiBpZD0iY2x1c3Rlcl9GYWxzb1BheSBXZWIgQXBwIj48cmVjdCBmaWxsPSJub25lIiBoZWlnaHQ9IjIyOSIgcng9IjIuNSIgcnk9IjIuNSIgc3R5bGU9InN0cm9rZTojMTgxODE4O3N0cm9rZS13aWR0aDoxOyIgd2lkdGg9IjExMDciIHg9IjIxNy43ODMxIiB5PSIxMjcuNSIvPjx0ZXh0IGZpbGw9IiMwMDAwMDAiIGZvbnQtZmFtaWx5PSJzYW5zLXNlcmlmIiBmb250LXNpemU9IjE0IiBmb250LXdlaWdodD0iYm9sZCIgbGVuZ3RoQWRqdXN0PSJzcGFjaW5nIiB0ZXh0TGVuZ3RoPSIxMTIiIHg9IjcxNS4yODMxIiB5PSIxNDIuNzM0NCI+RmFsc29QYXkgV2ViIEFwcDwvdGV4dD48L2c+PGcgY2xhc3M9ImVudGl0eSIgZGF0YS1lbnRpdHk9IlNlbmQgTW9uZXkiIGRhdGEtc291cmNlLWxpbmU9IjYiIGRhdGEtdWlkPSJlbnQwMDA2IiBpZD0iZW50aXR5X1NlbmQgTW9uZXkiPjxlbGxpcHNlIGN4PSIxMDMyLjgxOTciIGN5PSIxODEuMTA3MyIgZmlsbD0iI0YxRjFGMSIgcng9IjU4LjUzNjciIHJ5PSIxNC4xMDczIiBzdHlsZT0ic3Ryb2tlOiMxODE4MTg7c3Ryb2tlLXdpZHRoOjAuNTsiLz48dGV4dCBmaWxsPSIjMDAwMDAwIiBmb250LWZhbWlseT0ic2Fucy1zZXJpZiIgZm9udC1zaXplPSIxNCIgbGVuZ3RoQWRqdXN0PSJzcGFjaW5nIiB0ZXh0TGVuZ3RoPSI3MCIgeD0iOTk3LjgxOTciIHk9IjE4NC44NDk1Ij5TZW5kIE1vbmV5PC90ZXh0PjwvZz48ZyBjbGFzcz0iZW50aXR5IiBkYXRhLWVudGl0eT0iUmVjZWl2ZSBNb25leSIgZGF0YS1zb3VyY2UtbGluZT0iNyIgZGF0YS11aWQ9ImVudDAwMDgiIGlkPSJlbnRpdHlfUmVjZWl2ZSBNb25leSI+PGVsbGlwc2UgY3g9Ijg3Mi45NjY0IiBjeT0iMTgxLjIzNjciIGZpbGw9IiNGMUYxRjEiIHJ4PSI2Ni42ODM0IiByeT0iMTUuNzM2NyIgc3R5bGU9InN0cm9rZTojMTgxODE4O3N0cm9rZS13aWR0aDowLjU7Ii8+PHRleHQgZmlsbD0iIzAwMDAwMCIgZm9udC1mYW1pbHk9InNhbnMtc2VyaWYiIGZvbnQtc2l6ZT0iMTQiIGxlbmd0aEFkanVzdD0ic3BhY2luZyIgdGV4dExlbmd0aD0iOTEiIHg9IjgyNy40NjY0IiB5PSIxODQuOTc4OSI+UmVjZWl2ZSBNb25leTwvdGV4dD48L2c+PGcgY2xhc3M9ImVudGl0eSIgZGF0YS1lbnRpdHk9Ik9uYm9hcmQgQmFuayBBY2NvdW50cyIgZGF0YS1zb3VyY2UtbGluZT0iOCIgZGF0YS11aWQ9ImVudDAwMTAiIGlkPSJlbnRpdHlfT25ib2FyZCBCYW5rIEFjY291bnRzIj48ZWxsaXBzZSBjeD0iMTIxNy42NjY5IiBjeT0iMTgxLjA3NjgiIGZpbGw9IiNGMUYxRjEiIHJ4PSI5MC44ODM5IiByeT0iMjAuNTc2OCIgc3R5bGU9InN0cm9rZTojMTgxODE4O3N0cm9rZS13aWR0aDowLjU7Ii8+PHRleHQgZmlsbD0iIzAwMDAwMCIgZm9udC1mYW1pbHk9InNhbnMtc2VyaWYiIGZvbnQtc2l6ZT0iMTQiIGxlbmd0aEFkanVzdD0ic3BhY2luZyIgdGV4dExlbmd0aD0iMTQ3IiB4PSIxMTQ0LjE2NjkiIHk9IjE4NC44MTkiPk9uYm9hcmQgQmFuayBBY2NvdW50czwvdGV4dD48L2c+PGcgY2xhc3M9ImVudGl0eSIgZGF0YS1lbnRpdHk9Ik9uYm9hcmQgUHJlcGFpZCBDYXJkcyIgZGF0YS1zb3VyY2UtbGluZT0iOSIgZGF0YS11aWQ9ImVudDAwMTIiIGlkPSJlbnRpdHlfT25ib2FyZCBQcmVwYWlkIENhcmRzIj48ZWxsaXBzZSBjeD0iNjc5LjY2NjkiIGN5PSIxODEuMDc2OCIgZmlsbD0iI0YxRjFGMSIgcng9IjkwLjg4MzkiIHJ5PSIyMC41NzY4IiBzdHlsZT0ic3Ryb2tlOiMxODE4MTg7c3Ryb2tlLXdpZHRoOjAuNTsiLz48dGV4dCBmaWxsPSIjMDAwMDAwIiBmb250LWZhbWlseT0ic2Fucy1zZXJpZiIgZm9udC1zaXplPSIxNCIgbGVuZ3RoQWRqdXN0PSJzcGFjaW5nIiB0ZXh0TGVuZ3RoPSIxNDciIHg9IjYwNi4xNjY5IiB5PSIxODQuODE5Ij5PbmJvYXJkIFByZXBhaWQgQ2FyZHM8L3RleHQ+PC9nPjxnIGNsYXNzPSJlbnRpdHkiIGRhdGEtZW50aXR5PSJCYWxhbmNlIElucXVpcnkiIGRhdGEtc291cmNlLWxpbmU9IjEwIiBkYXRhLXVpZD0iZW50MDAxNCIgaWQ9ImVudGl0eV9CYWxhbmNlIElucXVpcnkiPjxlbGxpcHNlIGN4PSI0ODAuNzQ5NCIgY3k9IjE4MC44OTMzIiBmaWxsPSIjRjFGMUYxIiByeD0iNzIuNDY2MyIgcnk9IjE2Ljg5MzMiIHN0eWxlPSJzdHJva2U6IzE4MTgxODtzdHJva2Utd2lkdGg6MC41OyIvPjx0ZXh0IGZpbGw9IiMwMDAwMDAiIGZvbnQtZmFtaWx5PSJzYW5zLXNlcmlmIiBmb250LXNpemU9IjE0IiBsZW5ndGhBZGp1c3Q9InNwYWNpbmciIHRleHRMZW5ndGg9IjEwNSIgeD0iNDI4LjI0OTQiIHk9IjE4NC42MzU1Ij5CYWxhbmNlIElucXVpcnk8L3RleHQ+PC9nPjxnIGNsYXNzPSJlbnRpdHkiIGRhdGEtZW50aXR5PSJNaW5pIFN0YXRlbWVudCIgZGF0YS1zb3VyY2UtbGluZT0iMTEiIGRhdGEtdWlkPSJlbnQwMDE2IiBpZD0iZW50aXR5X01pbmkgU3RhdGVtZW50Ij48ZWxsaXBzZSBjeD0iMzAzLjgyODciIGN5PSIxODAuODA5MSIgZmlsbD0iI0YxRjFGMSIgcng9IjY5LjU0NTYiIHJ5PSIxNi4zMDkxIiBzdHlsZT0ic3Ryb2tlOiMxODE4MTg7c3Ryb2tlLXdpZHRoOjAuNTsiLz48dGV4dCBmaWxsPSIjMDAwMDAwIiBmb250LWZhbWlseT0ic2Fucy1zZXJpZiIgZm9udC1zaXplPSIxNCIgbGVuZ3RoQWRqdXN0PSJzcGFjaW5nIiB0ZXh0TGVuZ3RoPSI5OCIgeD0iMjU0LjgyODciIHk9IjE4NC41NTEzIj5NaW5pIFN0YXRlbWVudDwvdGV4dD48L2c+PGcgY2xhc3M9ImVudGl0eSIgZGF0YS1lbnRpdHk9IlJlZ2lzdGVyIE1vYmlsZSBOdW1iZXIiIGRhdGEtc291cmNlLWxpbmU9IjEyIiBkYXRhLXVpZD0iZW50MDAxOCIgaWQ9ImVudGl0eV9SZWdpc3RlciBNb2JpbGUgTnVtYmVyIj48ZWxsaXBzZSBjeD0iMTAxMC44NDUyIiBjeT0iMzE0LjIxMjQiIGZpbGw9IiNGMUYxRjEiIHJ4PSI5NC4wNjIyIiByeT0iMjEuMjEyNCIgc3R5bGU9InN0cm9rZTojMTgxODE4O3N0cm9rZS13aWR0aDowLjU7Ii8+PHRleHQgZmlsbD0iIzAwMDAwMCIgZm9udC1mYW1pbHk9InNhbnMtc2VyaWYiIGZvbnQtc2l6ZT0iMTQiIGxlbmd0aEFkanVzdD0ic3BhY2luZyIgdGV4dExlbmd0aD0iMTU0IiB4PSI5MzMuODQ1MiIgeT0iMzE3Ljk1NDYiPlJlZ2lzdGVyIE1vYmlsZSBOdW1iZXI8L3RleHQ+PC9nPjxnIGNsYXNzPSJlbnRpdHkiIGRhdGEtZW50aXR5PSJSZWdpc3RlciBEZWJpdCBDYXJkIiBkYXRhLXNvdXJjZS1saW5lPSIxMyIgZGF0YS11aWQ9ImVudDAwMjAiIGlkPSJlbnRpdHlfUmVnaXN0ZXIgRGViaXQgQ2FyZCI+PGVsbGlwc2UgY3g9IjEyMjQuODg5MyIgY3k9IjMxMy44MjEyIiBmaWxsPSIjRjFGMUYxIiByeD0iODQuNjA2MiIgcnk9IjE5LjMyMTIiIHN0eWxlPSJzdHJva2U6IzE4MTgxODtzdHJva2Utd2lkdGg6MC41OyIvPjx0ZXh0IGZpbGw9IiMwMDAwMDAiIGZvbnQtZmFtaWx5PSJzYW5zLXNlcmlmIiBmb250LXNpemU9IjE0IiBsZW5ndGhBZGp1c3Q9InNwYWNpbmciIHRleHRMZW5ndGg9IjEzMyIgeD0iMTE1OC4zODkzIiB5PSIzMTcuNTYzNCI+UmVnaXN0ZXIgRGViaXQgQ2FyZDwvdGV4dD48L2c+PGcgY2xhc3M9ImVudGl0eSIgZGF0YS1lbnRpdHk9IlNlY3VyZSBJbnN0YW50IFBheW1lbnQgTmV0d29yayIgZGF0YS1zb3VyY2UtbGluZT0iMTUiIGRhdGEtdWlkPSJlbnQwMDIyIiBpZD0iZW50aXR5X1NlY3VyZSBJbnN0YW50IFBheW1lbnQgTmV0d29yayI+PGVsbGlwc2UgY3g9Ijc2MS45MzM5IiBjeT0iMzEzLjkzMDIiIGZpbGw9IiNGMUYxRjEiIHJ4PSIxMjAuMTUwOSIgcnk9IjI2LjQzMDIiIHN0eWxlPSJzdHJva2U6IzE4MTgxODtzdHJva2Utd2lkdGg6MC41OyIvPjx0ZXh0IGZpbGw9IiMwMDAwMDAiIGZvbnQtZmFtaWx5PSJzYW5zLXNlcmlmIiBmb250LXNpemU9IjE0IiBsZW5ndGhBZGp1c3Q9InNwYWNpbmciIHRleHRMZW5ndGg9IjIxMCIgeD0iNjU2LjkzMzkiIHk9IjMxNy42NzI0Ij5TZWN1cmUgSW5zdGFudCBQYXltZW50IE5ldHdvcms8L3RleHQ+PC9nPjxnIGNsYXNzPSJlbnRpdHkiIGRhdGEtZW50aXR5PSJQcm92aWRlIFByZXBhaWQgQ2FyZCBOdW1iZXIiIGRhdGEtc291cmNlLWxpbmU9IjI0IiBkYXRhLXVpZD0iZW50MDAzMSIgaWQ9ImVudGl0eV9Qcm92aWRlIFByZXBhaWQgQ2FyZCBOdW1iZXIiPjxlbGxpcHNlIGN4PSI0OTUuNTM3OCIgY3k9IjMxMy45NTA5IiBmaWxsPSIjRjFGMUYxIiByeD0iMTEwLjI1NDciIHJ5PSIyNC40NTA5IiBzdHlsZT0ic3Ryb2tlOiMxODE4MTg7c3Ryb2tlLXdpZHRoOjAuNTsiLz48dGV4dCBmaWxsPSIjMDAwMDAwIiBmb250LWZhbWlseT0ic2Fucy1zZXJpZiIgZm9udC1zaXplPSIxNCIgbGVuZ3RoQWRqdXN0PSJzcGFjaW5nIiB0ZXh0TGVuZ3RoPSIxODkiIHg9IjQwMS4wMzc4IiB5PSIzMTcuNjkzMSI+UHJvdmlkZSBQcmVwYWlkIENhcmQgTnVtYmVyPC90ZXh0PjwvZz48IS0tZW50aXR5IEF1dGhVc2VyLS0+PGcgY2xhc3M9ImVudGl0eSIgZGF0YS1lbnRpdHk9IkF1dGhVc2VyIiBkYXRhLXNvdXJjZS1saW5lPSIxIiBkYXRhLXVpZD0iZW50MDAwMiIgaWQ9ImVudGl0eV9BdXRoVXNlciI+PGVsbGlwc2UgY3g9Ijk3Mi43ODMxIiBjeT0iMTQiIGZpbGw9IiNGMUYxRjEiIHJ4PSI4IiByeT0iOCIgc3R5bGU9InN0cm9rZTojMTgxODE4O3N0cm9rZS13aWR0aDowLjU7Ii8+PHBhdGggZD0iTTk3Mi43ODMxLDIyIEw5NzIuNzgzMSw0OSBNOTU5Ljc4MzEsMzAgTDk4NS43ODMxLDMwIE05NzIuNzgzMSw0OSBMOTU5Ljc4MzEsNjQgTTk3Mi43ODMxLDQ5IEw5ODUuNzgzMSw2NCIgZmlsbD0ibm9uZSIgc3R5bGU9InN0cm9rZTojMTgxODE4O3N0cm9rZS13aWR0aDowLjU7Ii8+PHRleHQgZmlsbD0iIzAwMDAwMCIgZm9udC1mYW1pbHk9InNhbnMtc2VyaWYiIGZvbnQtc2l6ZT0iMTQiIGxlbmd0aEFkanVzdD0ic3BhY2luZyIgdGV4dExlbmd0aD0iMTI2IiB4PSI5MDkuNzgzMSIgeT0iNzguNzM0NCI+QXV0aGVudGljYXRlZCBVc2VyPC90ZXh0PjwvZz48IS0tZW50aXR5IEJhbmstLT48ZyBjbGFzcz0iZW50aXR5IiBkYXRhLWVudGl0eT0iQmFuayIgZGF0YS1zb3VyY2UtbGluZT0iMiIgZGF0YS11aWQ9ImVudDAwMDMiIGlkPSJlbnRpdHlfQmFuayI+PGVsbGlwc2UgY3g9IjMyLjc4MzEiIGN5PSIyODUiIGZpbGw9IiNGMUYxRjEiIHJ4PSI4IiByeT0iOCIgc3R5bGU9InN0cm9rZTojMTgxODE4O3N0cm9rZS13aWR0aDowLjU7Ii8+PHBhdGggZD0iTTMyLjc4MzEsMjkzIEwzMi43ODMxLDMyMCBNMTkuNzgzMSwzMDEgTDQ1Ljc4MzEsMzAxIE0zMi43ODMxLDMyMCBMMTkuNzgzMSwzMzUgTTMyLjc4MzEsMzIwIEw0NS43ODMxLDMzNSIgZmlsbD0ibm9uZSIgc3R5bGU9InN0cm9rZTojMTgxODE4O3N0cm9rZS13aWR0aDowLjU7Ii8+PHRleHQgZmlsbD0iIzAwMDAwMCIgZm9udC1mYW1pbHk9InNhbnMtc2VyaWYiIGZvbnQtc2l6ZT0iMTQiIGxlbmd0aEFkanVzdD0ic3BhY2luZyIgdGV4dExlbmd0aD0iMjgiIHg9IjE4Ljc4MzEiIHk9IjM0OS43MzQ0Ij5CYW5rPC90ZXh0PjwvZz48IS0tZW50aXR5IFByZXBhaWRDYXJkSXNzdWVyLS0+PGcgY2xhc3M9ImVudGl0eSIgZGF0YS1lbnRpdHk9IlByZXBhaWRDYXJkSXNzdWVyIiBkYXRhLXNvdXJjZS1saW5lPSIzIiBkYXRhLXVpZD0iZW50MDAwNCIgaWQ9ImVudGl0eV9QcmVwYWlkQ2FyZElzc3VlciI+PGVsbGlwc2UgY3g9IjE0MS43ODMxIiBjeT0iMjg1IiBmaWxsPSIjRjFGMUYxIiByeD0iOCIgcnk9IjgiIHN0eWxlPSJzdHJva2U6IzE4MTgxODtzdHJva2Utd2lkdGg6MC41OyIvPjxwYXRoIGQ9Ik0xNDEuNzgzMSwyOTMgTDE0MS43ODMxLDMyMCBNMTI4Ljc4MzEsMzAxIEwxNTQuNzgzMSwzMDEgTTE0MS43ODMxLDMyMCBMMTI4Ljc4MzEsMzM1IE0xNDEuNzgzMSwzMjAgTDE1NC43ODMxLDMzNSIgZmlsbD0ibm9uZSIgc3R5bGU9InN0cm9rZTojMTgxODE4O3N0cm9rZS13aWR0aDowLjU7Ii8+PHRleHQgZmlsbD0iIzAwMDAwMCIgZm9udC1mYW1pbHk9InNhbnMtc2VyaWYiIGZvbnQtc2l6ZT0iMTQiIGxlbmd0aEFkanVzdD0ic3BhY2luZyIgdGV4dExlbmd0aD0iMTE5IiB4PSI4Mi4yODMxIiB5PSIzNDkuNzM0NCI+UHJlcGFpZENhcmRJc3N1ZXI8L3RleHQ+PC9nPjwhLS1saW5rIEF1dGhVc2VyIHRvIFNlbmQgTW9uZXktLT48ZyBjbGFzcz0ibGluayIgZGF0YS1lbnRpdHktMT0iQXV0aFVzZXIiIGRhdGEtZW50aXR5LTI9IlNlbmQgTW9uZXkiIGRhdGEtc291cmNlLWxpbmU9IjYiIGRhdGEtdWlkPSJsbms3IiBpZD0ibGlua19BdXRoVXNlcl9TZW5kIE1vbmV5Ij48cGF0aCBkPSJNOTg5LjAyMzEsODAuOCBDMTAwMS41ODMxLDEwOS4yOCAxMDE4LjI2MzEsMTQ3LjA4IDEwMjYuOTUzMSwxNjYuNzgiIGZpbGw9Im5vbmUiIGlkPSJBdXRoVXNlci1TZW5kIE1vbmV5IiBzdHlsZT0ic3Ryb2tlOiMxODE4MTg7c3Ryb2tlLXdpZHRoOjE7Ii8+PC9nPjwhLS1saW5rIEF1dGhVc2VyIHRvIFJlY2VpdmUgTW9uZXktLT48ZyBjbGFzcz0ibGluayIgZGF0YS1lbnRpdHktMT0iQXV0aFVzZXIiIGRhdGEtZW50aXR5LTI9IlJlY2VpdmUgTW9uZXkiIGRhdGEtc291cmNlLWxpbmU9IjciIGRhdGEtdWlkPSJsbms5IiBpZD0ibGlua19BdXRoVXNlcl9SZWNlaXZlIE1vbmV5Ij48cGF0aCBkPSJNOTQ1LjcyMzEsODAuOCBDOTI1LjI0MzEsMTA4LjY1IDg5OC4yMTMxLDE0NS40MSA4ODMuNDgzMSwxNjUuNDUiIGZpbGw9Im5vbmUiIGlkPSJBdXRoVXNlci1SZWNlaXZlIE1vbmV5IiBzdHlsZT0ic3Ryb2tlOiMxODE4MTg7c3Ryb2tlLXdpZHRoOjE7Ii8+PC9nPjwhLS1saW5rIEF1dGhVc2VyIHRvIE9uYm9hcmQgQmFuayBBY2NvdW50cy0tPjxnIGNsYXNzPSJsaW5rIiBkYXRhLWVudGl0eS0xPSJBdXRoVXNlciIgZGF0YS1lbnRpdHktMj0iT25ib2FyZCBCYW5rIEFjY291bnRzIiBkYXRhLXNvdXJjZS1saW5lPSI4IiBkYXRhLXVpZD0ibG5rMTEiIGlkPSJsaW5rX0F1dGhVc2VyX09uYm9hcmQgQmFuayBBY2NvdW50cyI+PHBhdGggZD0iTTEwMzUuODczMSw3OS4wMiBDMTA4My41MTMxLDEwNS40NyAxMTQ2Ljk3MzEsMTQwLjY5IDExODQuOTYzMSwxNjEuNzgiIGZpbGw9Im5vbmUiIGlkPSJBdXRoVXNlci1PbmJvYXJkIEJhbmsgQWNjb3VudHMiIHN0eWxlPSJzdHJva2U6IzE4MTgxODtzdHJva2Utd2lkdGg6MTsiLz48L2c+PCEtLWxpbmsgQXV0aFVzZXIgdG8gT25ib2FyZCBQcmVwYWlkIENhcmRzLS0+PGcgY2xhc3M9ImxpbmsiIGRhdGEtZW50aXR5LTE9IkF1dGhVc2VyIiBkYXRhLWVudGl0eS0yPSJPbmJvYXJkIFByZXBhaWQgQ2FyZHMiIGRhdGEtc291cmNlLWxpbmU9IjkiIGRhdGEtdWlkPSJsbmsxMyIgaWQ9ImxpbmtfQXV0aFVzZXJfT25ib2FyZCBQcmVwYWlkIENhcmRzIj48cGF0aCBkPSJNOTA5LjM4MzEsNjcuODkgQzg3My41NDMxLDgxLjkyIDgyOC4xNTMxLDEwMC41OCA3ODguNzgzMSwxMTkuNSBDNzYxLjg2MzEsMTMyLjQ0IDczMi4yOTMxLDE0OS4wMSA3MTAuNzUzMSwxNjEuNTMiIGZpbGw9Im5vbmUiIGlkPSJBdXRoVXNlci1PbmJvYXJkIFByZXBhaWQgQ2FyZHMiIHN0eWxlPSJzdHJva2U6IzE4MTgxODtzdHJva2Utd2lkdGg6MTsiLz48L2c+PCEtLWxpbmsgQXV0aFVzZXIgdG8gQmFsYW5jZSBJbnF1aXJ5LS0+PGcgY2xhc3M9ImxpbmsiIGRhdGEtZW50aXR5LTE9IkF1dGhVc2VyIiBkYXRhLWVudGl0eS0yPSJCYWxhbmNlIElucXVpcnkiIGRhdGEtc291cmNlLWxpbmU9IjEwIiBkYXRhLXVpZD0ibG5rMTUiIGlkPSJsaW5rX0F1dGhVc2VyX0JhbGFuY2UgSW5xdWlyeSI+PHBhdGggZD0iTTkwOS40NTMxLDQ4LjEgQzgyOC41MjMxLDU1LjA3IDY4NS4zMDMxLDczLjMxIDU3MS43ODMxLDExOS41IEM1NDQuNTQzMSwxMzAuNTggNTE2LjkzMzEsMTUwLjQyIDQ5OS4zODMxLDE2NC4zNSIgZmlsbD0ibm9uZSIgaWQ9IkF1dGhVc2VyLUJhbGFuY2UgSW5xdWlyeSIgc3R5bGU9InN0cm9rZTojMTgxODE4O3N0cm9rZS13aWR0aDoxOyIvPjwvZz48IS0tbGluayBBdXRoVXNlciB0byBNaW5pIFN0YXRlbWVudC0tPjxnIGNsYXNzPSJsaW5rIiBkYXRhLWVudGl0eS0xPSJBdXRoVXNlciIgZGF0YS1lbnRpdHktMj0iTWluaSBTdGF0ZW1lbnQiIGRhdGEtc291cmNlLWxpbmU9IjExIiBkYXRhLXVpZD0ibG5rMTciIGlkPSJsaW5rX0F1dGhVc2VyX01pbmkgU3RhdGVtZW50Ij48cGF0aCBkPSJNOTA5LjcwMzEsNDguMzkgQzc3OS4zMzMxLDU4LjA3IDQ4NC41MzMxLDgzLjMyIDM5MC43ODMxLDExOS41IEMzNjMuNjYzMSwxMjkuOTcgMzM2Ljg4MzEsMTUwLjU2IDMyMC4zNDMxLDE2NC43OSIgZmlsbD0ibm9uZSIgaWQ9IkF1dGhVc2VyLU1pbmkgU3RhdGVtZW50IiBzdHlsZT0ic3Ryb2tlOiMxODE4MTg7c3Ryb2tlLXdpZHRoOjE7Ii8+PC9nPjwhLS1saW5rIEF1dGhVc2VyIHRvIFJlZ2lzdGVyIE1vYmlsZSBOdW1iZXItLT48ZyBjbGFzcz0ibGluayIgZGF0YS1lbnRpdHktMT0iQXV0aFVzZXIiIGRhdGEtZW50aXR5LTI9IlJlZ2lzdGVyIE1vYmlsZSBOdW1iZXIiIGRhdGEtc291cmNlLWxpbmU9IjEyIiBkYXRhLXVpZD0ibG5rMTkiIGlkPSJsaW5rX0F1dGhVc2VyX1JlZ2lzdGVyIE1vYmlsZSBOdW1iZXIiPjxwYXRoIGQ9Ik0xMDM2LjE2MzEsNDguMiBDMTEyNy45NjMxLDU1Ljc1IDEyOTAuOTEzMSw3NS4xNyAxMzI2Ljc4MzEsMTE5LjUgQzEzNDkuNzEzMSwxNDcuODMgMTM0Ny44MzMxLDE3MS43NSAxMzI2Ljc4MzEsMjAxLjUgQzEzMjIuNzczMSwyMDcuMTcgMTE0OC44NDMxLDI2Ni40NSAxMDYwLjc4MzEsMjk2LjE4IiBmaWxsPSJub25lIiBpZD0iQXV0aFVzZXItUmVnaXN0ZXIgTW9iaWxlIE51bWJlciIgc3R5bGU9InN0cm9rZTojMTgxODE4O3N0cm9rZS13aWR0aDoxOyIvPjwvZz48IS0tbGluayBBdXRoVXNlciB0byBSZWdpc3RlciBEZWJpdCBDYXJkLS0+PGcgY2xhc3M9ImxpbmsiIGRhdGEtZW50aXR5LTE9IkF1dGhVc2VyIiBkYXRhLWVudGl0eS0yPSJSZWdpc3RlciBEZWJpdCBDYXJkIiBkYXRhLXNvdXJjZS1saW5lPSIxMyIgZGF0YS11aWQ9ImxuazIxIiBpZD0ibGlua19BdXRoVXNlcl9SZWdpc3RlciBEZWJpdCBDYXJkIj48cGF0aCBkPSJNMTAzNi4xNTMxLDQ1LjU3IEMxMTM3LjQ0MzEsNDkuNyAxMzI3LjgyMzEsNjQuNzUgMTM2MC43ODMxLDExOS41IEMxMzc5LjU4MzEsMTUwLjcyIDEzNzYuMzczMSwxNjguNTYgMTM2MC43ODMxLDIwMS41IEMxMzM5Ljk1MzEsMjQ1LjUyIDEyOTIuMjgzMSwyNzcuOTcgMTI1OS4zMDMxLDI5Ni4xOCIgZmlsbD0ibm9uZSIgaWQ9IkF1dGhVc2VyLVJlZ2lzdGVyIERlYml0IENhcmQiIHN0eWxlPSJzdHJva2U6IzE4MTgxODtzdHJva2Utd2lkdGg6MTsiLz48L2c+PCEtLWxpbmsgU2VuZCBNb25leSB0byBTZWN1cmUgSW5zdGFudCBQYXltZW50IE5ldHdvcmstLT48ZyBjbGFzcz0ibGluayIgZGF0YS1lbnRpdHktMT0iU2VuZCBNb25leSIgZGF0YS1lbnRpdHktMj0iU2VjdXJlIEluc3RhbnQgUGF5bWVudCBOZXR3b3JrIiBkYXRhLXNvdXJjZS1saW5lPSIxNSIgZGF0YS11aWQ9ImxuazIzIiBpZD0ibGlua19TZW5kIE1vbmV5X1NlY3VyZSBJbnN0YW50IFBheW1lbnQgTmV0d29yayI+PHBhdGggZD0iTTEwMDguMjUzMSwxOTMuODYgQzk2My41NjMxLDIxNS40NiA4NzMuNTM0OCwyNTguOTc4MyA4MTUuNDE0OCwyODcuMDc4MyIgZmlsbD0ibm9uZSIgaWQ9IlNlbmQgTW9uZXktdG8tU2VjdXJlIEluc3RhbnQgUGF5bWVudCBOZXR3b3JrIiBzdHlsZT0ic3Ryb2tlOiMxODE4MTg7c3Ryb2tlLXdpZHRoOjE7c3Ryb2tlLWRhc2hhcnJheTo3LjAsNy4wOyIvPjxwb2x5Z29uIGZpbGw9IiMxODE4MTgiIHBvaW50cz0iODEwLjAxMzEsMjg5LjY5LDgxOS44NTY4LDI4OS4zNzM3LDgxNC41MTQ1LDI4Ny41MTM2LDgxNi4zNzQ2LDI4Mi4xNzEzLDgxMC4wMTMxLDI4OS42OSIgc3R5bGU9InN0cm9rZTojMTgxODE4O3N0cm9rZS13aWR0aDoxOyIvPjx0ZXh0IGZpbGw9IiMwMDAwMDAiIGZvbnQtZmFtaWx5PSJzYW5zLXNlcmlmIiBmb250LXNpemU9IjEzIiBsZW5ndGhBZGp1c3Q9InNwYWNpbmciIHRleHRMZW5ndGg9IjU4LjUiIHg9IjkyOS43ODMxIiB5PSIyNDQuNzg5MSI+JiMxNzE7aW5jbHVkZSYjMTg3OzwvdGV4dD48L2c+PCEtLWxpbmsgUmVjZWl2ZSBNb25leSB0byBTZWN1cmUgSW5zdGFudCBQYXltZW50IE5ldHdvcmstLT48ZyBjbGFzcz0ibGluayIgZGF0YS1lbnRpdHktMT0iUmVjZWl2ZSBNb25leSIgZGF0YS1lbnRpdHktMj0iU2VjdXJlIEluc3RhbnQgUGF5bWVudCBOZXR3b3JrIiBkYXRhLXNvdXJjZS1saW5lPSIxNiIgZGF0YS11aWQ9ImxuazI0IiBpZD0ibGlua19SZWNlaXZlIE1vbmV5X1NlY3VyZSBJbnN0YW50IFBheW1lbnQgTmV0d29yayI+PHBhdGggZD0iTTg2MC42OTMxLDE5Ni4yNyBDODQyLjE1MzEsMjE4LjE1IDgxMC4zMDIzLDI1NS43NDI3IDc4Ny4yNDIzLDI4Mi45NTI3IiBmaWxsPSJub25lIiBpZD0iUmVjZWl2ZSBNb25leS10by1TZWN1cmUgSW5zdGFudCBQYXltZW50IE5ldHdvcmsiIHN0eWxlPSJzdHJva2U6IzE4MTgxODtzdHJva2Utd2lkdGg6MTtzdHJva2UtZGFzaGFycmF5OjcuMCw3LjA7Ii8+PHBvbHlnb24gZmlsbD0iIzE4MTgxOCIgcG9pbnRzPSI3ODMuMzYzMSwyODcuNTMsNzkyLjIzMzQsMjgzLjI1MDIsNzg2LjU5NTcsMjgzLjcxNTYsNzg2LjEzMDMsMjc4LjA3NzksNzgzLjM2MzEsMjg3LjUzIiBzdHlsZT0ic3Ryb2tlOiMxODE4MTg7c3Ryb2tlLXdpZHRoOjE7Ii8+PHRleHQgZmlsbD0iIzAwMDAwMCIgZm9udC1mYW1pbHk9InNhbnMtc2VyaWYiIGZvbnQtc2l6ZT0iMTMiIGxlbmd0aEFkanVzdD0ic3BhY2luZyIgdGV4dExlbmd0aD0iNTguNSIgeD0iODMwLjc4MzEiIHk9IjI0NC43ODkxIj4mIzE3MTtpbmNsdWRlJiMxODc7PC90ZXh0PjwvZz48IS0tbGluayBPbmJvYXJkIEJhbmsgQWNjb3VudHMgdG8gQmFuay0tPjxnIGNsYXNzPSJsaW5rIiBkYXRhLWVudGl0eS0xPSJPbmJvYXJkIEJhbmsgQWNjb3VudHMiIGRhdGEtZW50aXR5LTI9IkJhbmsiIGRhdGEtc291cmNlLWxpbmU9IjE3IiBkYXRhLXVpZD0ibG5rMjUiIGlkPSJsaW5rX09uYm9hcmQgQmFuayBBY2NvdW50c19CYW5rIj48cGF0aCBkPSJNMTE1Mi4yOTMxLDE5NS4yNSBDMTEzOC4wMDMxLDE5Ny43MSAxMTIyLjkyMzEsMTk5Ljk4IDExMDguNzgzMSwyMDEuNSBDNzQ2LjE3MzEsMjQwLjM3IDY1MC45NjMxLDE4OC43OCAyODguNzgzMSwyMzEuNSBDMjYzLjU3MzEsMjM0LjQ3IDg2Ljc1MzEsMjYzLjc4IDY0Ljc4MzEsMjc2LjUgQzU4LjA3MzEsMjgwLjM4IDU1LjkzMzMsMjgxLjYxMzUgNTAuOTczMywyODcuNDYzNSIgZmlsbD0ibm9uZSIgaWQ9Ik9uYm9hcmQgQmFuayBBY2NvdW50cy10by1CYW5rIiBzdHlsZT0ic3Ryb2tlOiMxODE4MTg7c3Ryb2tlLXdpZHRoOjE7c3Ryb2tlLWRhc2hhcnJheTo3LjAsNy4wOyIvPjxwb2x5Z29uIGZpbGw9IiMxODE4MTgiIHBvaW50cz0iNDcuMDkzMSwyOTIuMDQsNTUuOTY0MywyODcuNzYyMSw1MC4zMjY2LDI4OC4yMjYzLDQ5Ljg2MjQsMjgyLjU4ODUsNDcuMDkzMSwyOTIuMDQiIHN0eWxlPSJzdHJva2U6IzE4MTgxODtzdHJva2Utd2lkdGg6MTsiLz48dGV4dCBmaWxsPSIjMDAwMDAwIiBmb250LWZhbWlseT0ic2Fucy1zZXJpZiIgZm9udC1zaXplPSIxMyIgbGVuZ3RoQWRqdXN0PSJzcGFjaW5nIiB0ZXh0TGVuZ3RoPSI1MiIgeD0iMjg5Ljc4MzEiIHk9IjI0NC43ODkxIj4mIzE3MTtleHRlbmQmIzE4Nzs8L3RleHQ+PC9nPjwhLS1saW5rIE9uYm9hcmQgUHJlcGFpZCBDYXJkcyB0byBQcmVwYWlkQ2FyZElzc3Vlci0tPjxnIGNsYXNzPSJsaW5rIiBkYXRhLWVudGl0eS0xPSJPbmJvYXJkIFByZXBhaWQgQ2FyZHMiIGRhdGEtZW50aXR5LTI9IlByZXBhaWRDYXJkSXNzdWVyIiBkYXRhLXNvdXJjZS1saW5lPSIxOCIgZGF0YS11aWQ9ImxuazI2IiBpZD0ibGlua19PbmJvYXJkIFByZXBhaWQgQ2FyZHNfUHJlcGFpZENhcmRJc3N1ZXIiPjxwYXRoIGQ9Ik02MTIuMjUzMSwxOTQuODYgQzQ5My4xNDMxLDIxNy42OCAyNTQuNzgzMSwyNjQuMDQgMjE3Ljc4MzEsMjc2LjUgQzIxMi4zNzMxLDI3OC4zMiAyMTIuMzgyNywyNzguMTI1MiAyMDYuOTAyNywyODAuNDA1MiIgZmlsbD0ibm9uZSIgaWQ9Ik9uYm9hcmQgUHJlcGFpZCBDYXJkcy10by1QcmVwYWlkQ2FyZElzc3VlciIgc3R5bGU9InN0cm9rZTojMTgxODE4O3N0cm9rZS13aWR0aDoxO3N0cm9rZS1kYXNoYXJyYXk6Ny4wLDcuMDsiLz48cG9seWdvbiBmaWxsPSIjMTgxODE4IiBwb2ludHM9IjIwMS4zNjMxLDI4Mi43MSwyMTEuMjA5MSwyODIuOTQ1OSwyMDUuOTc5NCwyODAuNzg5MywyMDguMTM2LDI3NS41NTk3LDIwMS4zNjMxLDI4Mi43MSIgc3R5bGU9InN0cm9rZTojMTgxODE4O3N0cm9rZS13aWR0aDoxOyIvPjx0ZXh0IGZpbGw9IiMwMDAwMDAiIGZvbnQtZmFtaWx5PSJzYW5zLXNlcmlmIiBmb250LXNpemU9IjEzIiBsZW5ndGhBZGp1c3Q9InNwYWNpbmciIHRleHRMZW5ndGg9IjUyIiB4PSI0MTUuNzgzMSIgeT0iMjQ0Ljc4OTEiPiYjMTcxO2V4dGVuZCYjMTg3OzwvdGV4dD48L2c+PCEtLWxpbmsgQmFsYW5jZSBJbnF1aXJ5IHRvIEJhbmstLT48ZyBjbGFzcz0ibGluayIgZGF0YS1lbnRpdHktMT0iQmFsYW5jZSBJbnF1aXJ5IiBkYXRhLWVudGl0eS0yPSJCYW5rIiBkYXRhLXNvdXJjZS1saW5lPSIxOSIgZGF0YS11aWQ9ImxuazI3IiBpZD0ibGlua19CYWxhbmNlIElucXVpcnlfQmFuayI+PHBhdGggZD0iTTQzMS40NDMxLDE5My42MyBDNDE4LjI4MzEsMTk2LjQ4IDQwNC4wMzMxLDE5OS4zMyAzOTAuNzgzMSwyMDEuNSBDMjcyLjk0MzEsMjIwLjgzIDIzNC42MDMxLDE4Ny4wMSAxMjMuNzgzMSwyMzEuNSBDOTEuMzAzMSwyNDQuNTQgNjYuNjg0MSwyNjkuOTY5NCA1MC41ODQxLDI4OS43MTk0IiBmaWxsPSJub25lIiBpZD0iQmFsYW5jZSBJbnF1aXJ5LXRvLUJhbmsiIHN0eWxlPSJzdHJva2U6IzE4MTgxODtzdHJva2Utd2lkdGg6MTtzdHJva2UtZGFzaGFycmF5OjcuMCw3LjA7Ii8+PHBvbHlnb24gZmlsbD0iIzE4MTgxOCIgcG9pbnRzPSI0Ni43OTMxLDI5NC4zNyw1NS41ODAxLDI4OS45MjE2LDQ5Ljk1MjMsMjkwLjQ5NDUsNDkuMzc5MywyODQuODY2OCw0Ni43OTMxLDI5NC4zNyIgc3R5bGU9InN0cm9rZTojMTgxODE4O3N0cm9rZS13aWR0aDoxOyIvPjx0ZXh0IGZpbGw9IiMwMDAwMDAiIGZvbnQtZmFtaWx5PSJzYW5zLXNlcmlmIiBmb250LXNpemU9IjEzIiBsZW5ndGhBZGp1c3Q9InNwYWNpbmciIHRleHRMZW5ndGg9IjUyIiB4PSIxMjQuNzgzMSIgeT0iMjQ0Ljc4OTEiPiYjMTcxO2V4dGVuZCYjMTg3OzwvdGV4dD48L2c+PCEtLWxpbmsgTWluaSBTdGF0ZW1lbnQgdG8gQmFuay0tPjxnIGNsYXNzPSJsaW5rIiBkYXRhLWVudGl0eS0xPSJNaW5pIFN0YXRlbWVudCIgZGF0YS1lbnRpdHktMj0iQmFuayIgZGF0YS1zb3VyY2UtbGluZT0iMjAiIGRhdGEtdWlkPSJsbmsyOCIgaWQ9ImxpbmtfTWluaSBTdGF0ZW1lbnRfQmFuayI+PHBhdGggZD0iTTIzNS44NjMxLDE4NC42MiBDMTYzLjQwMzEsMTg5IDU1LjU0MzEsMjAwLjY2IDI5Ljc4MzEsMjMxLjUgQzE5LjYxMzEsMjQzLjY3IDE3Ljk4ODUsMjU0Ljg2MzIgMjAuNDE4NSwyNzAuMjczMiIgZmlsbD0ibm9uZSIgaWQ9Ik1pbmkgU3RhdGVtZW50LXRvLUJhbmsiIHN0eWxlPSJzdHJva2U6IzE4MTgxODtzdHJva2Utd2lkdGg6MTtzdHJva2UtZGFzaGFycmF5OjcuMCw3LjA7Ii8+PHBvbHlnb24gZmlsbD0iIzE4MTgxOCIgcG9pbnRzPSIyMS4zNTMxLDI3Ni4yLDIzLjkwMjQsMjY2LjY4NjgsMjAuNTc0MiwyNzEuMjYxLDE2LDI2Ny45MzI5LDIxLjM1MzEsMjc2LjIiIHN0eWxlPSJzdHJva2U6IzE4MTgxODtzdHJva2Utd2lkdGg6MTsiLz48dGV4dCBmaWxsPSIjMDAwMDAwIiBmb250LWZhbWlseT0ic2Fucy1zZXJpZiIgZm9udC1zaXplPSIxMyIgbGVuZ3RoQWRqdXN0PSJzcGFjaW5nIiB0ZXh0TGVuZ3RoPSI1MiIgeD0iMzAuNzgzMSIgeT0iMjQ0Ljc4OTEiPiYjMTcxO2V4dGVuZCYjMTg3OzwvdGV4dD48L2c+PCEtLWxpbmsgT25ib2FyZCBCYW5rIEFjY291bnRzIHRvIFJlZ2lzdGVyIE1vYmlsZSBOdW1iZXItLT48ZyBjbGFzcz0ibGluayIgZGF0YS1lbnRpdHktMT0iT25ib2FyZCBCYW5rIEFjY291bnRzIiBkYXRhLWVudGl0eS0yPSJSZWdpc3RlciBNb2JpbGUgTnVtYmVyIiBkYXRhLXNvdXJjZS1saW5lPSIyMiIgZGF0YS11aWQ9ImxuazI5IiBpZD0ibGlua19PbmJvYXJkIEJhbmsgQWNjb3VudHNfUmVnaXN0ZXIgTW9iaWxlIE51bWJlciI+PHBhdGggZD0iTTExODguNTYzMSwyMDAuNDkgQzExNDkuNDQzMSwyMjUuMjUgMTA4MC40MTMxLDI2OC45NCAxMDQwLjg2MzEsMjkzLjk3IiBmaWxsPSJub25lIiBpZD0iT25ib2FyZCBCYW5rIEFjY291bnRzLVJlZ2lzdGVyIE1vYmlsZSBOdW1iZXIiIHN0eWxlPSJzdHJva2U6IzE4MTgxODtzdHJva2Utd2lkdGg6MTsiLz48L2c+PCEtLWxpbmsgT25ib2FyZCBCYW5rIEFjY291bnRzIHRvIFJlZ2lzdGVyIERlYml0IENhcmQtLT48ZyBjbGFzcz0ibGluayIgZGF0YS1lbnRpdHktMT0iT25ib2FyZCBCYW5rIEFjY291bnRzIiBkYXRhLWVudGl0eS0yPSJSZWdpc3RlciBEZWJpdCBDYXJkIiBkYXRhLXNvdXJjZS1saW5lPSIyMyIgZGF0YS11aWQ9ImxuazMwIiBpZD0ibGlua19PbmJvYXJkIEJhbmsgQWNjb3VudHNfUmVnaXN0ZXIgRGViaXQgQ2FyZCI+PHBhdGggZD0iTTEyMTguODMzMSwyMDEuNjEgQzEyMjAuMTYzMSwyMjYuNTkgMTIyMi40NTMxLDI2OS40NyAxMjIzLjc3MzEsMjk0LjExIiBmaWxsPSJub25lIiBpZD0iT25ib2FyZCBCYW5rIEFjY291bnRzLVJlZ2lzdGVyIERlYml0IENhcmQiIHN0eWxlPSJzdHJva2U6IzE4MTgxODtzdHJva2Utd2lkdGg6MTsiLz48L2c+PCEtLWxpbmsgT25ib2FyZCBQcmVwYWlkIENhcmRzIHRvIFByb3ZpZGUgUHJlcGFpZCBDYXJkIE51bWJlci0tPjxnIGNsYXNzPSJsaW5rIiBkYXRhLWVudGl0eS0xPSJPbmJvYXJkIFByZXBhaWQgQ2FyZHMiIGRhdGEtZW50aXR5LTI9IlByb3ZpZGUgUHJlcGFpZCBDYXJkIE51bWJlciIgZGF0YS1zb3VyY2UtbGluZT0iMjQiIGRhdGEtdWlkPSJsbmszMiIgaWQ9ImxpbmtfT25ib2FyZCBQcmVwYWlkIENhcmRzX1Byb3ZpZGUgUHJlcGFpZCBDYXJkIE51bWJlciI+PHBhdGggZD0iTTY1My40MjMxLDIwMC43NyBDNjIwLjIzMzEsMjI0LjQgNTYzLjI2MzEsMjY0Ljk2IDUyNy42NjMxLDI5MC4zMSIgZmlsbD0ibm9uZSIgaWQ9Ik9uYm9hcmQgUHJlcGFpZCBDYXJkcy1Qcm92aWRlIFByZXBhaWQgQ2FyZCBOdW1iZXIiIHN0eWxlPSJzdHJva2U6IzE4MTgxODtzdHJva2Utd2lkdGg6MTsiLz48L2c+PCEtLVNSQz1bZkw5MVJpOG00QnBkNVFrU2NXQ3llNEFIR2dqQTc0QVplZ2ZkbnJ2SFlzMmR6WGdBZ2x3elRlZzA5MkhLd2l0VWRUYVBwdmZucVdSWXBENHhBZkFTNEdmdWpNWFlPMVAyRUxtWXJpM2NKNnNFbnk5V3BRSHVPNE9paDdLVTRYZGFuREl3R2VZVk02THJtR3htWFlMYVRIdDNMbUlkUUoyUG1EcUFiTzFTQXBtYXRUT0JTZkd4N0VXLWdyOXhyU09DUDluaGZ5V0VlZXUtOEhaamUtUWlPZWVaQkRJN2F3UWxiS2liT0tLLWJBckZ2dWhIalJKYUJ4YWtmTl90cWNyQkRDRW1Ib21iRExRSW84Q2tDdTJmcTdpckpLRUhFbkNpTVB5Y1dLeW5RQ0NJUVFfRDllNXhjQ3NhdWZLSmNBUFhJWmtrVm1vd2RrbnZPQVpfcWwySmxGS3NndnRxY1ROeEFWcUh0Sk5TYWtvaVBIRy15aDNuNVZ3OVRSZEh1SW0yZkoxdzltTXNNWVVyeG55MF0tLT48L2c+PC9zdmc+;" parent="1" vertex="1">
            <mxGeometry x="-270" y="200" width="1386" height="362" as="geometry" />
          </mxCell>
        </UserObject>
      </root>
    </mxGraphModel>
  </diagram>
  <diagram id="_bevF7r19llJlJXNFiMN" name="Detailed-Use-Case">
    <mxGraphModel dx="2915" dy="730" grid="1" gridSize="10" guides="1" tooltips="1" connect="1" arrows="1" fold="1" page="1" pageScale="1" pageWidth="850" pageHeight="1100" math="0" shadow="0">
      <root>
        <mxCell id="0" />
        <mxCell id="1" parent="0" />
        <UserObject label="" plantUmlData="{&quot;data&quot;:&quot;@startuml\n\nactor \&quot;Authenticated User\&quot; as AuthUser\nactor Bank\nactor PrepaidCardIssuer\n\nusecase \&quot;Send Money\&quot; as UC1\nusecase \&quot;Receive Money\&quot; as UC2\nusecase \&quot;Onboard Bank Accounts\&quot; as UC3\nusecase \&quot;Onboard Prepaid Cards\&quot; as UC4\nusecase \&quot;Balance Inquiry\&quot; as UC5\nusecase \&quot;Mini Statement\&quot; as UC6\nusecase \&quot;Register Mobile Number\&quot; as UC7\nusecase \&quot;Register Debit Card\&quot; as UC8\nusecase \&quot;Provide Prepaid Card Number\&quot; as UC9\n\nUC1 -down-&gt; UC2 : &lt;&lt;include&gt;&gt;\nUC3 -down-&gt; UC7 : &lt;&lt;extend&gt;&gt;\nUC3 -down-&gt; UC8 : &lt;&lt;extend&gt;&gt;\nUC4 -down-&gt; UC9 : &lt;&lt;extend&gt;&gt;\n\n&#39; Description for Send Money\npackage \&quot;Use-Case 1: Send Money\&quot; {\n  note right of UC1\n    - **ID**: UC-001\n    - **Goal**: Send money securely and instantly\n    - **Initiator**: Authenticated User\n    - **Pre-condition(s)**: Authenticated User is logged in, linked bank account/prepaid card.\n    - **Post-condition(s)**: Money is transferred securely via Instant Payment Network.\n    - **Main Success Scenario**:\n      1. Authenticated User selects recipient (mobile number/IPA).\n      2. Authenticated User enters transfer amount and selects payment method.\n      3. System processes transaction.\n      4. Transfer successful, user notified.\n    - **Alternative/Unsuccessful Scenarios**:\n      - Insufficient funds.\n      - Network failure.\n      - Invalid recipient details.\n  end note\n}\n\n&#39; Description for Receive Money\npackage \&quot;Use-Case 2: Receive Money\&quot; {\n  note right of UC2\n    - **ID**: UC-002\n    - **Goal**: Receive money securely.\n    - **Initiator**: Authenticated User\n    - **Pre-condition(s)**: Authenticated User has linked bank account/prepaid card.\n    - **Post-condition(s)**: Money deposited into linked account.\n    - **Main Success Scenario**:\n      1. Sender initiates transfer.\n      2. System processes and deposits the money.\n      3. Authenticated User receives notification.\n    - **Alternative/Unsuccessful Scenarios**:\n      - Incorrect recipient details.\n      - Transaction failure (security issue).\n  end note\n}\n\n&#39; Description for Onboard Bank Accounts\npackage \&quot;Use-Case 3: Onboard Bank Accounts\&quot; {\n  note right of UC3\n    - **ID**: UC-003\n    - **Goal**: Link bank account for transfers.\n    - **Initiator**: Authenticated User\n    - **Pre-condition(s)**: Authenticated User has valid bank details.\n    - **Post-condition(s)**: Bank account successfully linked.\n    - **Main Success Scenario**:\n      1. Authenticated User selects bank.\n      2. Registers mobile number and debit card details.\n      3. System validates details, links account.\n      4. Authenticated User notified of success.\n    - **Alternative/Unsuccessful Scenarios**:\n      - Invalid details.\n      - Unsupported bank.\n  end note\n}\n\n&#39; Description for Onboard Prepaid Cards\npackage \&quot;Use-Case 4: Onboard Prepaid Cards\&quot; {\n  note right of UC4\n    - **ID**: UC-004\n    - **Goal**: Link prepaid card for transactions.\n    - **Initiator**: Authenticated User\n    - **Pre-condition(s)**: Authenticated User has valid prepaid card number.\n    - **Post-condition(s)**: Prepaid card linked to the user account.\n    - **Main Success Scenario**:\n      1. Authenticated User enters prepaid card number.\n      2. System validates and links the card.\n      3. Authenticated User notified of success.\n    - **Alternative/Unsuccessful Scenarios**:\n      - Invalid card number.\n      - Unsupported prepaid card.\n  end note\n}\n\n&#39; Description for Balance Inquiry\npackage \&quot;Use-Case 5: Balance Inquiry\&quot; {\n  note right of UC5\n    - **ID**: UC-005\n    - **Goal**: Check balance of linked accounts.\n    - **Initiator**: Authenticated User\n    - **Pre-condition(s)**: Authenticated User has at least one linked account.\n    - **Post-condition(s)**: Authenticated User sees the balance of their linked accounts.\n    - **Main Success Scenario**:\n      1. Authenticated User selects \&quot;Balance Inquiry\&quot;.\n      2. System retrieves and displays balance for each linked account.\n    - **Alternative/Unsuccessful Scenarios**:\n      - Failure to retrieve balance.\n  end note\n}\n\n&#39; Description for Mini Statement\npackage \&quot;Use-Case 6: Mini Statement\&quot; {\n  note right of UC6\n    - **ID**: UC-006\n    - **Goal**: View recent transactions for linked accounts.\n    - **Initiator**: Authenticated User\n    - **Pre-condition(s)**: Authenticated User has linked accounts.\n    - **Post-condition(s)**: Mini statement displayed.\n    - **Main Success Scenario**:\n      1. Authenticated User selects \&quot;Mini Statement\&quot;.\n      2. System retrieves and displays recent transactions.\n    - **Alternative/Unsuccessful Scenarios**:\n      - Failure to retrieve transactions.\n  end note\n}\n\n@enduml\n&quot;,&quot;format&quot;:&quot;svg&quot;}" id="FeM-zvu3s0TtLHiWgOLh-1">
          <mxCell style="shape=image;noLabel=1;verticalAlign=top;aspect=fixed;imageAspect=0;image=data:image/svg+xml,PHN2ZyB4bWxucz0iaHR0cDovL3d3dy53My5vcmcvMjAwMC9zdmciIHhtbG5zOnhsaW5rPSJodHRwOi8vd3d3LnczLm9yZy8xOTk5L3hsaW5rIiBjb250ZW50U3R5bGVUeXBlPSJ0ZXh0L2NzcyIgZGF0YS1kaWFncmFtLXR5cGU9IkRFU0NSSVBUSU9OIiBoZWlnaHQ9IjU0MHB4IiBwcmVzZXJ2ZUFzcGVjdFJhdGlvPSJub25lIiBzdHlsZT0id2lkdGg6Mzc1OXB4O2hlaWdodDo1NDBweDtiYWNrZ3JvdW5kOiNGRkZGRkY7IiB2ZXJzaW9uPSIxLjEiIHZpZXdCb3g9IjAgMCAzNzU5IDU0MCIgd2lkdGg9IjM3NTlweCIgem9vbUFuZFBhbj0ibWFnbmlmeSI+PGRlZnMvPjxnPjwhLS1jbHVzdGVyIFVzZS1DYXNlIDE6IFNlbmQgTW9uZXktLT48ZyBjbGFzcz0iY2x1c3RlciIgZGF0YS1lbnRpdHk9IlVzZS1DYXNlIDE6IFNlbmQgTW9uZXkiIGRhdGEtc291cmNlLWxpbmU9IjIxIiBkYXRhLXVpZD0iZW50MDAxOCIgaWQ9ImNsdXN0ZXJfVXNlLUNhc2UgMTogU2VuZCBNb25leSI+PHBhdGggZD0iTTE1Myw2IEwzMDgsNiBBMy43NSwzLjc1IDAgMCAxIDMxMC41LDguNSBMMzE3LjUsMjYuOTg0NCBMNzYwLDI2Ljk4NDQgQTIuNSwyLjUgMCAwIDEgNzYyLjUsMjkuNDg0NCBMNzYyLjUsMjU3LjUgQTIuNSwyLjUgMCAwIDEgNzYwLDI2MCBMMTUzLDI2MCBBMi41LDIuNSAwIDAgMSAxNTAuNSwyNTcuNSBMMTUwLjUsOC41IEEyLjUsMi41IDAgMCAxIDE1Myw2IiBmaWxsPSJub25lIiBzdHlsZT0ic3Ryb2tlOiMwMDAwMDA7c3Ryb2tlLXdpZHRoOjEuNTsiLz48bGluZSBzdHlsZT0ic3Ryb2tlOiMwMDAwMDA7c3Ryb2tlLXdpZHRoOjEuNTsiIHgxPSIxNTAuNSIgeDI9IjMxNy41IiB5MT0iMjYuOTg0NCIgeTI9IjI2Ljk4NDQiLz48dGV4dCBmaWxsPSIjMDAwMDAwIiBmb250LWZhbWlseT0ic2Fucy1zZXJpZiIgZm9udC1zaXplPSIxNCIgZm9udC13ZWlnaHQ9ImJvbGQiIGxlbmd0aEFkanVzdD0ic3BhY2luZyIgdGV4dExlbmd0aD0iMTU0IiB4PSIxNTQuNSIgeT0iMjEuMjM0NCI+VXNlLUNhc2UgMTogU2VuZCBNb25leTwvdGV4dD48L2c+PCEtLWNsdXN0ZXIgVXNlLUNhc2UgMjogUmVjZWl2ZSBNb25leS0tPjxnIGNsYXNzPSJjbHVzdGVyIiBkYXRhLWVudGl0eT0iVXNlLUNhc2UgMjogUmVjZWl2ZSBNb25leSIgZGF0YS1zb3VyY2UtbGluZT0iNDEiIGRhdGEtdWlkPSJlbnQwMDIyIiBpZD0iY2x1c3Rlcl9Vc2UtQ2FzZSAyOiBSZWNlaXZlIE1vbmV5Ij48cGF0aCBkPSJNMTYwLDMwNyBMMzM2LDMwNyBBMy43NSwzLjc1IDAgMCAxIDMzOC41LDMwOS41IEwzNDUuNSwzMjcuOTg0NCBMNzAzLDMyNy45ODQ0IEEyLjUsMi41IDAgMCAxIDcwNS41LDMzMC40ODQ0IEw3MDUuNSw1MzAuNSBBMi41LDIuNSAwIDAgMSA3MDMsNTMzIEwxNjAsNTMzIEEyLjUsMi41IDAgMCAxIDE1Ny41LDUzMC41IEwxNTcuNSwzMDkuNSBBMi41LDIuNSAwIDAgMSAxNjAsMzA3IiBmaWxsPSJub25lIiBzdHlsZT0ic3Ryb2tlOiMwMDAwMDA7c3Ryb2tlLXdpZHRoOjEuNTsiLz48bGluZSBzdHlsZT0ic3Ryb2tlOiMwMDAwMDA7c3Ryb2tlLXdpZHRoOjEuNTsiIHgxPSIxNTcuNSIgeDI9IjM0NS41IiB5MT0iMzI3Ljk4NDQiIHkyPSIzMjcuOTg0NCIvPjx0ZXh0IGZpbGw9IiMwMDAwMDAiIGZvbnQtZmFtaWx5PSJzYW5zLXNlcmlmIiBmb250LXNpemU9IjE0IiBmb250LXdlaWdodD0iYm9sZCIgbGVuZ3RoQWRqdXN0PSJzcGFjaW5nIiB0ZXh0TGVuZ3RoPSIxNzUiIHg9IjE2MS41IiB5PSIzMjIuMjM0NCI+VXNlLUNhc2UgMjogUmVjZWl2ZSBNb25leTwvdGV4dD48L2c+PCEtLWNsdXN0ZXIgVXNlLUNhc2UgMzogT25ib2FyZCBCYW5rIEFjY291bnRzLS0+PGcgY2xhc3M9ImNsdXN0ZXIiIGRhdGEtZW50aXR5PSJVc2UtQ2FzZSAzOiBPbmJvYXJkIEJhbmsgQWNjb3VudHMiIGRhdGEtc291cmNlLWxpbmU9IjU5IiBkYXRhLXVpZD0iZW50MDAyNiIgaWQ9ImNsdXN0ZXJfVXNlLUNhc2UgMzogT25ib2FyZCBCYW5rIEFjY291bnRzIj48cGF0aCBkPSJNOTg1LDEzIEwxMjE3LDEzIEEzLjc1LDMuNzUgMCAwIDEgMTIxOS41LDE1LjUgTDEyMjYuNSwzMy45ODQ0IEwxNDM2LDMzLjk4NDQgQTIuNSwyLjUgMCAwIDEgMTQzOC41LDM2LjQ4NDQgTDE0MzguNSwyNTAuNSBBMi41LDIuNSAwIDAgMSAxNDM2LDI1MyBMOTg1LDI1MyBBMi41LDIuNSAwIDAgMSA5ODIuNSwyNTAuNSBMOTgyLjUsMTUuNSBBMi41LDIuNSAwIDAgMSA5ODUsMTMiIGZpbGw9Im5vbmUiIHN0eWxlPSJzdHJva2U6IzAwMDAwMDtzdHJva2Utd2lkdGg6MS41OyIvPjxsaW5lIHN0eWxlPSJzdHJva2U6IzAwMDAwMDtzdHJva2Utd2lkdGg6MS41OyIgeDE9Ijk4Mi41IiB4Mj0iMTIyNi41IiB5MT0iMzMuOTg0NCIgeTI9IjMzLjk4NDQiLz48dGV4dCBmaWxsPSIjMDAwMDAwIiBmb250LWZhbWlseT0ic2Fucy1zZXJpZiIgZm9udC1zaXplPSIxNCIgZm9udC13ZWlnaHQ9ImJvbGQiIGxlbmd0aEFkanVzdD0ic3BhY2luZyIgdGV4dExlbmd0aD0iMjMxIiB4PSI5ODYuNSIgeT0iMjguMjM0NCI+VXNlLUNhc2UgMzogT25ib2FyZCBCYW5rIEFjY291bnRzPC90ZXh0PjwvZz48IS0tY2x1c3RlciBVc2UtQ2FzZSA0OiBPbmJvYXJkIFByZXBhaWQgQ2FyZHMtLT48ZyBjbGFzcz0iY2x1c3RlciIgZGF0YS1lbnRpdHk9IlVzZS1DYXNlIDQ6IE9uYm9hcmQgUHJlcGFpZCBDYXJkcyIgZGF0YS1zb3VyY2UtbGluZT0iNzgiIGRhdGEtdWlkPSJlbnQwMDMwIiBpZD0iY2x1c3Rlcl9Vc2UtQ2FzZSA0OiBPbmJvYXJkIFByZXBhaWQgQ2FyZHMiPjxwYXRoIGQ9Ik0xNjYyLDIwIEwxODk0LDIwIEEzLjc1LDMuNzUgMCAwIDEgMTg5Ni41LDIyLjUgTDE5MDMuNSw0MC45ODQ0IEwyMTU3LDQwLjk4NDQgQTIuNSwyLjUgMCAwIDEgMjE1OS41LDQzLjQ4NDQgTDIxNTkuNSwyNDMuNSBBMi41LDIuNSAwIDAgMSAyMTU3LDI0NiBMMTY2MiwyNDYgQTIuNSwyLjUgMCAwIDEgMTY1OS41LDI0My41IEwxNjU5LjUsMjIuNSBBMi41LDIuNSAwIDAgMSAxNjYyLDIwIiBmaWxsPSJub25lIiBzdHlsZT0ic3Ryb2tlOiMwMDAwMDA7c3Ryb2tlLXdpZHRoOjEuNTsiLz48bGluZSBzdHlsZT0ic3Ryb2tlOiMwMDAwMDA7c3Ryb2tlLXdpZHRoOjEuNTsiIHgxPSIxNjU5LjUiIHgyPSIxOTAzLjUiIHkxPSI0MC45ODQ0IiB5Mj0iNDAuOTg0NCIvPjx0ZXh0IGZpbGw9IiMwMDAwMDAiIGZvbnQtZmFtaWx5PSJzYW5zLXNlcmlmIiBmb250LXNpemU9IjE0IiBmb250LXdlaWdodD0iYm9sZCIgbGVuZ3RoQWRqdXN0PSJzcGFjaW5nIiB0ZXh0TGVuZ3RoPSIyMzEiIHg9IjE2NjMuNSIgeT0iMzUuMjM0NCI+VXNlLUNhc2UgNDogT25ib2FyZCBQcmVwYWlkIENhcmRzPC90ZXh0PjwvZz48IS0tY2x1c3RlciBVc2UtQ2FzZSA1OiBCYWxhbmNlIElucXVpcnktLT48ZyBjbGFzcz0iY2x1c3RlciIgZGF0YS1lbnRpdHk9IlVzZS1DYXNlIDU6IEJhbGFuY2UgSW5xdWlyeSIgZGF0YS1zb3VyY2UtbGluZT0iOTYiIGRhdGEtdWlkPSJlbnQwMDM0IiBpZD0iY2x1c3Rlcl9Vc2UtQ2FzZSA1OiBCYWxhbmNlIElucXVpcnkiPjxwYXRoIGQ9Ik0yMzQ2LDM0IEwyNTM2LDM0IEEzLjc1LDMuNzUgMCAwIDEgMjUzOC41LDM2LjUgTDI1NDUuNSw1NC45ODQ0IEwyOTI3LDU0Ljk4NDQgQTIuNSwyLjUgMCAwIDEgMjkyOS41LDU3LjQ4NDQgTDI5MjkuNSwyMjkuNSBBMi41LDIuNSAwIDAgMSAyOTI3LDIzMiBMMjM0NiwyMzIgQTIuNSwyLjUgMCAwIDEgMjM0My41LDIyOS41IEwyMzQzLjUsMzYuNSBBMi41LDIuNSAwIDAgMSAyMzQ2LDM0IiBmaWxsPSJub25lIiBzdHlsZT0ic3Ryb2tlOiMwMDAwMDA7c3Ryb2tlLXdpZHRoOjEuNTsiLz48bGluZSBzdHlsZT0ic3Ryb2tlOiMwMDAwMDA7c3Ryb2tlLXdpZHRoOjEuNTsiIHgxPSIyMzQzLjUiIHgyPSIyNTQ1LjUiIHkxPSI1NC45ODQ0IiB5Mj0iNTQuOTg0NCIvPjx0ZXh0IGZpbGw9IiMwMDAwMDAiIGZvbnQtZmFtaWx5PSJzYW5zLXNlcmlmIiBmb250LXNpemU9IjE0IiBmb250LXdlaWdodD0iYm9sZCIgbGVuZ3RoQWRqdXN0PSJzcGFjaW5nIiB0ZXh0TGVuZ3RoPSIxODkiIHg9IjIzNDcuNSIgeT0iNDkuMjM0NCI+VXNlLUNhc2UgNTogQmFsYW5jZSBJbnF1aXJ5PC90ZXh0PjwvZz48IS0tY2x1c3RlciBVc2UtQ2FzZSA2OiBNaW5pIFN0YXRlbWVudC0tPjxnIGNsYXNzPSJjbHVzdGVyIiBkYXRhLWVudGl0eT0iVXNlLUNhc2UgNjogTWluaSBTdGF0ZW1lbnQiIGRhdGEtc291cmNlLWxpbmU9IjExMiIgZGF0YS11aWQ9ImVudDAwMzgiIGlkPSJjbHVzdGVyX1VzZS1DYXNlIDY6IE1pbmkgU3RhdGVtZW50Ij48cGF0aCBkPSJNMzEwOSwzNCBMMzI5MiwzNCBBMy43NSwzLjc1IDAgMCAxIDMyOTQuNSwzNi41IEwzMzAxLjUsNTQuOTg0NCBMMzU0Miw1NC45ODQ0IEEyLjUsMi41IDAgMCAxIDM1NDQuNSw1Ny40ODQ0IEwzNTQ0LjUsMjI5LjUgQTIuNSwyLjUgMCAwIDEgMzU0MiwyMzIgTDMxMDksMjMyIEEyLjUsMi41IDAgMCAxIDMxMDYuNSwyMjkuNSBMMzEwNi41LDM2LjUgQTIuNSwyLjUgMCAwIDEgMzEwOSwzNCIgZmlsbD0ibm9uZSIgc3R5bGU9InN0cm9rZTojMDAwMDAwO3N0cm9rZS13aWR0aDoxLjU7Ii8+PGxpbmUgc3R5bGU9InN0cm9rZTojMDAwMDAwO3N0cm9rZS13aWR0aDoxLjU7IiB4MT0iMzEwNi41IiB4Mj0iMzMwMS41IiB5MT0iNTQuOTg0NCIgeTI9IjU0Ljk4NDQiLz48dGV4dCBmaWxsPSIjMDAwMDAwIiBmb250LWZhbWlseT0ic2Fucy1zZXJpZiIgZm9udC1zaXplPSIxNCIgZm9udC13ZWlnaHQ9ImJvbGQiIGxlbmd0aEFkanVzdD0ic3BhY2luZyIgdGV4dExlbmd0aD0iMTgyIiB4PSIzMTEwLjUiIHk9IjQ5LjIzNDQiPlVzZS1DYXNlIDY6IE1pbmkgU3RhdGVtZW50PC90ZXh0PjwvZz48ZyBjbGFzcz0iZW50aXR5IiBkYXRhLWVudGl0eT0iR01OMTkiIGRhdGEtc291cmNlLWxpbmU9IjIzIiBkYXRhLXVpZD0iZW50MDAyMCIgaWQ9ImVudGl0eV9HTU4xOSI+PHBhdGggZD0iTTE2Ni41LDM5IEwxNjYuNSwxMzcuNSBMMTMxLDE0MS41IEwxNjYuNSwxNDUuNSBMMTY2LjUsMjQzLjc5NjkgQTAsMCAwIDAgMCAxNjYuNSwyNDMuNzk2OSBMNzQ2LjUsMjQzLjc5NjkgQTAsMCAwIDAgMCA3NDYuNSwyNDMuNzk2OSBMNzQ2LjUsNDkgTDczNi41LDM5IEwxNjYuNSwzOSBBMCwwIDAgMCAwIDE2Ni41LDM5IiBmaWxsPSIjRkVGRkREIiBzdHlsZT0ic3Ryb2tlOiMxODE4MTg7c3Ryb2tlLXdpZHRoOjAuNTsiLz48cGF0aCBkPSJNNzM2LjUsMzkgTDczNi41LDQ5IEw3NDYuNSw0OSBMNzM2LjUsMzkiIGZpbGw9IiNGRUZGREQiIHN0eWxlPSJzdHJva2U6IzE4MTgxODtzdHJva2Utd2lkdGg6MC41OyIvPjx0ZXh0IGZpbGw9IiMwMDAwMDAiIGZvbnQtZmFtaWx5PSJzYW5zLXNlcmlmIiBmb250LXNpemU9IjEzIiBsZW5ndGhBZGp1c3Q9InNwYWNpbmciIHRleHRMZW5ndGg9IjYuNSIgeD0iMTcyLjUiIHk9IjU2LjI4OTEiPi08L3RleHQ+PHRleHQgZmlsbD0iIzAwMDAwMCIgZm9udC1mYW1pbHk9InNhbnMtc2VyaWYiIGZvbnQtc2l6ZT0iMTMiIGZvbnQtd2VpZ2h0PSJib2xkIiBsZW5ndGhBZGp1c3Q9InNwYWNpbmciIHRleHRMZW5ndGg9IjEzIiB4PSIxODUuNSIgeT0iNTYuMjg5MSI+SUQ8L3RleHQ+PHRleHQgZmlsbD0iIzAwMDAwMCIgZm9udC1mYW1pbHk9InNhbnMtc2VyaWYiIGZvbnQtc2l6ZT0iMTMiIGxlbmd0aEFkanVzdD0ic3BhY2luZyIgdGV4dExlbmd0aD0iNTIiIHg9IjE5OC41IiB5PSI1Ni4yODkxIj46IFVDLTAwMTwvdGV4dD48dGV4dCBmaWxsPSIjMDAwMDAwIiBmb250LWZhbWlseT0ic2Fucy1zZXJpZiIgZm9udC1zaXplPSIxMyIgbGVuZ3RoQWRqdXN0PSJzcGFjaW5nIiB0ZXh0TGVuZ3RoPSI2LjUiIHg9IjE3Mi41IiB5PSI3MC4yMDMxIj4tPC90ZXh0Pjx0ZXh0IGZpbGw9IiMwMDAwMDAiIGZvbnQtZmFtaWx5PSJzYW5zLXNlcmlmIiBmb250LXNpemU9IjEzIiBmb250LXdlaWdodD0iYm9sZCIgbGVuZ3RoQWRqdXN0PSJzcGFjaW5nIiB0ZXh0TGVuZ3RoPSIyNiIgeD0iMTg1LjUiIHk9IjcwLjIwMzEiPkdvYWw8L3RleHQ+PHRleHQgZmlsbD0iIzAwMDAwMCIgZm9udC1mYW1pbHk9InNhbnMtc2VyaWYiIGZvbnQtc2l6ZT0iMTMiIGxlbmd0aEFkanVzdD0ic3BhY2luZyIgdGV4dExlbmd0aD0iMjI3LjUiIHg9IjIxMS41IiB5PSI3MC4yMDMxIj46IFNlbmQgbW9uZXkgc2VjdXJlbHkgYW5kIGluc3RhbnRseTwvdGV4dD48dGV4dCBmaWxsPSIjMDAwMDAwIiBmb250LWZhbWlseT0ic2Fucy1zZXJpZiIgZm9udC1zaXplPSIxMyIgbGVuZ3RoQWRqdXN0PSJzcGFjaW5nIiB0ZXh0TGVuZ3RoPSI2LjUiIHg9IjE3Mi41IiB5PSI4NC4xMTcyIj4tPC90ZXh0Pjx0ZXh0IGZpbGw9IiMwMDAwMDAiIGZvbnQtZmFtaWx5PSJzYW5zLXNlcmlmIiBmb250LXNpemU9IjEzIiBmb250LXdlaWdodD0iYm9sZCIgbGVuZ3RoQWRqdXN0PSJzcGFjaW5nIiB0ZXh0TGVuZ3RoPSI1OC41IiB4PSIxODUuNSIgeT0iODQuMTE3MiI+SW5pdGlhdG9yPC90ZXh0Pjx0ZXh0IGZpbGw9IiMwMDAwMDAiIGZvbnQtZmFtaWx5PSJzYW5zLXNlcmlmIiBmb250LXNpemU9IjEzIiBsZW5ndGhBZGp1c3Q9InNwYWNpbmciIHRleHRMZW5ndGg9IjEzMCIgeD0iMjQ0IiB5PSI4NC4xMTcyIj46IEF1dGhlbnRpY2F0ZWQgVXNlcjwvdGV4dD48dGV4dCBmaWxsPSIjMDAwMDAwIiBmb250LWZhbWlseT0ic2Fucy1zZXJpZiIgZm9udC1zaXplPSIxMyIgbGVuZ3RoQWRqdXN0PSJzcGFjaW5nIiB0ZXh0TGVuZ3RoPSI2LjUiIHg9IjE3Mi41IiB5PSI5OC4wMzEzIj4tPC90ZXh0Pjx0ZXh0IGZpbGw9IiMwMDAwMDAiIGZvbnQtZmFtaWx5PSJzYW5zLXNlcmlmIiBmb250LXNpemU9IjEzIiBmb250LXdlaWdodD0iYm9sZCIgbGVuZ3RoQWRqdXN0PSJzcGFjaW5nIiB0ZXh0TGVuZ3RoPSIxMDQiIHg9IjE4NS41IiB5PSI5OC4wMzEzIj5QcmUtY29uZGl0aW9uKHMpPC90ZXh0Pjx0ZXh0IGZpbGw9IiMwMDAwMDAiIGZvbnQtZmFtaWx5PSJzYW5zLXNlcmlmIiBmb250LXNpemU9IjEzIiBsZW5ndGhBZGp1c3Q9InNwYWNpbmciIHRleHRMZW5ndGg9IjQ0MiIgeD0iMjg5LjUiIHk9Ijk4LjAzMTMiPjogQXV0aGVudGljYXRlZCBVc2VyIGlzIGxvZ2dlZCBpbiwgbGlua2VkIGJhbmsgYWNjb3VudC9wcmVwYWlkIGNhcmQuPC90ZXh0Pjx0ZXh0IGZpbGw9IiMwMDAwMDAiIGZvbnQtZmFtaWx5PSJzYW5zLXNlcmlmIiBmb250LXNpemU9IjEzIiBsZW5ndGhBZGp1c3Q9InNwYWNpbmciIHRleHRMZW5ndGg9IjYuNSIgeD0iMTcyLjUiIHk9IjExMS45NDUzIj4tPC90ZXh0Pjx0ZXh0IGZpbGw9IiMwMDAwMDAiIGZvbnQtZmFtaWx5PSJzYW5zLXNlcmlmIiBmb250LXNpemU9IjEzIiBmb250LXdlaWdodD0iYm9sZCIgbGVuZ3RoQWRqdXN0PSJzcGFjaW5nIiB0ZXh0TGVuZ3RoPSIxMTAuNSIgeD0iMTg1LjUiIHk9IjExMS45NDUzIj5Qb3N0LWNvbmRpdGlvbihzKTwvdGV4dD48dGV4dCBmaWxsPSIjMDAwMDAwIiBmb250LWZhbWlseT0ic2Fucy1zZXJpZiIgZm9udC1zaXplPSIxMyIgbGVuZ3RoQWRqdXN0PSJzcGFjaW5nIiB0ZXh0TGVuZ3RoPSIzOTAiIHg9IjI5NiIgeT0iMTExLjk0NTMiPjogTW9uZXkgaXMgdHJhbnNmZXJyZWQgc2VjdXJlbHkgdmlhIEluc3RhbnQgUGF5bWVudCBOZXR3b3JrLjwvdGV4dD48dGV4dCBmaWxsPSIjMDAwMDAwIiBmb250LWZhbWlseT0ic2Fucy1zZXJpZiIgZm9udC1zaXplPSIxMyIgbGVuZ3RoQWRqdXN0PSJzcGFjaW5nIiB0ZXh0TGVuZ3RoPSI2LjUiIHg9IjE3Mi41IiB5PSIxMjUuODU5NCI+LTwvdGV4dD48dGV4dCBmaWxsPSIjMDAwMDAwIiBmb250LWZhbWlseT0ic2Fucy1zZXJpZiIgZm9udC1zaXplPSIxMyIgZm9udC13ZWlnaHQ9ImJvbGQiIGxlbmd0aEFkanVzdD0ic3BhY2luZyIgdGV4dExlbmd0aD0iMTM2LjUiIHg9IjE4NS41IiB5PSIxMjUuODU5NCI+TWFpbiBTdWNjZXNzIFNjZW5hcmlvPC90ZXh0Pjx0ZXh0IGZpbGw9IiMwMDAwMDAiIGZvbnQtZmFtaWx5PSJzYW5zLXNlcmlmIiBmb250LXNpemU9IjEzIiBsZW5ndGhBZGp1c3Q9InNwYWNpbmciIHRleHRMZW5ndGg9IjYuNSIgeD0iMzIyIiB5PSIxMjUuODU5NCI+OjwvdGV4dD48dGV4dCBmaWxsPSIjMDAwMDAwIiBmb250LWZhbWlseT0ic2Fucy1zZXJpZiIgZm9udC1zaXplPSIxMyIgbGVuZ3RoQWRqdXN0PSJzcGFjaW5nIiB0ZXh0TGVuZ3RoPSIzOTAiIHg9IjE4NS41IiB5PSIxMzkuNzczNCI+MS4gQXV0aGVudGljYXRlZCBVc2VyIHNlbGVjdHMgcmVjaXBpZW50IChtb2JpbGUgbnVtYmVyL0lQQSkuPC90ZXh0Pjx0ZXh0IGZpbGw9IiMwMDAwMDAiIGZvbnQtZmFtaWx5PSJzYW5zLXNlcmlmIiBmb250LXNpemU9IjEzIiBsZW5ndGhBZGp1c3Q9InNwYWNpbmciIHRleHRMZW5ndGg9IjQ2OCIgeD0iMTg1LjUiIHk9IjE1My42ODc1Ij4yLiBBdXRoZW50aWNhdGVkIFVzZXIgZW50ZXJzIHRyYW5zZmVyIGFtb3VudCBhbmQgc2VsZWN0cyBwYXltZW50IG1ldGhvZC48L3RleHQ+PHRleHQgZmlsbD0iIzAwMDAwMCIgZm9udC1mYW1pbHk9InNhbnMtc2VyaWYiIGZvbnQtc2l6ZT0iMTMiIGxlbmd0aEFkanVzdD0ic3BhY2luZyIgdGV4dExlbmd0aD0iMjA4IiB4PSIxODUuNSIgeT0iMTY3LjYwMTYiPjMuIFN5c3RlbSBwcm9jZXNzZXMgdHJhbnNhY3Rpb24uPC90ZXh0Pjx0ZXh0IGZpbGw9IiMwMDAwMDAiIGZvbnQtZmFtaWx5PSJzYW5zLXNlcmlmIiBmb250LXNpemU9IjEzIiBsZW5ndGhBZGp1c3Q9InNwYWNpbmciIHRleHRMZW5ndGg9IjI0NyIgeD0iMTg1LjUiIHk9IjE4MS41MTU2Ij40LiBUcmFuc2ZlciBzdWNjZXNzZnVsLCB1c2VyIG5vdGlmaWVkLjwvdGV4dD48dGV4dCBmaWxsPSIjMDAwMDAwIiBmb250LWZhbWlseT0ic2Fucy1zZXJpZiIgZm9udC1zaXplPSIxMyIgbGVuZ3RoQWRqdXN0PSJzcGFjaW5nIiB0ZXh0TGVuZ3RoPSI2LjUiIHg9IjE3Mi41IiB5PSIxOTUuNDI5NyI+LTwvdGV4dD48dGV4dCBmaWxsPSIjMDAwMDAwIiBmb250LWZhbWlseT0ic2Fucy1zZXJpZiIgZm9udC1zaXplPSIxMyIgZm9udC13ZWlnaHQ9ImJvbGQiIGxlbmd0aEFkanVzdD0ic3BhY2luZyIgdGV4dExlbmd0aD0iMjIxIiB4PSIxODUuNSIgeT0iMTk1LjQyOTciPkFsdGVybmF0aXZlL1Vuc3VjY2Vzc2Z1bCBTY2VuYXJpb3M8L3RleHQ+PHRleHQgZmlsbD0iIzAwMDAwMCIgZm9udC1mYW1pbHk9InNhbnMtc2VyaWYiIGZvbnQtc2l6ZT0iMTMiIGxlbmd0aEFkanVzdD0ic3BhY2luZyIgdGV4dExlbmd0aD0iNi41IiB4PSI0MDYuNSIgeT0iMTk1LjQyOTciPjo8L3RleHQ+PHRleHQgZmlsbD0iIzAwMDAwMCIgZm9udC1mYW1pbHk9InNhbnMtc2VyaWYiIGZvbnQtc2l6ZT0iMTMiIGxlbmd0aEFkanVzdD0ic3BhY2luZyIgdGV4dExlbmd0aD0iMTM2LjUiIHg9IjE4NS41IiB5PSIyMDkuMzQzOCI+LSBJbnN1ZmZpY2llbnQgZnVuZHMuPC90ZXh0Pjx0ZXh0IGZpbGw9IiMwMDAwMDAiIGZvbnQtZmFtaWx5PSJzYW5zLXNlcmlmIiBmb250LXNpemU9IjEzIiBsZW5ndGhBZGp1c3Q9InNwYWNpbmciIHRleHRMZW5ndGg9IjExNyIgeD0iMTg1LjUiIHk9IjIyMy4yNTc4Ij4tIE5ldHdvcmsgZmFpbHVyZS48L3RleHQ+PHRleHQgZmlsbD0iIzAwMDAwMCIgZm9udC1mYW1pbHk9InNhbnMtc2VyaWYiIGZvbnQtc2l6ZT0iMTMiIGxlbmd0aEFkanVzdD0ic3BhY2luZyIgdGV4dExlbmd0aD0iMTgyIiB4PSIxODUuNSIgeT0iMjM3LjE3MTkiPi0gSW52YWxpZCByZWNpcGllbnQgZGV0YWlscy48L3RleHQ+PC9nPjxnIGNsYXNzPSJlbnRpdHkiIGRhdGEtZW50aXR5PSJHTU4yMyIgZGF0YS1zb3VyY2UtbGluZT0iNDMiIGRhdGEtdWlkPSJlbnQwMDI0IiBpZD0iZW50aXR5X0dNTjIzIj48cGF0aCBkPSJNMTc0LDM0MCBMMTc0LDQyNC41IEwxMzkuMTEsNDI4LjUgTDE3NCw0MzIuNSBMMTc0LDUxNi45Njg4IEEwLDAgMCAwIDAgMTc0LDUxNi45Njg4IEw2ODksNTE2Ljk2ODggQTAsMCAwIDAgMCA2ODksNTE2Ljk2ODggTDY4OSwzNTAgTDY3OSwzNDAgTDE3NCwzNDAgQTAsMCAwIDAgMCAxNzQsMzQwIiBmaWxsPSIjRkVGRkREIiBzdHlsZT0ic3Ryb2tlOiMxODE4MTg7c3Ryb2tlLXdpZHRoOjAuNTsiLz48cGF0aCBkPSJNNjc5LDM0MCBMNjc5LDM1MCBMNjg5LDM1MCBMNjc5LDM0MCIgZmlsbD0iI0ZFRkZERCIgc3R5bGU9InN0cm9rZTojMTgxODE4O3N0cm9rZS13aWR0aDowLjU7Ii8+PHRleHQgZmlsbD0iIzAwMDAwMCIgZm9udC1mYW1pbHk9InNhbnMtc2VyaWYiIGZvbnQtc2l6ZT0iMTMiIGxlbmd0aEFkanVzdD0ic3BhY2luZyIgdGV4dExlbmd0aD0iNi41IiB4PSIxODAiIHk9IjM1Ny4yODkxIj4tPC90ZXh0Pjx0ZXh0IGZpbGw9IiMwMDAwMDAiIGZvbnQtZmFtaWx5PSJzYW5zLXNlcmlmIiBmb250LXNpemU9IjEzIiBmb250LXdlaWdodD0iYm9sZCIgbGVuZ3RoQWRqdXN0PSJzcGFjaW5nIiB0ZXh0TGVuZ3RoPSIxMyIgeD0iMTkzIiB5PSIzNTcuMjg5MSI+SUQ8L3RleHQ+PHRleHQgZmlsbD0iIzAwMDAwMCIgZm9udC1mYW1pbHk9InNhbnMtc2VyaWYiIGZvbnQtc2l6ZT0iMTMiIGxlbmd0aEFkanVzdD0ic3BhY2luZyIgdGV4dExlbmd0aD0iNTIiIHg9IjIwNiIgeT0iMzU3LjI4OTEiPjogVUMtMDAyPC90ZXh0Pjx0ZXh0IGZpbGw9IiMwMDAwMDAiIGZvbnQtZmFtaWx5PSJzYW5zLXNlcmlmIiBmb250LXNpemU9IjEzIiBsZW5ndGhBZGp1c3Q9InNwYWNpbmciIHRleHRMZW5ndGg9IjYuNSIgeD0iMTgwIiB5PSIzNzEuMjAzMSI+LTwvdGV4dD48dGV4dCBmaWxsPSIjMDAwMDAwIiBmb250LWZhbWlseT0ic2Fucy1zZXJpZiIgZm9udC1zaXplPSIxMyIgZm9udC13ZWlnaHQ9ImJvbGQiIGxlbmd0aEFkanVzdD0ic3BhY2luZyIgdGV4dExlbmd0aD0iMjYiIHg9IjE5MyIgeT0iMzcxLjIwMzEiPkdvYWw8L3RleHQ+PHRleHQgZmlsbD0iIzAwMDAwMCIgZm9udC1mYW1pbHk9InNhbnMtc2VyaWYiIGZvbnQtc2l6ZT0iMTMiIGxlbmd0aEFkanVzdD0ic3BhY2luZyIgdGV4dExlbmd0aD0iMTYyLjUiIHg9IjIxOSIgeT0iMzcxLjIwMzEiPjogUmVjZWl2ZSBtb25leSBzZWN1cmVseS48L3RleHQ+PHRleHQgZmlsbD0iIzAwMDAwMCIgZm9udC1mYW1pbHk9InNhbnMtc2VyaWYiIGZvbnQtc2l6ZT0iMTMiIGxlbmd0aEFkanVzdD0ic3BhY2luZyIgdGV4dExlbmd0aD0iNi41IiB4PSIxODAiIHk9IjM4NS4xMTcyIj4tPC90ZXh0Pjx0ZXh0IGZpbGw9IiMwMDAwMDAiIGZvbnQtZmFtaWx5PSJzYW5zLXNlcmlmIiBmb250LXNpemU9IjEzIiBmb250LXdlaWdodD0iYm9sZCIgbGVuZ3RoQWRqdXN0PSJzcGFjaW5nIiB0ZXh0TGVuZ3RoPSI1OC41IiB4PSIxOTMiIHk9IjM4NS4xMTcyIj5Jbml0aWF0b3I8L3RleHQ+PHRleHQgZmlsbD0iIzAwMDAwMCIgZm9udC1mYW1pbHk9InNhbnMtc2VyaWYiIGZvbnQtc2l6ZT0iMTMiIGxlbmd0aEFkanVzdD0ic3BhY2luZyIgdGV4dExlbmd0aD0iMTMwIiB4PSIyNTEuNSIgeT0iMzg1LjExNzIiPjogQXV0aGVudGljYXRlZCBVc2VyPC90ZXh0Pjx0ZXh0IGZpbGw9IiMwMDAwMDAiIGZvbnQtZmFtaWx5PSJzYW5zLXNlcmlmIiBmb250LXNpemU9IjEzIiBsZW5ndGhBZGp1c3Q9InNwYWNpbmciIHRleHRMZW5ndGg9IjYuNSIgeD0iMTgwIiB5PSIzOTkuMDMxMyI+LTwvdGV4dD48dGV4dCBmaWxsPSIjMDAwMDAwIiBmb250LWZhbWlseT0ic2Fucy1zZXJpZiIgZm9udC1zaXplPSIxMyIgZm9udC13ZWlnaHQ9ImJvbGQiIGxlbmd0aEFkanVzdD0ic3BhY2luZyIgdGV4dExlbmd0aD0iMTA0IiB4PSIxOTMiIHk9IjM5OS4wMzEzIj5QcmUtY29uZGl0aW9uKHMpPC90ZXh0Pjx0ZXh0IGZpbGw9IiMwMDAwMDAiIGZvbnQtZmFtaWx5PSJzYW5zLXNlcmlmIiBmb250LXNpemU9IjEzIiBsZW5ndGhBZGp1c3Q9InNwYWNpbmciIHRleHRMZW5ndGg9IjM3NyIgeD0iMjk3IiB5PSIzOTkuMDMxMyI+OiBBdXRoZW50aWNhdGVkIFVzZXIgaGFzIGxpbmtlZCBiYW5rIGFjY291bnQvcHJlcGFpZCBjYXJkLjwvdGV4dD48dGV4dCBmaWxsPSIjMDAwMDAwIiBmb250LWZhbWlseT0ic2Fucy1zZXJpZiIgZm9udC1zaXplPSIxMyIgbGVuZ3RoQWRqdXN0PSJzcGFjaW5nIiB0ZXh0TGVuZ3RoPSI2LjUiIHg9IjE4MCIgeT0iNDEyLjk0NTMiPi08L3RleHQ+PHRleHQgZmlsbD0iIzAwMDAwMCIgZm9udC1mYW1pbHk9InNhbnMtc2VyaWYiIGZvbnQtc2l6ZT0iMTMiIGZvbnQtd2VpZ2h0PSJib2xkIiBsZW5ndGhBZGp1c3Q9InNwYWNpbmciIHRleHRMZW5ndGg9IjExMC41IiB4PSIxOTMiIHk9IjQxMi45NDUzIj5Qb3N0LWNvbmRpdGlvbihzKTwvdGV4dD48dGV4dCBmaWxsPSIjMDAwMDAwIiBmb250LWZhbWlseT0ic2Fucy1zZXJpZiIgZm9udC1zaXplPSIxMyIgbGVuZ3RoQWRqdXN0PSJzcGFjaW5nIiB0ZXh0TGVuZ3RoPSIyNDciIHg9IjMwMy41IiB5PSI0MTIuOTQ1MyI+OiBNb25leSBkZXBvc2l0ZWQgaW50byBsaW5rZWQgYWNjb3VudC48L3RleHQ+PHRleHQgZmlsbD0iIzAwMDAwMCIgZm9udC1mYW1pbHk9InNhbnMtc2VyaWYiIGZvbnQtc2l6ZT0iMTMiIGxlbmd0aEFkanVzdD0ic3BhY2luZyIgdGV4dExlbmd0aD0iNi41IiB4PSIxODAiIHk9IjQyNi44NTk0Ij4tPC90ZXh0Pjx0ZXh0IGZpbGw9IiMwMDAwMDAiIGZvbnQtZmFtaWx5PSJzYW5zLXNlcmlmIiBmb250LXNpemU9IjEzIiBmb250LXdlaWdodD0iYm9sZCIgbGVuZ3RoQWRqdXN0PSJzcGFjaW5nIiB0ZXh0TGVuZ3RoPSIxMzYuNSIgeD0iMTkzIiB5PSI0MjYuODU5NCI+TWFpbiBTdWNjZXNzIFNjZW5hcmlvPC90ZXh0Pjx0ZXh0IGZpbGw9IiMwMDAwMDAiIGZvbnQtZmFtaWx5PSJzYW5zLXNlcmlmIiBmb250LXNpemU9IjEzIiBsZW5ndGhBZGp1c3Q9InNwYWNpbmciIHRleHRMZW5ndGg9IjYuNSIgeD0iMzI5LjUiIHk9IjQyNi44NTk0Ij46PC90ZXh0Pjx0ZXh0IGZpbGw9IiMwMDAwMDAiIGZvbnQtZmFtaWx5PSJzYW5zLXNlcmlmIiBmb250LXNpemU9IjEzIiBsZW5ndGhBZGp1c3Q9InNwYWNpbmciIHRleHRMZW5ndGg9IjE4OC41IiB4PSIxOTMiIHk9IjQ0MC43NzM0Ij4xLiBTZW5kZXIgaW5pdGlhdGVzIHRyYW5zZmVyLjwvdGV4dD48dGV4dCBmaWxsPSIjMDAwMDAwIiBmb250LWZhbWlseT0ic2Fucy1zZXJpZiIgZm9udC1zaXplPSIxMyIgbGVuZ3RoQWRqdXN0PSJzcGFjaW5nIiB0ZXh0TGVuZ3RoPSIyNzkuNSIgeD0iMTkzIiB5PSI0NTQuNjg3NSI+Mi4gU3lzdGVtIHByb2Nlc3NlcyBhbmQgZGVwb3NpdHMgdGhlIG1vbmV5LjwvdGV4dD48dGV4dCBmaWxsPSIjMDAwMDAwIiBmb250LWZhbWlseT0ic2Fucy1zZXJpZiIgZm9udC1zaXplPSIxMyIgbGVuZ3RoQWRqdXN0PSJzcGFjaW5nIiB0ZXh0TGVuZ3RoPSIyODYiIHg9IjE5MyIgeT0iNDY4LjYwMTYiPjMuIEF1dGhlbnRpY2F0ZWQgVXNlciByZWNlaXZlcyBub3RpZmljYXRpb24uPC90ZXh0Pjx0ZXh0IGZpbGw9IiMwMDAwMDAiIGZvbnQtZmFtaWx5PSJzYW5zLXNlcmlmIiBmb250LXNpemU9IjEzIiBsZW5ndGhBZGp1c3Q9InNwYWNpbmciIHRleHRMZW5ndGg9IjYuNSIgeD0iMTgwIiB5PSI0ODIuNTE1NiI+LTwvdGV4dD48dGV4dCBmaWxsPSIjMDAwMDAwIiBmb250LWZhbWlseT0ic2Fucy1zZXJpZiIgZm9udC1zaXplPSIxMyIgZm9udC13ZWlnaHQ9ImJvbGQiIGxlbmd0aEFkanVzdD0ic3BhY2luZyIgdGV4dExlbmd0aD0iMjIxIiB4PSIxOTMiIHk9IjQ4Mi41MTU2Ij5BbHRlcm5hdGl2ZS9VbnN1Y2Nlc3NmdWwgU2NlbmFyaW9zPC90ZXh0Pjx0ZXh0IGZpbGw9IiMwMDAwMDAiIGZvbnQtZmFtaWx5PSJzYW5zLXNlcmlmIiBmb250LXNpemU9IjEzIiBsZW5ndGhBZGp1c3Q9InNwYWNpbmciIHRleHRMZW5ndGg9IjYuNSIgeD0iNDE0IiB5PSI0ODIuNTE1NiI+OjwvdGV4dD48dGV4dCBmaWxsPSIjMDAwMDAwIiBmb250LWZhbWlseT0ic2Fucy1zZXJpZiIgZm9udC1zaXplPSIxMyIgbGVuZ3RoQWRqdXN0PSJzcGFjaW5nIiB0ZXh0TGVuZ3RoPSIxOTUiIHg9IjE5MyIgeT0iNDk2LjQyOTciPi0gSW5jb3JyZWN0IHJlY2lwaWVudCBkZXRhaWxzLjwvdGV4dD48dGV4dCBmaWxsPSIjMDAwMDAwIiBmb250LWZhbWlseT0ic2Fucy1zZXJpZiIgZm9udC1zaXplPSIxMyIgbGVuZ3RoQWRqdXN0PSJzcGFjaW5nIiB0ZXh0TGVuZ3RoPSIyNTMuNSIgeD0iMTkzIiB5PSI1MTAuMzQzOCI+LSBUcmFuc2FjdGlvbiBmYWlsdXJlIChzZWN1cml0eSBpc3N1ZSkuPC90ZXh0PjwvZz48ZyBjbGFzcz0iZW50aXR5IiBkYXRhLWVudGl0eT0iR01OMjciIGRhdGEtc291cmNlLWxpbmU9IjYxIiBkYXRhLXVpZD0iZW50MDAyOCIgaWQ9ImVudGl0eV9HTU4yNyI+PHBhdGggZD0iTTk5OC41LDQ2IEw5OTguNSwxMzcuNSBMOTYzLjYsMTQxLjUgTDk5OC41LDE0NS41IEw5OTguNSwyMzYuODgyOCBBMCwwIDAgMCAwIDk5OC41LDIzNi44ODI4IEwxNDIyLjUsMjM2Ljg4MjggQTAsMCAwIDAgMCAxNDIyLjUsMjM2Ljg4MjggTDE0MjIuNSw1NiBMMTQxMi41LDQ2IEw5OTguNSw0NiBBMCwwIDAgMCAwIDk5OC41LDQ2IiBmaWxsPSIjRkVGRkREIiBzdHlsZT0ic3Ryb2tlOiMxODE4MTg7c3Ryb2tlLXdpZHRoOjAuNTsiLz48cGF0aCBkPSJNMTQxMi41LDQ2IEwxNDEyLjUsNTYgTDE0MjIuNSw1NiBMMTQxMi41LDQ2IiBmaWxsPSIjRkVGRkREIiBzdHlsZT0ic3Ryb2tlOiMxODE4MTg7c3Ryb2tlLXdpZHRoOjAuNTsiLz48dGV4dCBmaWxsPSIjMDAwMDAwIiBmb250LWZhbWlseT0ic2Fucy1zZXJpZiIgZm9udC1zaXplPSIxMyIgbGVuZ3RoQWRqdXN0PSJzcGFjaW5nIiB0ZXh0TGVuZ3RoPSI2LjUiIHg9IjEwMDQuNSIgeT0iNjMuMjg5MSI+LTwvdGV4dD48dGV4dCBmaWxsPSIjMDAwMDAwIiBmb250LWZhbWlseT0ic2Fucy1zZXJpZiIgZm9udC1zaXplPSIxMyIgZm9udC13ZWlnaHQ9ImJvbGQiIGxlbmd0aEFkanVzdD0ic3BhY2luZyIgdGV4dExlbmd0aD0iMTMiIHg9IjEwMTcuNSIgeT0iNjMuMjg5MSI+SUQ8L3RleHQ+PHRleHQgZmlsbD0iIzAwMDAwMCIgZm9udC1mYW1pbHk9InNhbnMtc2VyaWYiIGZvbnQtc2l6ZT0iMTMiIGxlbmd0aEFkanVzdD0ic3BhY2luZyIgdGV4dExlbmd0aD0iNTIiIHg9IjEwMzAuNSIgeT0iNjMuMjg5MSI+OiBVQy0wMDM8L3RleHQ+PHRleHQgZmlsbD0iIzAwMDAwMCIgZm9udC1mYW1pbHk9InNhbnMtc2VyaWYiIGZvbnQtc2l6ZT0iMTMiIGxlbmd0aEFkanVzdD0ic3BhY2luZyIgdGV4dExlbmd0aD0iNi41IiB4PSIxMDA0LjUiIHk9Ijc3LjIwMzEiPi08L3RleHQ+PHRleHQgZmlsbD0iIzAwMDAwMCIgZm9udC1mYW1pbHk9InNhbnMtc2VyaWYiIGZvbnQtc2l6ZT0iMTMiIGZvbnQtd2VpZ2h0PSJib2xkIiBsZW5ndGhBZGp1c3Q9InNwYWNpbmciIHRleHRMZW5ndGg9IjI2IiB4PSIxMDE3LjUiIHk9Ijc3LjIwMzEiPkdvYWw8L3RleHQ+PHRleHQgZmlsbD0iIzAwMDAwMCIgZm9udC1mYW1pbHk9InNhbnMtc2VyaWYiIGZvbnQtc2l6ZT0iMTMiIGxlbmd0aEFkanVzdD0ic3BhY2luZyIgdGV4dExlbmd0aD0iMjIxIiB4PSIxMDQzLjUiIHk9Ijc3LjIwMzEiPjogTGluayBiYW5rIGFjY291bnQgZm9yIHRyYW5zZmVycy48L3RleHQ+PHRleHQgZmlsbD0iIzAwMDAwMCIgZm9udC1mYW1pbHk9InNhbnMtc2VyaWYiIGZvbnQtc2l6ZT0iMTMiIGxlbmd0aEFkanVzdD0ic3BhY2luZyIgdGV4dExlbmd0aD0iNi41IiB4PSIxMDA0LjUiIHk9IjkxLjExNzIiPi08L3RleHQ+PHRleHQgZmlsbD0iIzAwMDAwMCIgZm9udC1mYW1pbHk9InNhbnMtc2VyaWYiIGZvbnQtc2l6ZT0iMTMiIGZvbnQtd2VpZ2h0PSJib2xkIiBsZW5ndGhBZGp1c3Q9InNwYWNpbmciIHRleHRMZW5ndGg9IjU4LjUiIHg9IjEwMTcuNSIgeT0iOTEuMTE3MiI+SW5pdGlhdG9yPC90ZXh0Pjx0ZXh0IGZpbGw9IiMwMDAwMDAiIGZvbnQtZmFtaWx5PSJzYW5zLXNlcmlmIiBmb250LXNpemU9IjEzIiBsZW5ndGhBZGp1c3Q9InNwYWNpbmciIHRleHRMZW5ndGg9IjEzMCIgeD0iMTA3NiIgeT0iOTEuMTE3MiI+OiBBdXRoZW50aWNhdGVkIFVzZXI8L3RleHQ+PHRleHQgZmlsbD0iIzAwMDAwMCIgZm9udC1mYW1pbHk9InNhbnMtc2VyaWYiIGZvbnQtc2l6ZT0iMTMiIGxlbmd0aEFkanVzdD0ic3BhY2luZyIgdGV4dExlbmd0aD0iNi41IiB4PSIxMDA0LjUiIHk9IjEwNS4wMzEzIj4tPC90ZXh0Pjx0ZXh0IGZpbGw9IiMwMDAwMDAiIGZvbnQtZmFtaWx5PSJzYW5zLXNlcmlmIiBmb250LXNpemU9IjEzIiBmb250LXdlaWdodD0iYm9sZCIgbGVuZ3RoQWRqdXN0PSJzcGFjaW5nIiB0ZXh0TGVuZ3RoPSIxMDQiIHg9IjEwMTcuNSIgeT0iMTA1LjAzMTMiPlByZS1jb25kaXRpb24ocyk8L3RleHQ+PHRleHQgZmlsbD0iIzAwMDAwMCIgZm9udC1mYW1pbHk9InNhbnMtc2VyaWYiIGZvbnQtc2l6ZT0iMTMiIGxlbmd0aEFkanVzdD0ic3BhY2luZyIgdGV4dExlbmd0aD0iMjg2IiB4PSIxMTIxLjUiIHk9IjEwNS4wMzEzIj46IEF1dGhlbnRpY2F0ZWQgVXNlciBoYXMgdmFsaWQgYmFuayBkZXRhaWxzLjwvdGV4dD48dGV4dCBmaWxsPSIjMDAwMDAwIiBmb250LWZhbWlseT0ic2Fucy1zZXJpZiIgZm9udC1zaXplPSIxMyIgbGVuZ3RoQWRqdXN0PSJzcGFjaW5nIiB0ZXh0TGVuZ3RoPSI2LjUiIHg9IjEwMDQuNSIgeT0iMTE4Ljk0NTMiPi08L3RleHQ+PHRleHQgZmlsbD0iIzAwMDAwMCIgZm9udC1mYW1pbHk9InNhbnMtc2VyaWYiIGZvbnQtc2l6ZT0iMTMiIGZvbnQtd2VpZ2h0PSJib2xkIiBsZW5ndGhBZGp1c3Q9InNwYWNpbmciIHRleHRMZW5ndGg9IjExMC41IiB4PSIxMDE3LjUiIHk9IjExOC45NDUzIj5Qb3N0LWNvbmRpdGlvbihzKTwvdGV4dD48dGV4dCBmaWxsPSIjMDAwMDAwIiBmb250LWZhbWlseT0ic2Fucy1zZXJpZiIgZm9udC1zaXplPSIxMyIgbGVuZ3RoQWRqdXN0PSJzcGFjaW5nIiB0ZXh0TGVuZ3RoPSIyMjcuNSIgeD0iMTEyOCIgeT0iMTE4Ljk0NTMiPjogQmFuayBhY2NvdW50IHN1Y2Nlc3NmdWxseSBsaW5rZWQuPC90ZXh0Pjx0ZXh0IGZpbGw9IiMwMDAwMDAiIGZvbnQtZmFtaWx5PSJzYW5zLXNlcmlmIiBmb250LXNpemU9IjEzIiBsZW5ndGhBZGp1c3Q9InNwYWNpbmciIHRleHRMZW5ndGg9IjYuNSIgeD0iMTAwNC41IiB5PSIxMzIuODU5NCI+LTwvdGV4dD48dGV4dCBmaWxsPSIjMDAwMDAwIiBmb250LWZhbWlseT0ic2Fucy1zZXJpZiIgZm9udC1zaXplPSIxMyIgZm9udC13ZWlnaHQ9ImJvbGQiIGxlbmd0aEFkanVzdD0ic3BhY2luZyIgdGV4dExlbmd0aD0iMTM2LjUiIHg9IjEwMTcuNSIgeT0iMTMyLjg1OTQiPk1haW4gU3VjY2VzcyBTY2VuYXJpbzwvdGV4dD48dGV4dCBmaWxsPSIjMDAwMDAwIiBmb250LWZhbWlseT0ic2Fucy1zZXJpZiIgZm9udC1zaXplPSIxMyIgbGVuZ3RoQWRqdXN0PSJzcGFjaW5nIiB0ZXh0TGVuZ3RoPSI2LjUiIHg9IjExNTQiIHk9IjEzMi44NTk0Ij46PC90ZXh0Pjx0ZXh0IGZpbGw9IiMwMDAwMDAiIGZvbnQtZmFtaWx5PSJzYW5zLXNlcmlmIiBmb250LXNpemU9IjEzIiBsZW5ndGhBZGp1c3Q9InNwYWNpbmciIHRleHRMZW5ndGg9IjIyNy41IiB4PSIxMDE3LjUiIHk9IjE0Ni43NzM0Ij4xLiBBdXRoZW50aWNhdGVkIFVzZXIgc2VsZWN0cyBiYW5rLjwvdGV4dD48dGV4dCBmaWxsPSIjMDAwMDAwIiBmb250LWZhbWlseT0ic2Fucy1zZXJpZiIgZm9udC1zaXplPSIxMyIgbGVuZ3RoQWRqdXN0PSJzcGFjaW5nIiB0ZXh0TGVuZ3RoPSIzMjUiIHg9IjEwMTcuNSIgeT0iMTYwLjY4NzUiPjIuIFJlZ2lzdGVycyBtb2JpbGUgbnVtYmVyIGFuZCBkZWJpdCBjYXJkIGRldGFpbHMuPC90ZXh0Pjx0ZXh0IGZpbGw9IiMwMDAwMDAiIGZvbnQtZmFtaWx5PSJzYW5zLXNlcmlmIiBmb250LXNpemU9IjEzIiBsZW5ndGhBZGp1c3Q9InNwYWNpbmciIHRleHRMZW5ndGg9IjI3OS41IiB4PSIxMDE3LjUiIHk9IjE3NC42MDE2Ij4zLiBTeXN0ZW0gdmFsaWRhdGVzIGRldGFpbHMsIGxpbmtzIGFjY291bnQuPC90ZXh0Pjx0ZXh0IGZpbGw9IiMwMDAwMDAiIGZvbnQtZmFtaWx5PSJzYW5zLXNlcmlmIiBmb250LXNpemU9IjEzIiBsZW5ndGhBZGp1c3Q9InNwYWNpbmciIHRleHRMZW5ndGg9IjI3MyIgeD0iMTAxNy41IiB5PSIxODguNTE1NiI+NC4gQXV0aGVudGljYXRlZCBVc2VyIG5vdGlmaWVkIG9mIHN1Y2Nlc3MuPC90ZXh0Pjx0ZXh0IGZpbGw9IiMwMDAwMDAiIGZvbnQtZmFtaWx5PSJzYW5zLXNlcmlmIiBmb250LXNpemU9IjEzIiBsZW5ndGhBZGp1c3Q9InNwYWNpbmciIHRleHRMZW5ndGg9IjYuNSIgeD0iMTAwNC41IiB5PSIyMDIuNDI5NyI+LTwvdGV4dD48dGV4dCBmaWxsPSIjMDAwMDAwIiBmb250LWZhbWlseT0ic2Fucy1zZXJpZiIgZm9udC1zaXplPSIxMyIgZm9udC13ZWlnaHQ9ImJvbGQiIGxlbmd0aEFkanVzdD0ic3BhY2luZyIgdGV4dExlbmd0aD0iMjIxIiB4PSIxMDE3LjUiIHk9IjIwMi40Mjk3Ij5BbHRlcm5hdGl2ZS9VbnN1Y2Nlc3NmdWwgU2NlbmFyaW9zPC90ZXh0Pjx0ZXh0IGZpbGw9IiMwMDAwMDAiIGZvbnQtZmFtaWx5PSJzYW5zLXNlcmlmIiBmb250LXNpemU9IjEzIiBsZW5ndGhBZGp1c3Q9InNwYWNpbmciIHRleHRMZW5ndGg9IjYuNSIgeD0iMTIzOC41IiB5PSIyMDIuNDI5NyI+OjwvdGV4dD48dGV4dCBmaWxsPSIjMDAwMDAwIiBmb250LWZhbWlseT0ic2Fucy1zZXJpZiIgZm9udC1zaXplPSIxMyIgbGVuZ3RoQWRqdXN0PSJzcGFjaW5nIiB0ZXh0TGVuZ3RoPSIxMTciIHg9IjEwMTcuNSIgeT0iMjE2LjM0MzgiPi0gSW52YWxpZCBkZXRhaWxzLjwvdGV4dD48dGV4dCBmaWxsPSIjMDAwMDAwIiBmb250LWZhbWlseT0ic2Fucy1zZXJpZiIgZm9udC1zaXplPSIxMyIgbGVuZ3RoQWRqdXN0PSJzcGFjaW5nIiB0ZXh0TGVuZ3RoPSIxMjMuNSIgeD0iMTAxNy41IiB5PSIyMzAuMjU3OCI+LSBVbnN1cHBvcnRlZCBiYW5rLjwvdGV4dD48L2c+PGcgY2xhc3M9ImVudGl0eSIgZGF0YS1lbnRpdHk9IkdNTjMxIiBkYXRhLXNvdXJjZS1saW5lPSI4MCIgZGF0YS11aWQ9ImVudDAwMzIiIGlkPSJlbnRpdHlfR01OMzEiPjxwYXRoIGQ9Ik0xNjc1LDUzIEwxNjc1LDEzNy41IEwxNjM5LjgxLDE0MS41IEwxNjc1LDE0NS41IEwxNjc1LDIyOS45Njg4IEEwLDAgMCAwIDAgMTY3NSwyMjkuOTY4OCBMMjE0NC41LDIyOS45Njg4IEEwLDAgMCAwIDAgMjE0NC41LDIyOS45Njg4IEwyMTQ0LjUsNjMgTDIxMzQuNSw1MyBMMTY3NSw1MyBBMCwwIDAgMCAwIDE2NzUsNTMiIGZpbGw9IiNGRUZGREQiIHN0eWxlPSJzdHJva2U6IzE4MTgxODtzdHJva2Utd2lkdGg6MC41OyIvPjxwYXRoIGQ9Ik0yMTM0LjUsNTMgTDIxMzQuNSw2MyBMMjE0NC41LDYzIEwyMTM0LjUsNTMiIGZpbGw9IiNGRUZGREQiIHN0eWxlPSJzdHJva2U6IzE4MTgxODtzdHJva2Utd2lkdGg6MC41OyIvPjx0ZXh0IGZpbGw9IiMwMDAwMDAiIGZvbnQtZmFtaWx5PSJzYW5zLXNlcmlmIiBmb250LXNpemU9IjEzIiBsZW5ndGhBZGp1c3Q9InNwYWNpbmciIHRleHRMZW5ndGg9IjYuNSIgeD0iMTY4MSIgeT0iNzAuMjg5MSI+LTwvdGV4dD48dGV4dCBmaWxsPSIjMDAwMDAwIiBmb250LWZhbWlseT0ic2Fucy1zZXJpZiIgZm9udC1zaXplPSIxMyIgZm9udC13ZWlnaHQ9ImJvbGQiIGxlbmd0aEFkanVzdD0ic3BhY2luZyIgdGV4dExlbmd0aD0iMTMiIHg9IjE2OTQiIHk9IjcwLjI4OTEiPklEPC90ZXh0Pjx0ZXh0IGZpbGw9IiMwMDAwMDAiIGZvbnQtZmFtaWx5PSJzYW5zLXNlcmlmIiBmb250LXNpemU9IjEzIiBsZW5ndGhBZGp1c3Q9InNwYWNpbmciIHRleHRMZW5ndGg9IjUyIiB4PSIxNzA3IiB5PSI3MC4yODkxIj46IFVDLTAwNDwvdGV4dD48dGV4dCBmaWxsPSIjMDAwMDAwIiBmb250LWZhbWlseT0ic2Fucy1zZXJpZiIgZm9udC1zaXplPSIxMyIgbGVuZ3RoQWRqdXN0PSJzcGFjaW5nIiB0ZXh0TGVuZ3RoPSI2LjUiIHg9IjE2ODEiIHk9Ijg0LjIwMzEiPi08L3RleHQ+PHRleHQgZmlsbD0iIzAwMDAwMCIgZm9udC1mYW1pbHk9InNhbnMtc2VyaWYiIGZvbnQtc2l6ZT0iMTMiIGZvbnQtd2VpZ2h0PSJib2xkIiBsZW5ndGhBZGp1c3Q9InNwYWNpbmciIHRleHRMZW5ndGg9IjI2IiB4PSIxNjk0IiB5PSI4NC4yMDMxIj5Hb2FsPC90ZXh0Pjx0ZXh0IGZpbGw9IiMwMDAwMDAiIGZvbnQtZmFtaWx5PSJzYW5zLXNlcmlmIiBmb250LXNpemU9IjEzIiBsZW5ndGhBZGp1c3Q9InNwYWNpbmciIHRleHRMZW5ndGg9IjI0MC41IiB4PSIxNzIwIiB5PSI4NC4yMDMxIj46IExpbmsgcHJlcGFpZCBjYXJkIGZvciB0cmFuc2FjdGlvbnMuPC90ZXh0Pjx0ZXh0IGZpbGw9IiMwMDAwMDAiIGZvbnQtZmFtaWx5PSJzYW5zLXNlcmlmIiBmb250LXNpemU9IjEzIiBsZW5ndGhBZGp1c3Q9InNwYWNpbmciIHRleHRMZW5ndGg9IjYuNSIgeD0iMTY4MSIgeT0iOTguMTE3MiI+LTwvdGV4dD48dGV4dCBmaWxsPSIjMDAwMDAwIiBmb250LWZhbWlseT0ic2Fucy1zZXJpZiIgZm9udC1zaXplPSIxMyIgZm9udC13ZWlnaHQ9ImJvbGQiIGxlbmd0aEFkanVzdD0ic3BhY2luZyIgdGV4dExlbmd0aD0iNTguNSIgeD0iMTY5NCIgeT0iOTguMTE3MiI+SW5pdGlhdG9yPC90ZXh0Pjx0ZXh0IGZpbGw9IiMwMDAwMDAiIGZvbnQtZmFtaWx5PSJzYW5zLXNlcmlmIiBmb250LXNpemU9IjEzIiBsZW5ndGhBZGp1c3Q9InNwYWNpbmciIHRleHRMZW5ndGg9IjEzMCIgeD0iMTc1Mi41IiB5PSI5OC4xMTcyIj46IEF1dGhlbnRpY2F0ZWQgVXNlcjwvdGV4dD48dGV4dCBmaWxsPSIjMDAwMDAwIiBmb250LWZhbWlseT0ic2Fucy1zZXJpZiIgZm9udC1zaXplPSIxMyIgbGVuZ3RoQWRqdXN0PSJzcGFjaW5nIiB0ZXh0TGVuZ3RoPSI2LjUiIHg9IjE2ODEiIHk9IjExMi4wMzEzIj4tPC90ZXh0Pjx0ZXh0IGZpbGw9IiMwMDAwMDAiIGZvbnQtZmFtaWx5PSJzYW5zLXNlcmlmIiBmb250LXNpemU9IjEzIiBmb250LXdlaWdodD0iYm9sZCIgbGVuZ3RoQWRqdXN0PSJzcGFjaW5nIiB0ZXh0TGVuZ3RoPSIxMDQiIHg9IjE2OTQiIHk9IjExMi4wMzEzIj5QcmUtY29uZGl0aW9uKHMpPC90ZXh0Pjx0ZXh0IGZpbGw9IiMwMDAwMDAiIGZvbnQtZmFtaWx5PSJzYW5zLXNlcmlmIiBmb250LXNpemU9IjEzIiBsZW5ndGhBZGp1c3Q9InNwYWNpbmciIHRleHRMZW5ndGg9IjMzMS41IiB4PSIxNzk4IiB5PSIxMTIuMDMxMyI+OiBBdXRoZW50aWNhdGVkIFVzZXIgaGFzIHZhbGlkIHByZXBhaWQgY2FyZCBudW1iZXIuPC90ZXh0Pjx0ZXh0IGZpbGw9IiMwMDAwMDAiIGZvbnQtZmFtaWx5PSJzYW5zLXNlcmlmIiBmb250LXNpemU9IjEzIiBsZW5ndGhBZGp1c3Q9InNwYWNpbmciIHRleHRMZW5ndGg9IjYuNSIgeD0iMTY4MSIgeT0iMTI1Ljk0NTMiPi08L3RleHQ+PHRleHQgZmlsbD0iIzAwMDAwMCIgZm9udC1mYW1pbHk9InNhbnMtc2VyaWYiIGZvbnQtc2l6ZT0iMTMiIGZvbnQtd2VpZ2h0PSJib2xkIiBsZW5ndGhBZGp1c3Q9InNwYWNpbmciIHRleHRMZW5ndGg9IjExMC41IiB4PSIxNjk0IiB5PSIxMjUuOTQ1MyI+UG9zdC1jb25kaXRpb24ocyk8L3RleHQ+PHRleHQgZmlsbD0iIzAwMDAwMCIgZm9udC1mYW1pbHk9InNhbnMtc2VyaWYiIGZvbnQtc2l6ZT0iMTMiIGxlbmd0aEFkanVzdD0ic3BhY2luZyIgdGV4dExlbmd0aD0iMjczIiB4PSIxODA0LjUiIHk9IjEyNS45NDUzIj46IFByZXBhaWQgY2FyZCBsaW5rZWQgdG8gdGhlIHVzZXIgYWNjb3VudC48L3RleHQ+PHRleHQgZmlsbD0iIzAwMDAwMCIgZm9udC1mYW1pbHk9InNhbnMtc2VyaWYiIGZvbnQtc2l6ZT0iMTMiIGxlbmd0aEFkanVzdD0ic3BhY2luZyIgdGV4dExlbmd0aD0iNi41IiB4PSIxNjgxIiB5PSIxMzkuODU5NCI+LTwvdGV4dD48dGV4dCBmaWxsPSIjMDAwMDAwIiBmb250LWZhbWlseT0ic2Fucy1zZXJpZiIgZm9udC1zaXplPSIxMyIgZm9udC13ZWlnaHQ9ImJvbGQiIGxlbmd0aEFkanVzdD0ic3BhY2luZyIgdGV4dExlbmd0aD0iMTM2LjUiIHg9IjE2OTQiIHk9IjEzOS44NTk0Ij5NYWluIFN1Y2Nlc3MgU2NlbmFyaW88L3RleHQ+PHRleHQgZmlsbD0iIzAwMDAwMCIgZm9udC1mYW1pbHk9InNhbnMtc2VyaWYiIGZvbnQtc2l6ZT0iMTMiIGxlbmd0aEFkanVzdD0ic3BhY2luZyIgdGV4dExlbmd0aD0iNi41IiB4PSIxODMwLjUiIHk9IjEzOS44NTk0Ij46PC90ZXh0Pjx0ZXh0IGZpbGw9IiMwMDAwMDAiIGZvbnQtZmFtaWx5PSJzYW5zLXNlcmlmIiBmb250LXNpemU9IjEzIiBsZW5ndGhBZGp1c3Q9InNwYWNpbmciIHRleHRMZW5ndGg9IjMxOC41IiB4PSIxNjk0IiB5PSIxNTMuNzczNCI+MS4gQXV0aGVudGljYXRlZCBVc2VyIGVudGVycyBwcmVwYWlkIGNhcmQgbnVtYmVyLjwvdGV4dD48dGV4dCBmaWxsPSIjMDAwMDAwIiBmb250LWZhbWlseT0ic2Fucy1zZXJpZiIgZm9udC1zaXplPSIxMyIgbGVuZ3RoQWRqdXN0PSJzcGFjaW5nIiB0ZXh0TGVuZ3RoPSIyNTMuNSIgeD0iMTY5NCIgeT0iMTY3LjY4NzUiPjIuIFN5c3RlbSB2YWxpZGF0ZXMgYW5kIGxpbmtzIHRoZSBjYXJkLjwvdGV4dD48dGV4dCBmaWxsPSIjMDAwMDAwIiBmb250LWZhbWlseT0ic2Fucy1zZXJpZiIgZm9udC1zaXplPSIxMyIgbGVuZ3RoQWRqdXN0PSJzcGFjaW5nIiB0ZXh0TGVuZ3RoPSIyNzMiIHg9IjE2OTQiIHk9IjE4MS42MDE2Ij4zLiBBdXRoZW50aWNhdGVkIFVzZXIgbm90aWZpZWQgb2Ygc3VjY2Vzcy48L3RleHQ+PHRleHQgZmlsbD0iIzAwMDAwMCIgZm9udC1mYW1pbHk9InNhbnMtc2VyaWYiIGZvbnQtc2l6ZT0iMTMiIGxlbmd0aEFkanVzdD0ic3BhY2luZyIgdGV4dExlbmd0aD0iNi41IiB4PSIxNjgxIiB5PSIxOTUuNTE1NiI+LTwvdGV4dD48dGV4dCBmaWxsPSIjMDAwMDAwIiBmb250LWZhbWlseT0ic2Fucy1zZXJpZiIgZm9udC1zaXplPSIxMyIgZm9udC13ZWlnaHQ9ImJvbGQiIGxlbmd0aEFkanVzdD0ic3BhY2luZyIgdGV4dExlbmd0aD0iMjIxIiB4PSIxNjk0IiB5PSIxOTUuNTE1NiI+QWx0ZXJuYXRpdmUvVW5zdWNjZXNzZnVsIFNjZW5hcmlvczwvdGV4dD48dGV4dCBmaWxsPSIjMDAwMDAwIiBmb250LWZhbWlseT0ic2Fucy1zZXJpZiIgZm9udC1zaXplPSIxMyIgbGVuZ3RoQWRqdXN0PSJzcGFjaW5nIiB0ZXh0TGVuZ3RoPSI2LjUiIHg9IjE5MTUiIHk9IjE5NS41MTU2Ij46PC90ZXh0Pjx0ZXh0IGZpbGw9IiMwMDAwMDAiIGZvbnQtZmFtaWx5PSJzYW5zLXNlcmlmIiBmb250LXNpemU9IjEzIiBsZW5ndGhBZGp1c3Q9InNwYWNpbmciIHRleHRMZW5ndGg9IjE0MyIgeD0iMTY5NCIgeT0iMjA5LjQyOTciPi0gSW52YWxpZCBjYXJkIG51bWJlci48L3RleHQ+PHRleHQgZmlsbD0iIzAwMDAwMCIgZm9udC1mYW1pbHk9InNhbnMtc2VyaWYiIGZvbnQtc2l6ZT0iMTMiIGxlbmd0aEFkanVzdD0ic3BhY2luZyIgdGV4dExlbmd0aD0iMTc1LjUiIHg9IjE2OTQiIHk9IjIyMy4zNDM4Ij4tIFVuc3VwcG9ydGVkIHByZXBhaWQgY2FyZC48L3RleHQ+PC9nPjxnIGNsYXNzPSJlbnRpdHkiIGRhdGEtZW50aXR5PSJHTU4zNSIgZGF0YS1zb3VyY2UtbGluZT0iOTgiIGRhdGEtdWlkPSJlbnQwMDM2IiBpZD0iZW50aXR5X0dNTjM1Ij48cGF0aCBkPSJNMjM1OS41LDY3IEwyMzU5LjUsMTM3LjUgTDIzMjQuMDYsMTQxLjUgTDIzNTkuNSwxNDUuNSBMMjM1OS41LDIxNi4xNDA2IEEwLDAgMCAwIDAgMjM1OS41LDIxNi4xNDA2IEwyOTEzLjUsMjE2LjE0MDYgQTAsMCAwIDAgMCAyOTEzLjUsMjE2LjE0MDYgTDI5MTMuNSw3NyBMMjkwMy41LDY3IEwyMzU5LjUsNjcgQTAsMCAwIDAgMCAyMzU5LjUsNjciIGZpbGw9IiNGRUZGREQiIHN0eWxlPSJzdHJva2U6IzE4MTgxODtzdHJva2Utd2lkdGg6MC41OyIvPjxwYXRoIGQ9Ik0yOTAzLjUsNjcgTDI5MDMuNSw3NyBMMjkxMy41LDc3IEwyOTAzLjUsNjciIGZpbGw9IiNGRUZGREQiIHN0eWxlPSJzdHJva2U6IzE4MTgxODtzdHJva2Utd2lkdGg6MC41OyIvPjx0ZXh0IGZpbGw9IiMwMDAwMDAiIGZvbnQtZmFtaWx5PSJzYW5zLXNlcmlmIiBmb250LXNpemU9IjEzIiBsZW5ndGhBZGp1c3Q9InNwYWNpbmciIHRleHRMZW5ndGg9IjYuNSIgeD0iMjM2NS41IiB5PSI4NC4yODkxIj4tPC90ZXh0Pjx0ZXh0IGZpbGw9IiMwMDAwMDAiIGZvbnQtZmFtaWx5PSJzYW5zLXNlcmlmIiBmb250LXNpemU9IjEzIiBmb250LXdlaWdodD0iYm9sZCIgbGVuZ3RoQWRqdXN0PSJzcGFjaW5nIiB0ZXh0TGVuZ3RoPSIxMyIgeD0iMjM3OC41IiB5PSI4NC4yODkxIj5JRDwvdGV4dD48dGV4dCBmaWxsPSIjMDAwMDAwIiBmb250LWZhbWlseT0ic2Fucy1zZXJpZiIgZm9udC1zaXplPSIxMyIgbGVuZ3RoQWRqdXN0PSJzcGFjaW5nIiB0ZXh0TGVuZ3RoPSI1MiIgeD0iMjM5MS41IiB5PSI4NC4yODkxIj46IFVDLTAwNTwvdGV4dD48dGV4dCBmaWxsPSIjMDAwMDAwIiBmb250LWZhbWlseT0ic2Fucy1zZXJpZiIgZm9udC1zaXplPSIxMyIgbGVuZ3RoQWRqdXN0PSJzcGFjaW5nIiB0ZXh0TGVuZ3RoPSI2LjUiIHg9IjIzNjUuNSIgeT0iOTguMjAzMSI+LTwvdGV4dD48dGV4dCBmaWxsPSIjMDAwMDAwIiBmb250LWZhbWlseT0ic2Fucy1zZXJpZiIgZm9udC1zaXplPSIxMyIgZm9udC13ZWlnaHQ9ImJvbGQiIGxlbmd0aEFkanVzdD0ic3BhY2luZyIgdGV4dExlbmd0aD0iMjYiIHg9IjIzNzguNSIgeT0iOTguMjAzMSI+R29hbDwvdGV4dD48dGV4dCBmaWxsPSIjMDAwMDAwIiBmb250LWZhbWlseT0ic2Fucy1zZXJpZiIgZm9udC1zaXplPSIxMyIgbGVuZ3RoQWRqdXN0PSJzcGFjaW5nIiB0ZXh0TGVuZ3RoPSIyMjcuNSIgeD0iMjQwNC41IiB5PSI5OC4yMDMxIj46IENoZWNrIGJhbGFuY2Ugb2YgbGlua2VkIGFjY291bnRzLjwvdGV4dD48dGV4dCBmaWxsPSIjMDAwMDAwIiBmb250LWZhbWlseT0ic2Fucy1zZXJpZiIgZm9udC1zaXplPSIxMyIgbGVuZ3RoQWRqdXN0PSJzcGFjaW5nIiB0ZXh0TGVuZ3RoPSI2LjUiIHg9IjIzNjUuNSIgeT0iMTEyLjExNzIiPi08L3RleHQ+PHRleHQgZmlsbD0iIzAwMDAwMCIgZm9udC1mYW1pbHk9InNhbnMtc2VyaWYiIGZvbnQtc2l6ZT0iMTMiIGZvbnQtd2VpZ2h0PSJib2xkIiBsZW5ndGhBZGp1c3Q9InNwYWNpbmciIHRleHRMZW5ndGg9IjU4LjUiIHg9IjIzNzguNSIgeT0iMTEyLjExNzIiPkluaXRpYXRvcjwvdGV4dD48dGV4dCBmaWxsPSIjMDAwMDAwIiBmb250LWZhbWlseT0ic2Fucy1zZXJpZiIgZm9udC1zaXplPSIxMyIgbGVuZ3RoQWRqdXN0PSJzcGFjaW5nIiB0ZXh0TGVuZ3RoPSIxMzAiIHg9IjI0MzciIHk9IjExMi4xMTcyIj46IEF1dGhlbnRpY2F0ZWQgVXNlcjwvdGV4dD48dGV4dCBmaWxsPSIjMDAwMDAwIiBmb250LWZhbWlseT0ic2Fucy1zZXJpZiIgZm9udC1zaXplPSIxMyIgbGVuZ3RoQWRqdXN0PSJzcGFjaW5nIiB0ZXh0TGVuZ3RoPSI2LjUiIHg9IjIzNjUuNSIgeT0iMTI2LjAzMTMiPi08L3RleHQ+PHRleHQgZmlsbD0iIzAwMDAwMCIgZm9udC1mYW1pbHk9InNhbnMtc2VyaWYiIGZvbnQtc2l6ZT0iMTMiIGZvbnQtd2VpZ2h0PSJib2xkIiBsZW5ndGhBZGp1c3Q9InNwYWNpbmciIHRleHRMZW5ndGg9IjEwNCIgeD0iMjM3OC41IiB5PSIxMjYuMDMxMyI+UHJlLWNvbmRpdGlvbihzKTwvdGV4dD48dGV4dCBmaWxsPSIjMDAwMDAwIiBmb250LWZhbWlseT0ic2Fucy1zZXJpZiIgZm9udC1zaXplPSIxMyIgbGVuZ3RoQWRqdXN0PSJzcGFjaW5nIiB0ZXh0TGVuZ3RoPSIzNDQuNSIgeD0iMjQ4Mi41IiB5PSIxMjYuMDMxMyI+OiBBdXRoZW50aWNhdGVkIFVzZXIgaGFzIGF0IGxlYXN0IG9uZSBsaW5rZWQgYWNjb3VudC48L3RleHQ+PHRleHQgZmlsbD0iIzAwMDAwMCIgZm9udC1mYW1pbHk9InNhbnMtc2VyaWYiIGZvbnQtc2l6ZT0iMTMiIGxlbmd0aEFkanVzdD0ic3BhY2luZyIgdGV4dExlbmd0aD0iNi41IiB4PSIyMzY1LjUiIHk9IjEzOS45NDUzIj4tPC90ZXh0Pjx0ZXh0IGZpbGw9IiMwMDAwMDAiIGZvbnQtZmFtaWx5PSJzYW5zLXNlcmlmIiBmb250LXNpemU9IjEzIiBmb250LXdlaWdodD0iYm9sZCIgbGVuZ3RoQWRqdXN0PSJzcGFjaW5nIiB0ZXh0TGVuZ3RoPSIxMTAuNSIgeD0iMjM3OC41IiB5PSIxMzkuOTQ1MyI+UG9zdC1jb25kaXRpb24ocyk8L3RleHQ+PHRleHQgZmlsbD0iIzAwMDAwMCIgZm9udC1mYW1pbHk9InNhbnMtc2VyaWYiIGZvbnQtc2l6ZT0iMTMiIGxlbmd0aEFkanVzdD0ic3BhY2luZyIgdGV4dExlbmd0aD0iNDA5LjUiIHg9IjI0ODkiIHk9IjEzOS45NDUzIj46IEF1dGhlbnRpY2F0ZWQgVXNlciBzZWVzIHRoZSBiYWxhbmNlIG9mIHRoZWlyIGxpbmtlZCBhY2NvdW50cy48L3RleHQ+PHRleHQgZmlsbD0iIzAwMDAwMCIgZm9udC1mYW1pbHk9InNhbnMtc2VyaWYiIGZvbnQtc2l6ZT0iMTMiIGxlbmd0aEFkanVzdD0ic3BhY2luZyIgdGV4dExlbmd0aD0iNi41IiB4PSIyMzY1LjUiIHk9IjE1My44NTk0Ij4tPC90ZXh0Pjx0ZXh0IGZpbGw9IiMwMDAwMDAiIGZvbnQtZmFtaWx5PSJzYW5zLXNlcmlmIiBmb250LXNpemU9IjEzIiBmb250LXdlaWdodD0iYm9sZCIgbGVuZ3RoQWRqdXN0PSJzcGFjaW5nIiB0ZXh0TGVuZ3RoPSIxMzYuNSIgeD0iMjM3OC41IiB5PSIxNTMuODU5NCI+TWFpbiBTdWNjZXNzIFNjZW5hcmlvPC90ZXh0Pjx0ZXh0IGZpbGw9IiMwMDAwMDAiIGZvbnQtZmFtaWx5PSJzYW5zLXNlcmlmIiBmb250LXNpemU9IjEzIiBsZW5ndGhBZGp1c3Q9InNwYWNpbmciIHRleHRMZW5ndGg9IjYuNSIgeD0iMjUxNSIgeT0iMTUzLjg1OTQiPjo8L3RleHQ+PHRleHQgZmlsbD0iIzAwMDAwMCIgZm9udC1mYW1pbHk9InNhbnMtc2VyaWYiIGZvbnQtc2l6ZT0iMTMiIGxlbmd0aEFkanVzdD0ic3BhY2luZyIgdGV4dExlbmd0aD0iMzEyIiB4PSIyMzc4LjUiIHk9IjE2Ny43NzM0Ij4xLiBBdXRoZW50aWNhdGVkIFVzZXIgc2VsZWN0cyAiQmFsYW5jZSBJbnF1aXJ5Ii48L3RleHQ+PHRleHQgZmlsbD0iIzAwMDAwMCIgZm9udC1mYW1pbHk9InNhbnMtc2VyaWYiIGZvbnQtc2l6ZT0iMTMiIGxlbmd0aEFkanVzdD0ic3BhY2luZyIgdGV4dExlbmd0aD0iNDIyLjUiIHg9IjIzNzguNSIgeT0iMTgxLjY4NzUiPjIuIFN5c3RlbSByZXRyaWV2ZXMgYW5kIGRpc3BsYXlzIGJhbGFuY2UgZm9yIGVhY2ggbGlua2VkIGFjY291bnQuPC90ZXh0Pjx0ZXh0IGZpbGw9IiMwMDAwMDAiIGZvbnQtZmFtaWx5PSJzYW5zLXNlcmlmIiBmb250LXNpemU9IjEzIiBsZW5ndGhBZGp1c3Q9InNwYWNpbmciIHRleHRMZW5ndGg9IjYuNSIgeD0iMjM2NS41IiB5PSIxOTUuNjAxNiI+LTwvdGV4dD48dGV4dCBmaWxsPSIjMDAwMDAwIiBmb250LWZhbWlseT0ic2Fucy1zZXJpZiIgZm9udC1zaXplPSIxMyIgZm9udC13ZWlnaHQ9ImJvbGQiIGxlbmd0aEFkanVzdD0ic3BhY2luZyIgdGV4dExlbmd0aD0iMjIxIiB4PSIyMzc4LjUiIHk9IjE5NS42MDE2Ij5BbHRlcm5hdGl2ZS9VbnN1Y2Nlc3NmdWwgU2NlbmFyaW9zPC90ZXh0Pjx0ZXh0IGZpbGw9IiMwMDAwMDAiIGZvbnQtZmFtaWx5PSJzYW5zLXNlcmlmIiBmb250LXNpemU9IjEzIiBsZW5ndGhBZGp1c3Q9InNwYWNpbmciIHRleHRMZW5ndGg9IjYuNSIgeD0iMjU5OS41IiB5PSIxOTUuNjAxNiI+OjwvdGV4dD48dGV4dCBmaWxsPSIjMDAwMDAwIiBmb250LWZhbWlseT0ic2Fucy1zZXJpZiIgZm9udC1zaXplPSIxMyIgbGVuZ3RoQWRqdXN0PSJzcGFjaW5nIiB0ZXh0TGVuZ3RoPSIxOTUiIHg9IjIzNzguNSIgeT0iMjA5LjUxNTYiPi0gRmFpbHVyZSB0byByZXRyaWV2ZSBiYWxhbmNlLjwvdGV4dD48L2c+PGcgY2xhc3M9ImVudGl0eSIgZGF0YS1lbnRpdHk9IkdNTjM5IiBkYXRhLXNvdXJjZS1saW5lPSIxMTQiIGRhdGEtdWlkPSJlbnQwMDQwIiBpZD0iZW50aXR5X0dNTjM5Ij48cGF0aCBkPSJNMzEyMyw2NyBMMzEyMywxMzcuNSBMMzA4OC4wNSwxNDEuNSBMMzEyMywxNDUuNSBMMzEyMywyMTYuMTQwNiBBMCwwIDAgMCAwIDMxMjMsMjE2LjE0MDYgTDM1MjcuNSwyMTYuMTQwNiBBMCwwIDAgMCAwIDM1MjcuNSwyMTYuMTQwNiBMMzUyNy41LDc3IEwzNTE3LjUsNjcgTDMxMjMsNjcgQTAsMCAwIDAgMCAzMTIzLDY3IiBmaWxsPSIjRkVGRkREIiBzdHlsZT0ic3Ryb2tlOiMxODE4MTg7c3Ryb2tlLXdpZHRoOjAuNTsiLz48cGF0aCBkPSJNMzUxNy41LDY3IEwzNTE3LjUsNzcgTDM1MjcuNSw3NyBMMzUxNy41LDY3IiBmaWxsPSIjRkVGRkREIiBzdHlsZT0ic3Ryb2tlOiMxODE4MTg7c3Ryb2tlLXdpZHRoOjAuNTsiLz48dGV4dCBmaWxsPSIjMDAwMDAwIiBmb250LWZhbWlseT0ic2Fucy1zZXJpZiIgZm9udC1zaXplPSIxMyIgbGVuZ3RoQWRqdXN0PSJzcGFjaW5nIiB0ZXh0TGVuZ3RoPSI2LjUiIHg9IjMxMjkiIHk9Ijg0LjI4OTEiPi08L3RleHQ+PHRleHQgZmlsbD0iIzAwMDAwMCIgZm9udC1mYW1pbHk9InNhbnMtc2VyaWYiIGZvbnQtc2l6ZT0iMTMiIGZvbnQtd2VpZ2h0PSJib2xkIiBsZW5ndGhBZGp1c3Q9InNwYWNpbmciIHRleHRMZW5ndGg9IjEzIiB4PSIzMTQyIiB5PSI4NC4yODkxIj5JRDwvdGV4dD48dGV4dCBmaWxsPSIjMDAwMDAwIiBmb250LWZhbWlseT0ic2Fucy1zZXJpZiIgZm9udC1zaXplPSIxMyIgbGVuZ3RoQWRqdXN0PSJzcGFjaW5nIiB0ZXh0TGVuZ3RoPSI1MiIgeD0iMzE1NSIgeT0iODQuMjg5MSI+OiBVQy0wMDY8L3RleHQ+PHRleHQgZmlsbD0iIzAwMDAwMCIgZm9udC1mYW1pbHk9InNhbnMtc2VyaWYiIGZvbnQtc2l6ZT0iMTMiIGxlbmd0aEFkanVzdD0ic3BhY2luZyIgdGV4dExlbmd0aD0iNi41IiB4PSIzMTI5IiB5PSI5OC4yMDMxIj4tPC90ZXh0Pjx0ZXh0IGZpbGw9IiMwMDAwMDAiIGZvbnQtZmFtaWx5PSJzYW5zLXNlcmlmIiBmb250LXNpemU9IjEzIiBmb250LXdlaWdodD0iYm9sZCIgbGVuZ3RoQWRqdXN0PSJzcGFjaW5nIiB0ZXh0TGVuZ3RoPSIyNiIgeD0iMzE0MiIgeT0iOTguMjAzMSI+R29hbDwvdGV4dD48dGV4dCBmaWxsPSIjMDAwMDAwIiBmb250LWZhbWlseT0ic2Fucy1zZXJpZiIgZm9udC1zaXplPSIxMyIgbGVuZ3RoQWRqdXN0PSJzcGFjaW5nIiB0ZXh0TGVuZ3RoPSIzMDUuNSIgeD0iMzE2OCIgeT0iOTguMjAzMSI+OiBWaWV3IHJlY2VudCB0cmFuc2FjdGlvbnMgZm9yIGxpbmtlZCBhY2NvdW50cy48L3RleHQ+PHRleHQgZmlsbD0iIzAwMDAwMCIgZm9udC1mYW1pbHk9InNhbnMtc2VyaWYiIGZvbnQtc2l6ZT0iMTMiIGxlbmd0aEFkanVzdD0ic3BhY2luZyIgdGV4dExlbmd0aD0iNi41IiB4PSIzMTI5IiB5PSIxMTIuMTE3MiI+LTwvdGV4dD48dGV4dCBmaWxsPSIjMDAwMDAwIiBmb250LWZhbWlseT0ic2Fucy1zZXJpZiIgZm9udC1zaXplPSIxMyIgZm9udC13ZWlnaHQ9ImJvbGQiIGxlbmd0aEFkanVzdD0ic3BhY2luZyIgdGV4dExlbmd0aD0iNTguNSIgeD0iMzE0MiIgeT0iMTEyLjExNzIiPkluaXRpYXRvcjwvdGV4dD48dGV4dCBmaWxsPSIjMDAwMDAwIiBmb250LWZhbWlseT0ic2Fucy1zZXJpZiIgZm9udC1zaXplPSIxMyIgbGVuZ3RoQWRqdXN0PSJzcGFjaW5nIiB0ZXh0TGVuZ3RoPSIxMzAiIHg9IjMyMDAuNSIgeT0iMTEyLjExNzIiPjogQXV0aGVudGljYXRlZCBVc2VyPC90ZXh0Pjx0ZXh0IGZpbGw9IiMwMDAwMDAiIGZvbnQtZmFtaWx5PSJzYW5zLXNlcmlmIiBmb250LXNpemU9IjEzIiBsZW5ndGhBZGp1c3Q9InNwYWNpbmciIHRleHRMZW5ndGg9IjYuNSIgeD0iMzEyOSIgeT0iMTI2LjAzMTMiPi08L3RleHQ+PHRleHQgZmlsbD0iIzAwMDAwMCIgZm9udC1mYW1pbHk9InNhbnMtc2VyaWYiIGZvbnQtc2l6ZT0iMTMiIGZvbnQtd2VpZ2h0PSJib2xkIiBsZW5ndGhBZGp1c3Q9InNwYWNpbmciIHRleHRMZW5ndGg9IjEwNCIgeD0iMzE0MiIgeT0iMTI2LjAzMTMiPlByZS1jb25kaXRpb24ocyk8L3RleHQ+PHRleHQgZmlsbD0iIzAwMDAwMCIgZm9udC1mYW1pbHk9InNhbnMtc2VyaWYiIGZvbnQtc2l6ZT0iMTMiIGxlbmd0aEFkanVzdD0ic3BhY2luZyIgdGV4dExlbmd0aD0iMjY2LjUiIHg9IjMyNDYiIHk9IjEyNi4wMzEzIj46IEF1dGhlbnRpY2F0ZWQgVXNlciBoYXMgbGlua2VkIGFjY291bnRzLjwvdGV4dD48dGV4dCBmaWxsPSIjMDAwMDAwIiBmb250LWZhbWlseT0ic2Fucy1zZXJpZiIgZm9udC1zaXplPSIxMyIgbGVuZ3RoQWRqdXN0PSJzcGFjaW5nIiB0ZXh0TGVuZ3RoPSI2LjUiIHg9IjMxMjkiIHk9IjEzOS45NDUzIj4tPC90ZXh0Pjx0ZXh0IGZpbGw9IiMwMDAwMDAiIGZvbnQtZmFtaWx5PSJzYW5zLXNlcmlmIiBmb250LXNpemU9IjEzIiBmb250LXdlaWdodD0iYm9sZCIgbGVuZ3RoQWRqdXN0PSJzcGFjaW5nIiB0ZXh0TGVuZ3RoPSIxMTAuNSIgeD0iMzE0MiIgeT0iMTM5Ljk0NTMiPlBvc3QtY29uZGl0aW9uKHMpPC90ZXh0Pjx0ZXh0IGZpbGw9IiMwMDAwMDAiIGZvbnQtZmFtaWx5PSJzYW5zLXNlcmlmIiBmb250LXNpemU9IjEzIiBsZW5ndGhBZGp1c3Q9InNwYWNpbmciIHRleHRMZW5ndGg9IjE3NS41IiB4PSIzMjUyLjUiIHk9IjEzOS45NDUzIj46IE1pbmkgc3RhdGVtZW50IGRpc3BsYXllZC48L3RleHQ+PHRleHQgZmlsbD0iIzAwMDAwMCIgZm9udC1mYW1pbHk9InNhbnMtc2VyaWYiIGZvbnQtc2l6ZT0iMTMiIGxlbmd0aEFkanVzdD0ic3BhY2luZyIgdGV4dExlbmd0aD0iNi41IiB4PSIzMTI5IiB5PSIxNTMuODU5NCI+LTwvdGV4dD48dGV4dCBmaWxsPSIjMDAwMDAwIiBmb250LWZhbWlseT0ic2Fucy1zZXJpZiIgZm9udC1zaXplPSIxMyIgZm9udC13ZWlnaHQ9ImJvbGQiIGxlbmd0aEFkanVzdD0ic3BhY2luZyIgdGV4dExlbmd0aD0iMTM2LjUiIHg9IjMxNDIiIHk9IjE1My44NTk0Ij5NYWluIFN1Y2Nlc3MgU2NlbmFyaW88L3RleHQ+PHRleHQgZmlsbD0iIzAwMDAwMCIgZm9udC1mYW1pbHk9InNhbnMtc2VyaWYiIGZvbnQtc2l6ZT0iMTMiIGxlbmd0aEFkanVzdD0ic3BhY2luZyIgdGV4dExlbmd0aD0iNi41IiB4PSIzMjc4LjUiIHk9IjE1My44NTk0Ij46PC90ZXh0Pjx0ZXh0IGZpbGw9IiMwMDAwMDAiIGZvbnQtZmFtaWx5PSJzYW5zLXNlcmlmIiBmb250LXNpemU9IjEzIiBsZW5ndGhBZGp1c3Q9InNwYWNpbmciIHRleHRMZW5ndGg9IjMwNS41IiB4PSIzMTQyIiB5PSIxNjcuNzczNCI+MS4gQXV0aGVudGljYXRlZCBVc2VyIHNlbGVjdHMgIk1pbmkgU3RhdGVtZW50Ii48L3RleHQ+PHRleHQgZmlsbD0iIzAwMDAwMCIgZm9udC1mYW1pbHk9InNhbnMtc2VyaWYiIGZvbnQtc2l6ZT0iMTMiIGxlbmd0aEFkanVzdD0ic3BhY2luZyIgdGV4dExlbmd0aD0iMzQ0LjUiIHg9IjMxNDIiIHk9IjE4MS42ODc1Ij4yLiBTeXN0ZW0gcmV0cmlldmVzIGFuZCBkaXNwbGF5cyByZWNlbnQgdHJhbnNhY3Rpb25zLjwvdGV4dD48dGV4dCBmaWxsPSIjMDAwMDAwIiBmb250LWZhbWlseT0ic2Fucy1zZXJpZiIgZm9udC1zaXplPSIxMyIgbGVuZ3RoQWRqdXN0PSJzcGFjaW5nIiB0ZXh0TGVuZ3RoPSI2LjUiIHg9IjMxMjkiIHk9IjE5NS42MDE2Ij4tPC90ZXh0Pjx0ZXh0IGZpbGw9IiMwMDAwMDAiIGZvbnQtZmFtaWx5PSJzYW5zLXNlcmlmIiBmb250LXNpemU9IjEzIiBmb250LXdlaWdodD0iYm9sZCIgbGVuZ3RoQWRqdXN0PSJzcGFjaW5nIiB0ZXh0TGVuZ3RoPSIyMjEiIHg9IjMxNDIiIHk9IjE5NS42MDE2Ij5BbHRlcm5hdGl2ZS9VbnN1Y2Nlc3NmdWwgU2NlbmFyaW9zPC90ZXh0Pjx0ZXh0IGZpbGw9IiMwMDAwMDAiIGZvbnQtZmFtaWx5PSJzYW5zLXNlcmlmIiBmb250LXNpemU9IjEzIiBsZW5ndGhBZGp1c3Q9InNwYWNpbmciIHRleHRMZW5ndGg9IjYuNSIgeD0iMzM2MyIgeT0iMTk1LjYwMTYiPjo8L3RleHQ+PHRleHQgZmlsbD0iIzAwMDAwMCIgZm9udC1mYW1pbHk9InNhbnMtc2VyaWYiIGZvbnQtc2l6ZT0iMTMiIGxlbmd0aEFkanVzdD0ic3BhY2luZyIgdGV4dExlbmd0aD0iMjI3LjUiIHg9IjMxNDIiIHk9IjIwOS41MTU2Ij4tIEZhaWx1cmUgdG8gcmV0cmlldmUgdHJhbnNhY3Rpb25zLjwvdGV4dD48L2c+PCEtLWVudGl0eSBBdXRoVXNlci0tPjxnIGNsYXNzPSJlbnRpdHkiIGRhdGEtZW50aXR5PSJBdXRoVXNlciIgZGF0YS1zb3VyY2UtbGluZT0iMSIgZGF0YS11aWQ9ImVudDAwMDIiIGlkPSJlbnRpdHlfQXV0aFVzZXIiPjxlbGxpcHNlIGN4PSIzNjI2LjUiIGN5PSIxMTIuNSIgZmlsbD0iI0YxRjFGMSIgcng9IjgiIHJ5PSI4IiBzdHlsZT0ic3Ryb2tlOiMxODE4MTg7c3Ryb2tlLXdpZHRoOjAuNTsiLz48cGF0aCBkPSJNMzYyNi41LDEyMC41IEwzNjI2LjUsMTQ3LjUgTTM2MTMuNSwxMjguNSBMMzYzOS41LDEyOC41IE0zNjI2LjUsMTQ3LjUgTDM2MTMuNSwxNjIuNSBNMzYyNi41LDE0Ny41IEwzNjM5LjUsMTYyLjUiIGZpbGw9Im5vbmUiIHN0eWxlPSJzdHJva2U6IzE4MTgxODtzdHJva2Utd2lkdGg6MC41OyIvPjx0ZXh0IGZpbGw9IiMwMDAwMDAiIGZvbnQtZmFtaWx5PSJzYW5zLXNlcmlmIiBmb250LXNpemU9IjE0IiBsZW5ndGhBZGp1c3Q9InNwYWNpbmciIHRleHRMZW5ndGg9IjEyNiIgeD0iMzU2My41IiB5PSIxNzcuMjM0NCI+QXV0aGVudGljYXRlZCBVc2VyPC90ZXh0PjwvZz48IS0tZW50aXR5IEJhbmstLT48ZyBjbGFzcz0iZW50aXR5IiBkYXRhLWVudGl0eT0iQmFuayIgZGF0YS1zb3VyY2UtbGluZT0iMiIgZGF0YS11aWQ9ImVudDAwMDMiIGlkPSJlbnRpdHlfQmFuayI+PGVsbGlwc2UgY3g9IjM3MzguNSIgY3k9IjExMi41IiBmaWxsPSIjRjFGMUYxIiByeD0iOCIgcnk9IjgiIHN0eWxlPSJzdHJva2U6IzE4MTgxODtzdHJva2Utd2lkdGg6MC41OyIvPjxwYXRoIGQ9Ik0zNzM4LjUsMTIwLjUgTDM3MzguNSwxNDcuNSBNMzcyNS41LDEyOC41IEwzNzUxLjUsMTI4LjUgTTM3MzguNSwxNDcuNSBMMzcyNS41LDE2Mi41IE0zNzM4LjUsMTQ3LjUgTDM3NTEuNSwxNjIuNSIgZmlsbD0ibm9uZSIgc3R5bGU9InN0cm9rZTojMTgxODE4O3N0cm9rZS13aWR0aDowLjU7Ii8+PHRleHQgZmlsbD0iIzAwMDAwMCIgZm9udC1mYW1pbHk9InNhbnMtc2VyaWYiIGZvbnQtc2l6ZT0iMTQiIGxlbmd0aEFkanVzdD0ic3BhY2luZyIgdGV4dExlbmd0aD0iMjgiIHg9IjM3MjQuNSIgeT0iMTc3LjIzNDQiPkJhbms8L3RleHQ+PC9nPjwhLS1lbnRpdHkgUHJlcGFpZENhcmRJc3N1ZXItLT48ZyBjbGFzcz0iZW50aXR5IiBkYXRhLWVudGl0eT0iUHJlcGFpZENhcmRJc3N1ZXIiIGRhdGEtc291cmNlLWxpbmU9IjMiIGRhdGEtdWlkPSJlbnQwMDA0IiBpZD0iZW50aXR5X1ByZXBhaWRDYXJkSXNzdWVyIj48ZWxsaXBzZSBjeD0iMzYyNi41IiBjeT0iMzk5LjUiIGZpbGw9IiNGMUYxRjEiIHJ4PSI4IiByeT0iOCIgc3R5bGU9InN0cm9rZTojMTgxODE4O3N0cm9rZS13aWR0aDowLjU7Ii8+PHBhdGggZD0iTTM2MjYuNSw0MDcuNSBMMzYyNi41LDQzNC41IE0zNjEzLjUsNDE1LjUgTDM2MzkuNSw0MTUuNSBNMzYyNi41LDQzNC41IEwzNjEzLjUsNDQ5LjUgTTM2MjYuNSw0MzQuNSBMMzYzOS41LDQ0OS41IiBmaWxsPSJub25lIiBzdHlsZT0ic3Ryb2tlOiMxODE4MTg7c3Ryb2tlLXdpZHRoOjAuNTsiLz48dGV4dCBmaWxsPSIjMDAwMDAwIiBmb250LWZhbWlseT0ic2Fucy1zZXJpZiIgZm9udC1zaXplPSIxNCIgbGVuZ3RoQWRqdXN0PSJzcGFjaW5nIiB0ZXh0TGVuZ3RoPSIxMTkiIHg9IjM1NjciIHk9IjQ2NC4yMzQ0Ij5QcmVwYWlkQ2FyZElzc3VlcjwvdGV4dD48L2c+PGcgY2xhc3M9ImVudGl0eSIgZGF0YS1lbnRpdHk9IlVDMSIgZGF0YS1zb3VyY2UtbGluZT0iNSIgZGF0YS11aWQ9ImVudDAwMDUiIGlkPSJlbnRpdHlfVUMxIj48ZWxsaXBzZSBjeD0iNzIuNTM2NyIgY3k9IjE0MS42MDczIiBmaWxsPSIjRjFGMUYxIiByeD0iNTguNTM2NyIgcnk9IjE0LjEwNzMiIHN0eWxlPSJzdHJva2U6IzE4MTgxODtzdHJva2Utd2lkdGg6MC41OyIvPjx0ZXh0IGZpbGw9IiMwMDAwMDAiIGZvbnQtZmFtaWx5PSJzYW5zLXNlcmlmIiBmb250LXNpemU9IjE0IiBsZW5ndGhBZGp1c3Q9InNwYWNpbmciIHRleHRMZW5ndGg9IjcwIiB4PSIzNy41MzY3IiB5PSIxNDUuMzQ5NSI+U2VuZCBNb25leTwvdGV4dD48L2c+PGcgY2xhc3M9ImVudGl0eSIgZGF0YS1lbnRpdHk9IlVDMiIgZGF0YS1zb3VyY2UtbGluZT0iNiIgZGF0YS11aWQ9ImVudDAwMDYiIGlkPSJlbnRpdHlfVUMyIj48ZWxsaXBzZSBjeD0iNzIuNjgzNCIgY3k9IjQyOC43MzY3IiBmaWxsPSIjRjFGMUYxIiByeD0iNjYuNjgzNCIgcnk9IjE1LjczNjciIHN0eWxlPSJzdHJva2U6IzE4MTgxODtzdHJva2Utd2lkdGg6MC41OyIvPjx0ZXh0IGZpbGw9IiMwMDAwMDAiIGZvbnQtZmFtaWx5PSJzYW5zLXNlcmlmIiBmb250LXNpemU9IjE0IiBsZW5ndGhBZGp1c3Q9InNwYWNpbmciIHRleHRMZW5ndGg9IjkxIiB4PSIyNy4xODM0IiB5PSI0MzIuNDc4OSI+UmVjZWl2ZSBNb25leTwvdGV4dD48L2c+PGcgY2xhc3M9ImVudGl0eSIgZGF0YS1lbnRpdHk9IlVDMyIgZGF0YS1zb3VyY2UtbGluZT0iNyIgZGF0YS11aWQ9ImVudDAwMDciIGlkPSJlbnRpdHlfVUMzIj48ZWxsaXBzZSBjeD0iODcyLjM4MzkiIGN5PSIxNDEuNTc2OCIgZmlsbD0iI0YxRjFGMSIgcng9IjkwLjg4MzkiIHJ5PSIyMC41NzY4IiBzdHlsZT0ic3Ryb2tlOiMxODE4MTg7c3Ryb2tlLXdpZHRoOjAuNTsiLz48dGV4dCBmaWxsPSIjMDAwMDAwIiBmb250LWZhbWlseT0ic2Fucy1zZXJpZiIgZm9udC1zaXplPSIxNCIgbGVuZ3RoQWRqdXN0PSJzcGFjaW5nIiB0ZXh0TGVuZ3RoPSIxNDciIHg9Ijc5OC44ODM5IiB5PSIxNDUuMzE5Ij5PbmJvYXJkIEJhbmsgQWNjb3VudHM8L3RleHQ+PC9nPjxnIGNsYXNzPSJlbnRpdHkiIGRhdGEtZW50aXR5PSJVQzQiIGRhdGEtc291cmNlLWxpbmU9IjgiIGRhdGEtdWlkPSJlbnQwMDA4IiBpZD0iZW50aXR5X1VDNCI+PGVsbGlwc2UgY3g9IjE1NDguMzgzOSIgY3k9IjE0MS41NzY4IiBmaWxsPSIjRjFGMUYxIiByeD0iOTAuODgzOSIgcnk9IjIwLjU3NjgiIHN0eWxlPSJzdHJva2U6IzE4MTgxODtzdHJva2Utd2lkdGg6MC41OyIvPjx0ZXh0IGZpbGw9IiMwMDAwMDAiIGZvbnQtZmFtaWx5PSJzYW5zLXNlcmlmIiBmb250LXNpemU9IjE0IiBsZW5ndGhBZGp1c3Q9InNwYWNpbmciIHRleHRMZW5ndGg9IjE0NyIgeD0iMTQ3NC44ODM5IiB5PSIxNDUuMzE5Ij5PbmJvYXJkIFByZXBhaWQgQ2FyZHM8L3RleHQ+PC9nPjxnIGNsYXNzPSJlbnRpdHkiIGRhdGEtZW50aXR5PSJVQzUiIGRhdGEtc291cmNlLWxpbmU9IjkiIGRhdGEtdWlkPSJlbnQwMDA5IiBpZD0iZW50aXR5X1VDNSI+PGVsbGlwc2UgY3g9IjIyNTEuNDY2MyIgY3k9IjE0MS4zOTMzIiBmaWxsPSIjRjFGMUYxIiByeD0iNzIuNDY2MyIgcnk9IjE2Ljg5MzMiIHN0eWxlPSJzdHJva2U6IzE4MTgxODtzdHJva2Utd2lkdGg6MC41OyIvPjx0ZXh0IGZpbGw9IiMwMDAwMDAiIGZvbnQtZmFtaWx5PSJzYW5zLXNlcmlmIiBmb250LXNpemU9IjE0IiBsZW5ndGhBZGp1c3Q9InNwYWNpbmciIHRleHRMZW5ndGg9IjEwNSIgeD0iMjE5OC45NjYzIiB5PSIxNDUuMTM1NSI+QmFsYW5jZSBJbnF1aXJ5PC90ZXh0PjwvZz48ZyBjbGFzcz0iZW50aXR5IiBkYXRhLWVudGl0eT0iVUM2IiBkYXRhLXNvdXJjZS1saW5lPSIxMCIgZGF0YS11aWQ9ImVudDAwMTAiIGlkPSJlbnRpdHlfVUM2Ij48ZWxsaXBzZSBjeD0iMzAxOC41NDU2IiBjeT0iMTQxLjMwOTEiIGZpbGw9IiNGMUYxRjEiIHJ4PSI2OS41NDU2IiByeT0iMTYuMzA5MSIgc3R5bGU9InN0cm9rZTojMTgxODE4O3N0cm9rZS13aWR0aDowLjU7Ii8+PHRleHQgZmlsbD0iIzAwMDAwMCIgZm9udC1mYW1pbHk9InNhbnMtc2VyaWYiIGZvbnQtc2l6ZT0iMTQiIGxlbmd0aEFkanVzdD0ic3BhY2luZyIgdGV4dExlbmd0aD0iOTgiIHg9IjI5NjkuNTQ1NiIgeT0iMTQ1LjA1MTMiPk1pbmkgU3RhdGVtZW50PC90ZXh0PjwvZz48ZyBjbGFzcz0iZW50aXR5IiBkYXRhLWVudGl0eT0iVUM3IiBkYXRhLXNvdXJjZS1saW5lPSIxMSIgZGF0YS11aWQ9ImVudDAwMTEiIGlkPSJlbnRpdHlfVUM3Ij48ZWxsaXBzZSBjeD0iODQ1LjU2MjIiIGN5PSI0MjguNzEyNCIgZmlsbD0iI0YxRjFGMSIgcng9Ijk0LjA2MjIiIHJ5PSIyMS4yMTI0IiBzdHlsZT0ic3Ryb2tlOiMxODE4MTg7c3Ryb2tlLXdpZHRoOjAuNTsiLz48dGV4dCBmaWxsPSIjMDAwMDAwIiBmb250LWZhbWlseT0ic2Fucy1zZXJpZiIgZm9udC1zaXplPSIxNCIgbGVuZ3RoQWRqdXN0PSJzcGFjaW5nIiB0ZXh0TGVuZ3RoPSIxNTQiIHg9Ijc2OC41NjIyIiB5PSI0MzIuNDU0NiI+UmVnaXN0ZXIgTW9iaWxlIE51bWJlcjwvdGV4dD48L2c+PGcgY2xhc3M9ImVudGl0eSIgZGF0YS1lbnRpdHk9IlVDOCIgZGF0YS1zb3VyY2UtbGluZT0iMTIiIGRhdGEtdWlkPSJlbnQwMDEyIiBpZD0iZW50aXR5X1VDOCI+PGVsbGlwc2UgY3g9IjEwNTkuNjA2MiIgY3k9IjQyOC4zMjEyIiBmaWxsPSIjRjFGMUYxIiByeD0iODQuNjA2MiIgcnk9IjE5LjMyMTIiIHN0eWxlPSJzdHJva2U6IzE4MTgxODtzdHJva2Utd2lkdGg6MC41OyIvPjx0ZXh0IGZpbGw9IiMwMDAwMDAiIGZvbnQtZmFtaWx5PSJzYW5zLXNlcmlmIiBmb250LXNpemU9IjE0IiBsZW5ndGhBZGp1c3Q9InNwYWNpbmciIHRleHRMZW5ndGg9IjEzMyIgeD0iOTkzLjEwNjIiIHk9IjQzMi4wNjM0Ij5SZWdpc3RlciBEZWJpdCBDYXJkPC90ZXh0PjwvZz48ZyBjbGFzcz0iZW50aXR5IiBkYXRhLWVudGl0eT0iVUM5IiBkYXRhLXNvdXJjZS1saW5lPSIxMyIgZGF0YS11aWQ9ImVudDAwMTMiIGlkPSJlbnRpdHlfVUM5Ij48ZWxsaXBzZSBjeD0iMTU0OC4yNTQ3IiBjeT0iNDI4LjQ1MDkiIGZpbGw9IiNGMUYxRjEiIHJ4PSIxMTAuMjU0NyIgcnk9IjI0LjQ1MDkiIHN0eWxlPSJzdHJva2U6IzE4MTgxODtzdHJva2Utd2lkdGg6MC41OyIvPjx0ZXh0IGZpbGw9IiMwMDAwMDAiIGZvbnQtZmFtaWx5PSJzYW5zLXNlcmlmIiBmb250LXNpemU9IjE0IiBsZW5ndGhBZGp1c3Q9InNwYWNpbmciIHRleHRMZW5ndGg9IjE4OSIgeD0iMTQ1My43NTQ3IiB5PSI0MzIuMTkzMSI+UHJvdmlkZSBQcmVwYWlkIENhcmQgTnVtYmVyPC90ZXh0PjwvZz48IS0tbGluayBVQzEgdG8gVUMyLS0+PGcgY2xhc3M9ImxpbmsiIGRhdGEtZW50aXR5LTE9IlVDMSIgZGF0YS1lbnRpdHktMj0iVUMyIiBkYXRhLXNvdXJjZS1saW5lPSIxNSIgZGF0YS11aWQ9ImxuazE0IiBpZD0ibGlua19VQzFfVUMyIj48cGF0aCBkPSJNNzIuNSwxNTUuODYgQzcyLjUsMjAzLjMgNzIuNSwzNTcuMzYgNzIuNSw0MDYuODIiIGZpbGw9Im5vbmUiIGlkPSJVQzEtdG8tVUMyIiBzdHlsZT0ic3Ryb2tlOiMxODE4MTg7c3Ryb2tlLXdpZHRoOjE7Ii8+PHBvbHlnb24gZmlsbD0iIzE4MTgxOCIgcG9pbnRzPSI3Mi41LDQxMi44Miw3Ni41LDQwMy44Miw3Mi41LDQwNy44Miw2OC41LDQwMy44Miw3Mi41LDQxMi44MiIgc3R5bGU9InN0cm9rZTojMTgxODE4O3N0cm9rZS13aWR0aDoxOyIvPjx0ZXh0IGZpbGw9IiMwMDAwMDAiIGZvbnQtZmFtaWx5PSJzYW5zLXNlcmlmIiBmb250LXNpemU9IjEzIiBsZW5ndGhBZGp1c3Q9InNwYWNpbmciIHRleHRMZW5ndGg9IjU4LjUiIHg9IjczLjUiIHk9IjI4OS4yODkxIj4mIzE3MTtpbmNsdWRlJiMxODc7PC90ZXh0PjwvZz48IS0tbGluayBVQzMgdG8gVUM3LS0+PGcgY2xhc3M9ImxpbmsiIGRhdGEtZW50aXR5LTE9IlVDMyIgZGF0YS1lbnRpdHktMj0iVUM3IiBkYXRhLXNvdXJjZS1saW5lPSIxNiIgZGF0YS11aWQ9ImxuazE1IiBpZD0ibGlua19VQzNfVUM3Ij48cGF0aCBkPSJNODcwLjY0LDE2Mi4wOSBDODY1LjcyLDIxNC4wMyA4NTIuOTQ2NCwzNDguODk2OCA4NDcuOTY2NCw0MDEuNDE2OCIgZmlsbD0ibm9uZSIgaWQ9IlVDMy10by1VQzciIHN0eWxlPSJzdHJva2U6IzE4MTgxODtzdHJva2Utd2lkdGg6MTsiLz48cG9seWdvbiBmaWxsPSIjMTgxODE4IiBwb2ludHM9Ijg0Ny40LDQwNy4zOSw4NTIuMjMxNywzOTguODA3OCw4NDcuODcyLDQwMi40MTIzLDg0NC4yNjc0LDM5OC4wNTI2LDg0Ny40LDQwNy4zOSIgc3R5bGU9InN0cm9rZTojMTgxODE4O3N0cm9rZS13aWR0aDoxOyIvPjx0ZXh0IGZpbGw9IiMwMDAwMDAiIGZvbnQtZmFtaWx5PSJzYW5zLXNlcmlmIiBmb250LXNpemU9IjEzIiBsZW5ndGhBZGp1c3Q9InNwYWNpbmciIHRleHRMZW5ndGg9IjUyIiB4PSI4NjAuNSIgeT0iMjg5LjI4OTEiPiYjMTcxO2V4dGVuZCYjMTg3OzwvdGV4dD48L2c+PCEtLWxpbmsgVUMzIHRvIFVDOC0tPjxnIGNsYXNzPSJsaW5rIiBkYXRhLWVudGl0eS0xPSJVQzMiIGRhdGEtZW50aXR5LTI9IlVDOCIgZGF0YS1zb3VyY2UtbGluZT0iMTciIGRhdGEtdWlkPSJsbmsxNiIgaWQ9ImxpbmtfVUMzX1VDOCI+PHBhdGggZD0iTTg4NS4zNSwxNjIuMDkgQzkxOS43NiwyMTQuNTMgMTAxMC4zNDgyLDM1Mi41OTM2IDEwNDMuOTk4Miw0MDMuODczNiIgZmlsbD0ibm9uZSIgaWQ9IlVDMy10by1VQzgiIHN0eWxlPSJzdHJva2U6IzE4MTgxODtzdHJva2Utd2lkdGg6MTsiLz48cG9seWdvbiBmaWxsPSIjMTgxODE4IiBwb2ludHM9IjEwNDcuMjksNDA4Ljg5LDEwNDUuNjk2NiwzOTkuMTcwOSwxMDQ0LjU0NjksNDA0LjcwOTcsMTAzOS4wMDgxLDQwMy41NTk5LDEwNDcuMjksNDA4Ljg5IiBzdHlsZT0ic3Ryb2tlOiMxODE4MTg7c3Ryb2tlLXdpZHRoOjE7Ii8+PHRleHQgZmlsbD0iIzAwMDAwMCIgZm9udC1mYW1pbHk9InNhbnMtc2VyaWYiIGZvbnQtc2l6ZT0iMTMiIGxlbmd0aEFkanVzdD0ic3BhY2luZyIgdGV4dExlbmd0aD0iNTIiIHg9Ijk2OS41IiB5PSIyODkuMjg5MSI+JiMxNzE7ZXh0ZW5kJiMxODc7PC90ZXh0PjwvZz48IS0tbGluayBVQzQgdG8gVUM5LS0+PGcgY2xhc3M9ImxpbmsiIGRhdGEtZW50aXR5LTE9IlVDNCIgZGF0YS1lbnRpdHktMj0iVUM5IiBkYXRhLXNvdXJjZS1saW5lPSIxOCIgZGF0YS11aWQ9ImxuazE3IiBpZD0ibGlua19VQzRfVUM5Ij48cGF0aCBkPSJNMTU0OC41LDE2Mi4wOSBDMTU0OC41LDIxMi45IDE1NDguNSwzNDIuNzcgMTU0OC41LDM5Ny44NCIgZmlsbD0ibm9uZSIgaWQ9IlVDNC10by1VQzkiIHN0eWxlPSJzdHJva2U6IzE4MTgxODtzdHJva2Utd2lkdGg6MTsiLz48cG9seWdvbiBmaWxsPSIjMTgxODE4IiBwb2ludHM9IjE1NDguNSw0MDMuODQsMTU1Mi41LDM5NC44NCwxNTQ4LjUsMzk4Ljg0LDE1NDQuNSwzOTQuODQsMTU0OC41LDQwMy44NCIgc3R5bGU9InN0cm9rZTojMTgxODE4O3N0cm9rZS13aWR0aDoxOyIvPjx0ZXh0IGZpbGw9IiMwMDAwMDAiIGZvbnQtZmFtaWx5PSJzYW5zLXNlcmlmIiBmb250LXNpemU9IjEzIiBsZW5ndGhBZGp1c3Q9InNwYWNpbmciIHRleHRMZW5ndGg9IjUyIiB4PSIxNTQ5LjUiIHk9IjI4OS4yODkxIj4mIzE3MTtleHRlbmQmIzE4Nzs8L3RleHQ+PC9nPjwhLS1TUkM9W2xQWFZKbml2NEMzVnlvYjZsMUhHNHFlSVExakxJNDFyOXdJWlhxZ3ZUeVN4OEhPUlV5X3NYZWpFenpybHhGTjZrcmRscU45R2RoOHh1Xzd5LVN0TzItRE1RVFd4Qi1xSWZITVNNU3BXcGczVTBzUjBsTk9GMC1STEJmWHkyM3psRDFQQ1A5VENQclY2YkFHb0Ewcm9QWDNzUmI1Y1NBcWFSaG9Ia3lsWkFGa0E3Q0tRTS05bjVGeWt2dWZDLWZ0V2Q3RExJY2syc2dJaDVobTB2cVFqRGVyZzVvbmRhWURTb0p6QmVVbGpKZ0IyalAwMlJZcTVsUUJlV19vcXdVc3pDMU9ya0ppTkVTQU5TWktGZ1JjeFY5X0ctdW5wT1JxeEdVYjNMQmhIUVlxb1IzZFRqbFhuQ0ExYW1KMUpadDl1dlo4M0NfWnFJS1lVYm5jVWRQNXFxZjItenJCeW9yQS1FeThGa3k5ZkdfWW5CSG95OFNTRHJ3QW1HYWJPSzdyWjNHUzV1bV9pZFc4VzRlUU5CZkpaNkpIaF9GUzBHMmdCZUNOenFlOVEtOTgzX0d0WHlGM2d5LTdYWkR1Q3R4c0JCdHpMQjdVbGxQY0xDbUVLZmI5WmxXNTZodUdxYmFjUlJ3OFBBUW5XWDl2UnJpTHJncVZQN044YkMtNTJzSlM3UU5LRzFkOXJWdXprZ3hVRzJfYjBGLVVFRWJQSFRySTRDZDRncW9ZUUx5UHN4Rml5RTlETUNzYU1nM0tQc3lRcDVlbTh6RjcwM1RpdXFrMEJzYVViN3dCVFFvT2F0OVFTZXA1bW9yNG9CSEpQeldlMG53REs0MFBwdkRRMEhZdUF1VXBraG9mR2ZTVmd3RWhjXzYwS0o4b0o5a1dIVE5HU3NDZTV4c2pHTW8tMnBva3FJdk5MdllPWmtEcUd5b2llajc5VU94MTJ5dTRvS3dqREhfMmpqY3NneTFQYl9YUEFqcGIxOG5PMjYtYXpweWFUb0lvRFlBQ3g2SFRpS3M5WUplT2tnLUxZOFJXRlZMN0FwOG9zaWYxWE0zMkhLbnI2WktMaGJiRFRPejhvakFKYXJwZVM3U2czVnI5RHFIZlVZUnVPcHMxZGxnTFFPdm5nWk42ZERNZkJ4VXVPbExQM0I2YTJsS1dSUDVXZTh3cGxCQWpnY3k3U1ptM2xQZUZocjJmRVo5MHNZRXVXd0MwRDdqMjJQS1hWMHpmNHdCaEFqMGF5YWNHQnk3RU92OGh3ZHppcU85TklqeldlRFEybXhxaWloMWlhVEEwVUY4clp5aDFDTzNjUEdTLXZjaTlwYWk5cHFpN3BEd2ZoWW5KbEticVl5d2dTTFd0aURzLWJqZlZDWXdRVmlPOHFkMml5TnNXRUV1eVFTRFF0MFdFamdIbU9USFM1cnJJeFRDSjF3aUZxdjBVTHdnMG94TVJvQ3BSWEwzclNOTEwzb0N6ZGtpZnVYc0V0ajJZS2pjNWdWMy1waFBqUldqZGYzN2VrVUliY2ZvYmNmc2JjY21DakNiaXJ1eV8wamhMX0hTR0p6RHVxTHVIdklmRkxKSlRfWjN2WmpsUlYxN2hUUXl4UklBUFprT0JJa0hDRllSdlAtbWZLOVpuamF4YnhYRnF0ZUppVjNHYXNKc1JHLVI5OEtOY0llbEFhRy1OYjRoYVJmUEw1TWphLUNiLU5JTU9YSHNSOE91Y3pQdE1Jb2tHU244ZzNIWjNxQTdIX0lGemh0ZE8teUJnYVFoSFF1QmctNkdYSnY2blpqV3d3V1lGWm96eEdWbXA5Tnk5UEpqclBScm5sekpIdXhPX0gxN1VkQ3paek80clhUdmgyeGhJM3RIeTI3X3RMWHV4NHZXWnFsbG5DMTdsdElieW9OR1BDZE82d2VZenNYRV8tSS0yeFlLZmF5WUtmc2hLUktWZU5dLS0+PC9nPjwvc3ZnPg==;" parent="1" vertex="1">
            <mxGeometry x="-1270" y="110" width="3759" height="540" as="geometry" />
          </mxCell>
        </UserObject>
      </root>
    </mxGraphModel>
  </diagram>
  <diagram id="3hYtlCfh81NyAWmDDX1w" name="Packaged-Use-Case">
    <mxGraphModel dx="2065" dy="730" grid="1" gridSize="10" guides="1" tooltips="1" connect="1" arrows="1" fold="1" page="1" pageScale="1" pageWidth="850" pageHeight="1100" math="0" shadow="0">
      <root>
        <mxCell id="0" />
        <mxCell id="1" parent="0" />
        <UserObject label="" plantUmlData="{&quot;data&quot;:&quot;@startuml\n\nactor \&quot;Authenticated User\&quot; as AuthUser\nactor Bank\nactor PrepaidCardIssuer\nactor \&quot;Instant Payment Network\&quot; as IPN\n\npackage \&quot;Transaction Services\&quot; {\n    usecase \&quot;Send Money\&quot; as UC1\n    usecase \&quot;Receive Money\&quot; as UC2\n}\n\npackage \&quot;Onboarding Services\&quot; {\n    usecase \&quot;Onboard Bank Accounts\&quot; as UC3\n    usecase \&quot;Onboard Prepaid Cards\&quot; as UC4\n}\n\npackage \&quot;Account Services\&quot; {\n    usecase \&quot;Balance Inquiry\&quot; as UC5\n    usecase \&quot;Mini Statement\&quot; as UC6\n}\n\npackage \&quot;Registration\&quot; {\n    usecase \&quot;Register Mobile Number\&quot; as UC7\n    usecase \&quot;Register Debit Card\&quot; as UC8\n    usecase \&quot;Provide Prepaid Card Number\&quot; as UC9\n}\n\nAuthUser --&gt; UC1\nAuthUser --&gt; UC2\nAuthUser --&gt; UC3\nAuthUser --&gt; UC4\nAuthUser --&gt; UC5\nAuthUser --&gt; UC6\nAuthUser --&gt; UC7\nAuthUser --&gt; UC8\nAuthUser --&gt; UC9\n\nUC1 --&gt; IPN : &lt;&lt;include&gt;&gt;\nUC2 --&gt; IPN : &lt;&lt;include&gt;&gt;\nUC3 --&gt; Bank : &lt;&lt;extend&gt;&gt;\nUC5 --&gt; Bank : &lt;&lt;extend&gt;&gt;\nUC6 --&gt; Bank : &lt;&lt;extend&gt;&gt;\nUC4 --&gt; PrepaidCardIssuer : &lt;&lt;extend&gt;&gt;\n\nUC3 --&gt; UC7\nUC3 --&gt; UC8\nUC4 --&gt; UC9\n\n@enduml\n&quot;,&quot;format&quot;:&quot;svg&quot;}" id="Vsu1uXafGda9MkefhR2m-1">
          <mxCell style="shape=image;noLabel=1;verticalAlign=top;aspect=fixed;imageAspect=0;image=data:image/svg+xml,PHN2ZyB4bWxucz0iaHR0cDovL3d3dy53My5vcmcvMjAwMC9zdmciIHhtbG5zOnhsaW5rPSJodHRwOi8vd3d3LnczLm9yZy8xOTk5L3hsaW5rIiBjb250ZW50U3R5bGVUeXBlPSJ0ZXh0L2NzcyIgZGF0YS1kaWFncmFtLXR5cGU9IkRFU0NSSVBUSU9OIiBoZWlnaHQ9IjM2OXB4IiBwcmVzZXJ2ZUFzcGVjdFJhdGlvPSJub25lIiBzdHlsZT0id2lkdGg6MTU2NXB4O2hlaWdodDozNjlweDtiYWNrZ3JvdW5kOiNGRkZGRkY7IiB2ZXJzaW9uPSIxLjEiIHZpZXdCb3g9IjAgMCAxNTY1IDM2OSIgd2lkdGg9IjE1NjVweCIgem9vbUFuZFBhbj0ibWFnbmlmeSI+PGRlZnMvPjxnPjwhLS1jbHVzdGVyIFRyYW5zYWN0aW9uIFNlcnZpY2VzLS0+PGcgY2xhc3M9ImNsdXN0ZXIiIGRhdGEtZW50aXR5PSJUcmFuc2FjdGlvbiBTZXJ2aWNlcyIgZGF0YS1zb3VyY2UtbGluZT0iNiIgZGF0YS11aWQ9ImVudDAwMDYiIGlkPSJjbHVzdGVyX1RyYW5zYWN0aW9uIFNlcnZpY2VzIj48cGF0aCBkPSJNOC41LDEzMi41IEwxNDkuNSwxMzIuNSBBMy43NSwzLjc1IDAgMCAxIDE1MiwxMzUgTDE1OSwxNTMuNDg0NCBMMzIxLjUsMTUzLjQ4NDQgQTIuNSwyLjUgMCAwIDEgMzI0LDE1NS45ODQ0IEwzMjQsMjEwIEEyLjUsMi41IDAgMCAxIDMyMS41LDIxMi41IEw4LjUsMjEyLjUgQTIuNSwyLjUgMCAwIDEgNiwyMTAgTDYsMTM1IEEyLjUsMi41IDAgMCAxIDguNSwxMzIuNSIgZmlsbD0ibm9uZSIgc3R5bGU9InN0cm9rZTojMDAwMDAwO3N0cm9rZS13aWR0aDoxLjU7Ii8+PGxpbmUgc3R5bGU9InN0cm9rZTojMDAwMDAwO3N0cm9rZS13aWR0aDoxLjU7IiB4MT0iNiIgeDI9IjE1OSIgeTE9IjE1My40ODQ0IiB5Mj0iMTUzLjQ4NDQiLz48dGV4dCBmaWxsPSIjMDAwMDAwIiBmb250LWZhbWlseT0ic2Fucy1zZXJpZiIgZm9udC1zaXplPSIxNCIgZm9udC13ZWlnaHQ9ImJvbGQiIGxlbmd0aEFkanVzdD0ic3BhY2luZyIgdGV4dExlbmd0aD0iMTQwIiB4PSIxMCIgeT0iMTQ3LjczNDQiPlRyYW5zYWN0aW9uIFNlcnZpY2VzPC90ZXh0PjwvZz48IS0tY2x1c3RlciBPbmJvYXJkaW5nIFNlcnZpY2VzLS0+PGcgY2xhc3M9ImNsdXN0ZXIiIGRhdGEtZW50aXR5PSJPbmJvYXJkaW5nIFNlcnZpY2VzIiBkYXRhLXNvdXJjZS1saW5lPSIxMSIgZGF0YS11aWQ9ImVudDAwMDkiIGlkPSJjbHVzdGVyX09uYm9hcmRpbmcgU2VydmljZXMiPjxwYXRoIGQ9Ik03MjYuNSwxMjcuNSBMODYwLjUsMTI3LjUgQTMuNzUsMy43NSAwIDAgMSA4NjMsMTMwIEw4NzAsMTQ4LjQ4NDQgTDExNTIuNSwxNDguNDg0NCBBMi41LDIuNSAwIDAgMSAxMTU1LDE1MC45ODQ0IEwxMTU1LDIxNSBBMi41LDIuNSAwIDAgMSAxMTUyLjUsMjE3LjUgTDcyNi41LDIxNy41IEEyLjUsMi41IDAgMCAxIDcyNCwyMTUgTDcyNCwxMzAgQTIuNSwyLjUgMCAwIDEgNzI2LjUsMTI3LjUiIGZpbGw9Im5vbmUiIHN0eWxlPSJzdHJva2U6IzAwMDAwMDtzdHJva2Utd2lkdGg6MS41OyIvPjxsaW5lIHN0eWxlPSJzdHJva2U6IzAwMDAwMDtzdHJva2Utd2lkdGg6MS41OyIgeDE9IjcyNCIgeDI9Ijg3MCIgeTE9IjE0OC40ODQ0IiB5Mj0iMTQ4LjQ4NDQiLz48dGV4dCBmaWxsPSIjMDAwMDAwIiBmb250LWZhbWlseT0ic2Fucy1zZXJpZiIgZm9udC1zaXplPSIxNCIgZm9udC13ZWlnaHQ9ImJvbGQiIGxlbmd0aEFkanVzdD0ic3BhY2luZyIgdGV4dExlbmd0aD0iMTMzIiB4PSI3MjgiIHk9IjE0Mi43MzQ0Ij5PbmJvYXJkaW5nIFNlcnZpY2VzPC90ZXh0PjwvZz48IS0tY2x1c3RlciBBY2NvdW50IFNlcnZpY2VzLS0+PGcgY2xhc3M9ImNsdXN0ZXIiIGRhdGEtZW50aXR5PSJBY2NvdW50IFNlcnZpY2VzIiBkYXRhLXNvdXJjZS1saW5lPSIxNiIgZGF0YS11aWQ9ImVudDAwMTIiIGlkPSJjbHVzdGVyX0FjY291bnQgU2VydmljZXMiPjxwYXRoIGQ9Ik0zNTAuNSwxMzEgTDQ2My41LDEzMSBBMy43NSwzLjc1IDAgMCAxIDQ2NiwxMzMuNSBMNDczLDE1MS45ODQ0IEw2OTcuNSwxNTEuOTg0NCBBMi41LDIuNSAwIDAgMSA3MDAsMTU0LjQ4NDQgTDcwMCwyMTEuNSBBMi41LDIuNSAwIDAgMSA2OTcuNSwyMTQgTDM1MC41LDIxNCBBMi41LDIuNSAwIDAgMSAzNDgsMjExLjUgTDM0OCwxMzMuNSBBMi41LDIuNSAwIDAgMSAzNTAuNSwxMzEiIGZpbGw9Im5vbmUiIHN0eWxlPSJzdHJva2U6IzAwMDAwMDtzdHJva2Utd2lkdGg6MS41OyIvPjxsaW5lIHN0eWxlPSJzdHJva2U6IzAwMDAwMDtzdHJva2Utd2lkdGg6MS41OyIgeDE9IjM0OCIgeDI9IjQ3MyIgeTE9IjE1MS45ODQ0IiB5Mj0iMTUxLjk4NDQiLz48dGV4dCBmaWxsPSIjMDAwMDAwIiBmb250LWZhbWlseT0ic2Fucy1zZXJpZiIgZm9udC1zaXplPSIxNCIgZm9udC13ZWlnaHQ9ImJvbGQiIGxlbmd0aEFkanVzdD0ic3BhY2luZyIgdGV4dExlbmd0aD0iMTEyIiB4PSIzNTIiIHk9IjE0Ni4yMzQ0Ij5BY2NvdW50IFNlcnZpY2VzPC90ZXh0PjwvZz48IS0tY2x1c3RlciBSZWdpc3RyYXRpb24tLT48ZyBjbGFzcz0iY2x1c3RlciIgZGF0YS1lbnRpdHk9IlJlZ2lzdHJhdGlvbiIgZGF0YS1zb3VyY2UtbGluZT0iMjEiIGRhdGEtdWlkPSJlbnQwMDE1IiBpZD0iY2x1c3Rlcl9SZWdpc3RyYXRpb24iPjxwYXRoIGQ9Ik04ODAuNSwyNjQuNSBMOTY1LjUsMjY0LjUgQTMuNzUsMy43NSAwIDAgMSA5NjgsMjY3IEw5NzUsMjg1LjQ4NDQgTDE1NTUuNSwyODUuNDg0NCBBMi41LDIuNSAwIDAgMSAxNTU4LDI4Ny45ODQ0IEwxNTU4LDM2MCBBMi41LDIuNSAwIDAgMSAxNTU1LjUsMzYyLjUgTDg4MC41LDM2Mi41IEEyLjUsMi41IDAgMCAxIDg3OCwzNjAgTDg3OCwyNjcgQTIuNSwyLjUgMCAwIDEgODgwLjUsMjY0LjUiIGZpbGw9Im5vbmUiIHN0eWxlPSJzdHJva2U6IzAwMDAwMDtzdHJva2Utd2lkdGg6MS41OyIvPjxsaW5lIHN0eWxlPSJzdHJva2U6IzAwMDAwMDtzdHJva2Utd2lkdGg6MS41OyIgeDE9Ijg3OCIgeDI9Ijk3NSIgeTE9IjI4NS40ODQ0IiB5Mj0iMjg1LjQ4NDQiLz48dGV4dCBmaWxsPSIjMDAwMDAwIiBmb250LWZhbWlseT0ic2Fucy1zZXJpZiIgZm9udC1zaXplPSIxNCIgZm9udC13ZWlnaHQ9ImJvbGQiIGxlbmd0aEFkanVzdD0ic3BhY2luZyIgdGV4dExlbmd0aD0iODQiIHg9Ijg4MiIgeT0iMjc5LjczNDQiPlJlZ2lzdHJhdGlvbjwvdGV4dD48L2c+PGcgY2xhc3M9ImVudGl0eSIgZGF0YS1lbnRpdHk9IlVDMSIgZGF0YS1zb3VyY2UtbGluZT0iNyIgZGF0YS11aWQ9ImVudDAwMDciIGlkPSJlbnRpdHlfVUMxIj48ZWxsaXBzZSBjeD0iMjQ5LjAzNjciIGN5PSIxODEuMTA3MyIgZmlsbD0iI0YxRjFGMSIgcng9IjU4LjUzNjciIHJ5PSIxNC4xMDczIiBzdHlsZT0ic3Ryb2tlOiMxODE4MTg7c3Ryb2tlLXdpZHRoOjAuNTsiLz48dGV4dCBmaWxsPSIjMDAwMDAwIiBmb250LWZhbWlseT0ic2Fucy1zZXJpZiIgZm9udC1zaXplPSIxNCIgbGVuZ3RoQWRqdXN0PSJzcGFjaW5nIiB0ZXh0TGVuZ3RoPSI3MCIgeD0iMjE0LjAzNjciIHk9IjE4NC44NDk1Ij5TZW5kIE1vbmV5PC90ZXh0PjwvZz48ZyBjbGFzcz0iZW50aXR5IiBkYXRhLWVudGl0eT0iVUMyIiBkYXRhLXNvdXJjZS1saW5lPSI4IiBkYXRhLXVpZD0iZW50MDAwOCIgaWQ9ImVudGl0eV9VQzIiPjxlbGxpcHNlIGN4PSI4OS4xODM0IiBjeT0iMTgxLjIzNjciIGZpbGw9IiNGMUYxRjEiIHJ4PSI2Ni42ODM0IiByeT0iMTUuNzM2NyIgc3R5bGU9InN0cm9rZTojMTgxODE4O3N0cm9rZS13aWR0aDowLjU7Ii8+PHRleHQgZmlsbD0iIzAwMDAwMCIgZm9udC1mYW1pbHk9InNhbnMtc2VyaWYiIGZvbnQtc2l6ZT0iMTQiIGxlbmd0aEFkanVzdD0ic3BhY2luZyIgdGV4dExlbmd0aD0iOTEiIHg9IjQzLjY4MzQiIHk9IjE4NC45Nzg5Ij5SZWNlaXZlIE1vbmV5PC90ZXh0PjwvZz48ZyBjbGFzcz0iZW50aXR5IiBkYXRhLWVudGl0eT0iVUMzIiBkYXRhLXNvdXJjZS1saW5lPSIxMiIgZGF0YS11aWQ9ImVudDAwMTAiIGlkPSJlbnRpdHlfVUMzIj48ZWxsaXBzZSBjeD0iMTA0Ny44ODM5IiBjeT0iMTgxLjA3NjgiIGZpbGw9IiNGMUYxRjEiIHJ4PSI5MC44ODM5IiByeT0iMjAuNTc2OCIgc3R5bGU9InN0cm9rZTojMTgxODE4O3N0cm9rZS13aWR0aDowLjU7Ii8+PHRleHQgZmlsbD0iIzAwMDAwMCIgZm9udC1mYW1pbHk9InNhbnMtc2VyaWYiIGZvbnQtc2l6ZT0iMTQiIGxlbmd0aEFkanVzdD0ic3BhY2luZyIgdGV4dExlbmd0aD0iMTQ3IiB4PSI5NzQuMzgzOSIgeT0iMTg0LjgxOSI+T25ib2FyZCBCYW5rIEFjY291bnRzPC90ZXh0PjwvZz48ZyBjbGFzcz0iZW50aXR5IiBkYXRhLWVudGl0eT0iVUM0IiBkYXRhLXNvdXJjZS1saW5lPSIxMyIgZGF0YS11aWQ9ImVudDAwMTEiIGlkPSJlbnRpdHlfVUM0Ij48ZWxsaXBzZSBjeD0iODMwLjg4MzkiIGN5PSIxODEuMDc2OCIgZmlsbD0iI0YxRjFGMSIgcng9IjkwLjg4MzkiIHJ5PSIyMC41NzY4IiBzdHlsZT0ic3Ryb2tlOiMxODE4MTg7c3Ryb2tlLXdpZHRoOjAuNTsiLz48dGV4dCBmaWxsPSIjMDAwMDAwIiBmb250LWZhbWlseT0ic2Fucy1zZXJpZiIgZm9udC1zaXplPSIxNCIgbGVuZ3RoQWRqdXN0PSJzcGFjaW5nIiB0ZXh0TGVuZ3RoPSIxNDciIHg9Ijc1Ny4zODM5IiB5PSIxODQuODE5Ij5PbmJvYXJkIFByZXBhaWQgQ2FyZHM8L3RleHQ+PC9nPjxnIGNsYXNzPSJlbnRpdHkiIGRhdGEtZW50aXR5PSJVQzUiIGRhdGEtc291cmNlLWxpbmU9IjE3IiBkYXRhLXVpZD0iZW50MDAxMyIgaWQ9ImVudGl0eV9VQzUiPjxlbGxpcHNlIGN4PSI0MzYuOTY2MyIgY3k9IjE4MC44OTMzIiBmaWxsPSIjRjFGMUYxIiByeD0iNzIuNDY2MyIgcnk9IjE2Ljg5MzMiIHN0eWxlPSJzdHJva2U6IzE4MTgxODtzdHJva2Utd2lkdGg6MC41OyIvPjx0ZXh0IGZpbGw9IiMwMDAwMDAiIGZvbnQtZmFtaWx5PSJzYW5zLXNlcmlmIiBmb250LXNpemU9IjE0IiBsZW5ndGhBZGp1c3Q9InNwYWNpbmciIHRleHRMZW5ndGg9IjEwNSIgeD0iMzg0LjQ2NjMiIHk9IjE4NC42MzU1Ij5CYWxhbmNlIElucXVpcnk8L3RleHQ+PC9nPjxnIGNsYXNzPSJlbnRpdHkiIGRhdGEtZW50aXR5PSJVQzYiIGRhdGEtc291cmNlLWxpbmU9IjE4IiBkYXRhLXVpZD0iZW50MDAxNCIgaWQ9ImVudGl0eV9VQzYiPjxlbGxpcHNlIGN4PSI2MTQuMDQ1NiIgY3k9IjE4MC44MDkxIiBmaWxsPSIjRjFGMUYxIiByeD0iNjkuNTQ1NiIgcnk9IjE2LjMwOTEiIHN0eWxlPSJzdHJva2U6IzE4MTgxODtzdHJva2Utd2lkdGg6MC41OyIvPjx0ZXh0IGZpbGw9IiMwMDAwMDAiIGZvbnQtZmFtaWx5PSJzYW5zLXNlcmlmIiBmb250LXNpemU9IjE0IiBsZW5ndGhBZGp1c3Q9InNwYWNpbmciIHRleHRMZW5ndGg9Ijk4IiB4PSI1NjUuMDQ1NiIgeT0iMTg0LjU1MTMiPk1pbmkgU3RhdGVtZW50PC90ZXh0PjwvZz48ZyBjbGFzcz0iZW50aXR5IiBkYXRhLWVudGl0eT0iVUM3IiBkYXRhLXNvdXJjZS1saW5lPSIyMiIgZGF0YS11aWQ9ImVudDAwMTYiIGlkPSJlbnRpdHlfVUM3Ij48ZWxsaXBzZSBjeD0iMTQ0OC4wNjIyIiBjeT0iMzIyLjIxMjQiIGZpbGw9IiNGMUYxRjEiIHJ4PSI5NC4wNjIyIiByeT0iMjEuMjEyNCIgc3R5bGU9InN0cm9rZTojMTgxODE4O3N0cm9rZS13aWR0aDowLjU7Ii8+PHRleHQgZmlsbD0iIzAwMDAwMCIgZm9udC1mYW1pbHk9InNhbnMtc2VyaWYiIGZvbnQtc2l6ZT0iMTQiIGxlbmd0aEFkanVzdD0ic3BhY2luZyIgdGV4dExlbmd0aD0iMTU0IiB4PSIxMzcxLjA2MjIiIHk9IjMyNS45NTQ2Ij5SZWdpc3RlciBNb2JpbGUgTnVtYmVyPC90ZXh0PjwvZz48ZyBjbGFzcz0iZW50aXR5IiBkYXRhLWVudGl0eT0iVUM4IiBkYXRhLXNvdXJjZS1saW5lPSIyMyIgZGF0YS11aWQ9ImVudDAwMTciIGlkPSJlbnRpdHlfVUM4Ij48ZWxsaXBzZSBjeD0iMTIzNC4xMDYyIiBjeT0iMzIxLjgyMTIiIGZpbGw9IiNGMUYxRjEiIHJ4PSI4NC42MDYyIiByeT0iMTkuMzIxMiIgc3R5bGU9InN0cm9rZTojMTgxODE4O3N0cm9rZS13aWR0aDowLjU7Ii8+PHRleHQgZmlsbD0iIzAwMDAwMCIgZm9udC1mYW1pbHk9InNhbnMtc2VyaWYiIGZvbnQtc2l6ZT0iMTQiIGxlbmd0aEFkanVzdD0ic3BhY2luZyIgdGV4dExlbmd0aD0iMTMzIiB4PSIxMTY3LjYwNjIiIHk9IjMyNS41NjM0Ij5SZWdpc3RlciBEZWJpdCBDYXJkPC90ZXh0PjwvZz48ZyBjbGFzcz0iZW50aXR5IiBkYXRhLWVudGl0eT0iVUM5IiBkYXRhLXNvdXJjZS1saW5lPSIyNCIgZGF0YS11aWQ9ImVudDAwMTgiIGlkPSJlbnRpdHlfVUM5Ij48ZWxsaXBzZSBjeD0iMTAwMy43NTQ3IiBjeT0iMzIxLjk1MDkiIGZpbGw9IiNGMUYxRjEiIHJ4PSIxMTAuMjU0NyIgcnk9IjI0LjQ1MDkiIHN0eWxlPSJzdHJva2U6IzE4MTgxODtzdHJva2Utd2lkdGg6MC41OyIvPjx0ZXh0IGZpbGw9IiMwMDAwMDAiIGZvbnQtZmFtaWx5PSJzYW5zLXNlcmlmIiBmb250LXNpemU9IjE0IiBsZW5ndGhBZGp1c3Q9InNwYWNpbmciIHRleHRMZW5ndGg9IjE4OSIgeD0iOTA5LjI1NDciIHk9IjMyNS42OTMxIj5Qcm92aWRlIFByZXBhaWQgQ2FyZCBOdW1iZXI8L3RleHQ+PC9nPjwhLS1lbnRpdHkgQXV0aFVzZXItLT48ZyBjbGFzcz0iZW50aXR5IiBkYXRhLWVudGl0eT0iQXV0aFVzZXIiIGRhdGEtc291cmNlLWxpbmU9IjEiIGRhdGEtdWlkPSJlbnQwMDAyIiBpZD0iZW50aXR5X0F1dGhVc2VyIj48ZWxsaXBzZSBjeD0iODMxIiBjeT0iMTQiIGZpbGw9IiNGMUYxRjEiIHJ4PSI4IiByeT0iOCIgc3R5bGU9InN0cm9rZTojMTgxODE4O3N0cm9rZS13aWR0aDowLjU7Ii8+PHBhdGggZD0iTTgzMSwyMiBMODMxLDQ5IE04MTgsMzAgTDg0NCwzMCBNODMxLDQ5IEw4MTgsNjQgTTgzMSw0OSBMODQ0LDY0IiBmaWxsPSJub25lIiBzdHlsZT0ic3Ryb2tlOiMxODE4MTg7c3Ryb2tlLXdpZHRoOjAuNTsiLz48dGV4dCBmaWxsPSIjMDAwMDAwIiBmb250LWZhbWlseT0ic2Fucy1zZXJpZiIgZm9udC1zaXplPSIxNCIgbGVuZ3RoQWRqdXN0PSJzcGFjaW5nIiB0ZXh0TGVuZ3RoPSIxMjYiIHg9Ijc2OCIgeT0iNzguNzM0NCI+QXV0aGVudGljYXRlZCBVc2VyPC90ZXh0PjwvZz48IS0tZW50aXR5IEJhbmstLT48ZyBjbGFzcz0iZW50aXR5IiBkYXRhLWVudGl0eT0iQmFuayIgZGF0YS1zb3VyY2UtbGluZT0iMiIgZGF0YS11aWQ9ImVudDAwMDMiIGlkPSJlbnRpdHlfQmFuayI+PGVsbGlwc2UgY3g9IjYxMyIgY3k9IjI5MyIgZmlsbD0iI0YxRjFGMSIgcng9IjgiIHJ5PSI4IiBzdHlsZT0ic3Ryb2tlOiMxODE4MTg7c3Ryb2tlLXdpZHRoOjAuNTsiLz48cGF0aCBkPSJNNjEzLDMwMSBMNjEzLDMyOCBNNjAwLDMwOSBMNjI2LDMwOSBNNjEzLDMyOCBMNjAwLDM0MyBNNjEzLDMyOCBMNjI2LDM0MyIgZmlsbD0ibm9uZSIgc3R5bGU9InN0cm9rZTojMTgxODE4O3N0cm9rZS13aWR0aDowLjU7Ii8+PHRleHQgZmlsbD0iIzAwMDAwMCIgZm9udC1mYW1pbHk9InNhbnMtc2VyaWYiIGZvbnQtc2l6ZT0iMTQiIGxlbmd0aEFkanVzdD0ic3BhY2luZyIgdGV4dExlbmd0aD0iMjgiIHg9IjU5OSIgeT0iMzU3LjczNDQiPkJhbms8L3RleHQ+PC9nPjwhLS1lbnRpdHkgUHJlcGFpZENhcmRJc3N1ZXItLT48ZyBjbGFzcz0iZW50aXR5IiBkYXRhLWVudGl0eT0iUHJlcGFpZENhcmRJc3N1ZXIiIGRhdGEtc291cmNlLWxpbmU9IjMiIGRhdGEtdWlkPSJlbnQwMDA0IiBpZD0iZW50aXR5X1ByZXBhaWRDYXJkSXNzdWVyIj48ZWxsaXBzZSBjeD0iNzk5IiBjeT0iMjkzIiBmaWxsPSIjRjFGMUYxIiByeD0iOCIgcnk9IjgiIHN0eWxlPSJzdHJva2U6IzE4MTgxODtzdHJva2Utd2lkdGg6MC41OyIvPjxwYXRoIGQ9Ik03OTksMzAxIEw3OTksMzI4IE03ODYsMzA5IEw4MTIsMzA5IE03OTksMzI4IEw3ODYsMzQzIE03OTksMzI4IEw4MTIsMzQzIiBmaWxsPSJub25lIiBzdHlsZT0ic3Ryb2tlOiMxODE4MTg7c3Ryb2tlLXdpZHRoOjAuNTsiLz48dGV4dCBmaWxsPSIjMDAwMDAwIiBmb250LWZhbWlseT0ic2Fucy1zZXJpZiIgZm9udC1zaXplPSIxNCIgbGVuZ3RoQWRqdXN0PSJzcGFjaW5nIiB0ZXh0TGVuZ3RoPSIxMTkiIHg9IjczOS41IiB5PSIzNTcuNzM0NCI+UHJlcGFpZENhcmRJc3N1ZXI8L3RleHQ+PC9nPjwhLS1lbnRpdHkgSVBOLS0+PGcgY2xhc3M9ImVudGl0eSIgZGF0YS1lbnRpdHk9IklQTiIgZGF0YS1zb3VyY2UtbGluZT0iNCIgZGF0YS11aWQ9ImVudDAwMDUiIGlkPSJlbnRpdHlfSVBOIj48ZWxsaXBzZSBjeD0iMTU0IiBjeT0iMjkzIiBmaWxsPSIjRjFGMUYxIiByeD0iOCIgcnk9IjgiIHN0eWxlPSJzdHJva2U6IzE4MTgxODtzdHJva2Utd2lkdGg6MC41OyIvPjxwYXRoIGQ9Ik0xNTQsMzAxIEwxNTQsMzI4IE0xNDEsMzA5IEwxNjcsMzA5IE0xNTQsMzI4IEwxNDEsMzQzIE0xNTQsMzI4IEwxNjcsMzQzIiBmaWxsPSJub25lIiBzdHlsZT0ic3Ryb2tlOiMxODE4MTg7c3Ryb2tlLXdpZHRoOjAuNTsiLz48dGV4dCBmaWxsPSIjMDAwMDAwIiBmb250LWZhbWlseT0ic2Fucy1zZXJpZiIgZm9udC1zaXplPSIxNCIgbGVuZ3RoQWRqdXN0PSJzcGFjaW5nIiB0ZXh0TGVuZ3RoPSIxNjEiIHg9IjczLjUiIHk9IjM1Ny43MzQ0Ij5JbnN0YW50IFBheW1lbnQgTmV0d29yazwvdGV4dD48L2c+PCEtLWxpbmsgQXV0aFVzZXIgdG8gVUMxLS0+PGcgY2xhc3M9ImxpbmsiIGRhdGEtZW50aXR5LTE9IkF1dGhVc2VyIiBkYXRhLWVudGl0eS0yPSJVQzEiIGRhdGEtc291cmNlLWxpbmU9IjI3IiBkYXRhLXVpZD0ibG5rMTkiIGlkPSJsaW5rX0F1dGhVc2VyX1VDMSI+PHBhdGggZD0iTTc2Ny42Niw0Ni4wMyBDNjczLjQ0LDUwLjc4IDQ5Mi4wMSw2Ni42NCAzNDgsMTE5LjUgQzMxNi40MiwxMzEuMDkgMjg4LjcxNTUsMTQ5LjcxNzQgMjY5LjkzNTUsMTYzLjc1NzQiIGZpbGw9Im5vbmUiIGlkPSJBdXRoVXNlci10by1VQzEiIHN0eWxlPSJzdHJva2U6IzE4MTgxODtzdHJva2Utd2lkdGg6MTsiLz48cG9seWdvbiBmaWxsPSIjMTgxODE4IiBwb2ludHM9IjI2NS4xMywxNjcuMzUsMjc0LjczMzQsMTY1LjE2NDcsMjY5LjEzNDYsMTY0LjM1NjEsMjY5Ljk0MzIsMTU4Ljc1NzQsMjY1LjEzLDE2Ny4zNSIgc3R5bGU9InN0cm9rZTojMTgxODE4O3N0cm9rZS13aWR0aDoxOyIvPjwvZz48IS0tbGluayBBdXRoVXNlciB0byBVQzItLT48ZyBjbGFzcz0ibGluayIgZGF0YS1lbnRpdHktMT0iQXV0aFVzZXIiIGRhdGEtZW50aXR5LTI9IlVDMiIgZGF0YS1zb3VyY2UtbGluZT0iMjgiIGRhdGEtdWlkPSJsbmsyMCIgaWQ9ImxpbmtfQXV0aFVzZXJfVUMyIj48cGF0aCBkPSJNNzY3Ljg2LDQ3LjE4IEM2MjQuOTUsNTUuMDQgMjgwLjc3LDc3LjggMTczLDExOS41IEMxNDUuODUsMTMwLjAxIDEyMy44NTY3LDE0Ny40MDA3IDEwOC4xMTY3LDE2MS43MzA3IiBmaWxsPSJub25lIiBpZD0iQXV0aFVzZXItdG8tVUMyIiBzdHlsZT0ic3Ryb2tlOiMxODE4MTg7c3Ryb2tlLXdpZHRoOjE7Ii8+PHBvbHlnb24gZmlsbD0iIzE4MTgxOCIgcG9pbnRzPSIxMDMuNjgsMTY1Ljc3LDExMy4wMjc5LDE2Mi42Njg5LDEwNy4zNzczLDE2Mi40MDM5LDEwNy42NDIyLDE1Ni43NTMzLDEwMy42OCwxNjUuNzciIHN0eWxlPSJzdHJva2U6IzE4MTgxODtzdHJva2Utd2lkdGg6MTsiLz48L2c+PCEtLWxpbmsgQXV0aFVzZXIgdG8gVUMzLS0+PGcgY2xhc3M9ImxpbmsiIGRhdGEtZW50aXR5LTE9IkF1dGhVc2VyIiBkYXRhLWVudGl0eS0yPSJVQzMiIGRhdGEtc291cmNlLWxpbmU9IjI5IiBkYXRhLXVpZD0ibG5rMjEiIGlkPSJsaW5rX0F1dGhVc2VyX1VDMyI+PHBhdGggZD0iTTg4OS40NCw4MC42MiBDOTMxLjExLDEwNi43NCA5ODAuMzI1OSwxMzcuNTgzOCAxMDEzLjM1NTksMTU4LjI4MzgiIGZpbGw9Im5vbmUiIGlkPSJBdXRoVXNlci10by1VQzMiIHN0eWxlPSJzdHJva2U6IzE4MTgxODtzdHJva2Utd2lkdGg6MTsiLz48cG9seWdvbiBmaWxsPSIjMTgxODE4IiBwb2ludHM9IjEwMTguNDQsMTYxLjQ3LDEwMTIuOTM4LDE1My4zMDEzLDEwMTQuMjAzMywxNTguODE0OCwxMDA4LjY4OTcsMTYwLjA4MDEsMTAxOC40NCwxNjEuNDciIHN0eWxlPSJzdHJva2U6IzE4MTgxODtzdHJva2Utd2lkdGg6MTsiLz48L2c+PCEtLWxpbmsgQXV0aFVzZXIgdG8gVUM0LS0+PGcgY2xhc3M9ImxpbmsiIGRhdGEtZW50aXR5LTE9IkF1dGhVc2VyIiBkYXRhLWVudGl0eS0yPSJVQzQiIGRhdGEtc291cmNlLWxpbmU9IjMwIiBkYXRhLXVpZD0ibG5rMjIiIGlkPSJsaW5rX0F1dGhVc2VyX1VDNCI+PHBhdGggZD0iTTgzMSw4MC44IEM4MzEsMTA2LjQ1IDgzMSwxMzMuNjUgODMxLDE1NC4zOSIgZmlsbD0ibm9uZSIgaWQ9IkF1dGhVc2VyLXRvLVVDNCIgc3R5bGU9InN0cm9rZTojMTgxODE4O3N0cm9rZS13aWR0aDoxOyIvPjxwb2x5Z29uIGZpbGw9IiMxODE4MTgiIHBvaW50cz0iODMxLDE2MC4zOSw4MzUsMTUxLjM5LDgzMSwxNTUuMzksODI3LDE1MS4zOSw4MzEsMTYwLjM5IiBzdHlsZT0ic3Ryb2tlOiMxODE4MTg7c3Ryb2tlLXdpZHRoOjE7Ii8+PC9nPjwhLS1saW5rIEF1dGhVc2VyIHRvIFVDNS0tPjxnIGNsYXNzPSJsaW5rIiBkYXRhLWVudGl0eS0xPSJBdXRoVXNlciIgZGF0YS1lbnRpdHktMj0iVUM1IiBkYXRhLXNvdXJjZS1saW5lPSIzMSIgZGF0YS11aWQ9ImxuazIzIiBpZD0ibGlua19BdXRoVXNlcl9VQzUiPjxwYXRoIGQ9Ik03NjcuNzcsNTMuMSBDNzA0Ljc4LDYzLjY3IDYwNi4yOCw4NC4zMiA1MjcsMTE5LjUgQzUwMC41LDEzMS4yNiA0NzguMDMxOSwxNDcuMDU4MiA0NjAuNTgxOSwxNjAuNzM4MiIgZmlsbD0ibm9uZSIgaWQ9IkF1dGhVc2VyLXRvLVVDNSIgc3R5bGU9InN0cm9rZTojMTgxODE4O3N0cm9rZS13aWR0aDoxOyIvPjxwb2x5Z29uIGZpbGw9IiMxODE4MTgiIHBvaW50cz0iNDU1Ljg2LDE2NC40NCw0NjUuNDEwOCwxNjIuMDM1Myw0NTkuNzk1LDE2MS4zNTUyLDQ2MC40NzUxLDE1NS43Mzk0LDQ1NS44NiwxNjQuNDQiIHN0eWxlPSJzdHJva2U6IzE4MTgxODtzdHJva2Utd2lkdGg6MTsiLz48L2c+PCEtLWxpbmsgQXV0aFVzZXIgdG8gVUM2LS0+PGcgY2xhc3M9ImxpbmsiIGRhdGEtZW50aXR5LTE9IkF1dGhVc2VyIiBkYXRhLWVudGl0eS0yPSJVQzYiIGRhdGEtc291cmNlLWxpbmU9IjMyIiBkYXRhLXVpZD0ibG5rMjQiIGlkPSJsaW5rX0F1dGhVc2VyX1VDNiI+PHBhdGggZD0iTTc3Mi41Niw4MC42MiBDNzI4LjEyLDEwOC40OCA2NzQuNDI0MiwxNDIuMTM0IDY0Mi4zNjQyLDE2Mi4yMjQiIGZpbGw9Im5vbmUiIGlkPSJBdXRoVXNlci10by1VQzYiIHN0eWxlPSJzdHJva2U6IzE4MTgxODtzdHJva2Utd2lkdGg6MTsiLz48cG9seWdvbiBmaWxsPSIjMTgxODE4IiBwb2ludHM9IjYzNy4yOCwxNjUuNDEsNjQ3LjAzMDQsMTY0LjAyMDUsNjQxLjUxNjksMTYyLjc1NSw2NDIuNzgyNCwxNTcuMjQxNSw2MzcuMjgsMTY1LjQxIiBzdHlsZT0ic3Ryb2tlOiMxODE4MTg7c3Ryb2tlLXdpZHRoOjE7Ii8+PC9nPjwhLS1saW5rIEF1dGhVc2VyIHRvIFVDNy0tPjxnIGNsYXNzPSJsaW5rIiBkYXRhLWVudGl0eS0xPSJBdXRoVXNlciIgZGF0YS1lbnRpdHktMj0iVUM3IiBkYXRhLXNvdXJjZS1saW5lPSIzMyIgZGF0YS11aWQ9ImxuazI1IiBpZD0ibGlua19BdXRoVXNlcl9VQzciPjxwYXRoIGQ9Ik04OTQuMDEsNTAuNDggQzk5Mi44NCw2MS41IDExNzguOTMsODYuMDMgMTIzNiwxMTkuNSBDMTMyMS44NSwxNjkuODUgMTM5Ni43NTM5LDI1Ni41NDEyIDE0MjguOTEzOSwyOTYuNjAxMiIgZmlsbD0ibm9uZSIgaWQ9IkF1dGhVc2VyLXRvLVVDNyIgc3R5bGU9InN0cm9rZTojMTgxODE4O3N0cm9rZS13aWR0aDoxOyIvPjxwb2x5Z29uIGZpbGw9IiMxODE4MTgiIHBvaW50cz0iMTQzMi42NywzMDEuMjgsMTQzMC4xNTUsMjkxLjc1NzcsMTQyOS41Mzk5LDI5Ny4zODEsMTQyMy45MTY2LDI5Ni43NjU5LDE0MzIuNjcsMzAxLjI4IiBzdHlsZT0ic3Ryb2tlOiMxODE4MTg7c3Ryb2tlLXdpZHRoOjE7Ii8+PC9nPjwhLS1saW5rIEF1dGhVc2VyIHRvIFVDOC0tPjxnIGNsYXNzPSJsaW5rIiBkYXRhLWVudGl0eS0xPSJBdXRoVXNlciIgZGF0YS1lbnRpdHktMj0iVUM4IiBkYXRhLXNvdXJjZS1saW5lPSIzNCIgZGF0YS11aWQ9ImxuazI2IiBpZD0ibGlua19BdXRoVXNlcl9VQzgiPjxwYXRoIGQ9Ik04OTQuMzUsNDcuNzggQzk4Ny41Miw1NC44NCAxMTU0LjM3LDczLjY5IDExOTAsMTE5LjUgQzEyMzMuMiwxNzUuMDQgMTIzNi4xNTk0LDI1OC4wNDIxIDEyMzUuMTM5NCwyOTYuNDEyMSIgZmlsbD0ibm9uZSIgaWQ9IkF1dGhVc2VyLXRvLVVDOCIgc3R5bGU9InN0cm9rZTojMTgxODE4O3N0cm9rZS13aWR0aDoxOyIvPjxwb2x5Z29uIGZpbGw9IiMxODE4MTgiIHBvaW50cz0iMTIzNC45OCwzMDIuNDEsMTIzOS4yMTc4LDI5My41MTk1LDEyMzUuMTEyOSwyOTcuNDExOCwxMjMxLjIyMDYsMjkzLjMwNjksMTIzNC45OCwzMDIuNDEiIHN0eWxlPSJzdHJva2U6IzE4MTgxODtzdHJva2Utd2lkdGg6MTsiLz48L2c+PCEtLWxpbmsgQXV0aFVzZXIgdG8gVUM5LS0+PGcgY2xhc3M9ImxpbmsiIGRhdGEtZW50aXR5LTE9IkF1dGhVc2VyIiBkYXRhLWVudGl0eS0yPSJVQzkiIGRhdGEtc291cmNlLWxpbmU9IjM1IiBkYXRhLXVpZD0ibG5rMjciIGlkPSJsaW5rX0F1dGhVc2VyX1VDOSI+PHBhdGggZD0iTTg5NC4wMSw0OS41NCBDOTc4Ljg4LDU4LjQ2IDExMjMuMDQsNzkuMjQgMTE1NSwxMTkuNSBDMTE4NC4yOSwxNTYuNCAxMTc3LjczLDE4NC4yMyAxMTU1LDIyNS41IEMxMTM1LjE3LDI2MS41IDExMDAuODk3OCwyODMuMzcxNyAxMDY3LjE1NzgsMjk4LjQ1MTciIGZpbGw9Im5vbmUiIGlkPSJBdXRoVXNlci10by1VQzkiIHN0eWxlPSJzdHJva2U6IzE4MTgxODtzdHJva2Utd2lkdGg6MTsiLz48cG9seWdvbiBmaWxsPSIjMTgxODE4IiBwb2ludHM9IjEwNjEuNjgsMzAwLjksMTA3MS41Mjg4LDMwMC44Nzk0LDEwNjYuMjQ0OCwyOTguODU5OCwxMDY4LjI2NDUsMjkzLjU3NTcsMTA2MS42OCwzMDAuOSIgc3R5bGU9InN0cm9rZTojMTgxODE4O3N0cm9rZS13aWR0aDoxOyIvPjwvZz48IS0tbGluayBVQzEgdG8gSVBOLS0+PGcgY2xhc3M9ImxpbmsiIGRhdGEtZW50aXR5LTE9IlVDMSIgZGF0YS1lbnRpdHktMj0iSVBOIiBkYXRhLXNvdXJjZS1saW5lPSIzNyIgZGF0YS11aWQ9ImxuazI4IiBpZD0ibGlua19VQzFfSVBOIj48cGF0aCBkPSJNMjQwLjA2LDE5NS4wOCBDMjI2LjI1LDIxNS4yOCAyMDIuNjA1NSwyNDkuODc2NCAxODIuNTA1NSwyNzkuMjg2NCIgZmlsbD0ibm9uZSIgaWQ9IlVDMS10by1JUE4iIHN0eWxlPSJzdHJva2U6IzE4MTgxODtzdHJva2Utd2lkdGg6MTsiLz48cG9seWdvbiBmaWxsPSIjMTgxODE4IiBwb2ludHM9IjE3OS4xMiwyODQuMjQsMTg3LjUwMDcsMjc5LjA2NjYsMTgxLjk0MTMsMjgwLjExMiwxODAuODk1OCwyNzQuNTUyNiwxNzkuMTIsMjg0LjI0IiBzdHlsZT0ic3Ryb2tlOiMxODE4MTg7c3Ryb2tlLXdpZHRoOjE7Ii8+PHRleHQgZmlsbD0iIzAwMDAwMCIgZm9udC1mYW1pbHk9InNhbnMtc2VyaWYiIGZvbnQtc2l6ZT0iMTMiIGxlbmd0aEFkanVzdD0ic3BhY2luZyIgdGV4dExlbmd0aD0iNTguNSIgeD0iMjE0IiB5PSIyNDYuNzg5MSI+JiMxNzE7aW5jbHVkZSYjMTg3OzwvdGV4dD48L2c+PCEtLWxpbmsgVUMyIHRvIElQTi0tPjxnIGNsYXNzPSJsaW5rIiBkYXRhLWVudGl0eS0xPSJVQzIiIGRhdGEtZW50aXR5LTI9IklQTiIgZGF0YS1zb3VyY2UtbGluZT0iMzgiIGRhdGEtdWlkPSJsbmsyOSIgaWQ9ImxpbmtfVUMyX0lQTiI+PHBhdGggZD0iTTk0LjUsMTk2LjcgQzk5LjY5LDIxMC4zIDEwNy44NywyMzAuOTggMTE2LDI0OC41IEMxMjEuNSwyNjAuMzYgMTI1LjE2MTksMjY3Ljc1MjQgMTMxLjE3MTksMjc5LjE1MjQiIGZpbGw9Im5vbmUiIGlkPSJVQzItdG8tSVBOIiBzdHlsZT0ic3Ryb2tlOiMxODE4MTg7c3Ryb2tlLXdpZHRoOjE7Ii8+PHBvbHlnb24gZmlsbD0iIzE4MTgxOCIgcG9pbnRzPSIxMzMuOTcsMjg0LjQ2LDEzMy4zMTEyLDI3NC42MzMyLDEzMS42MzgyLDI4MC4wMzcsMTI2LjIzNDQsMjc4LjM2NCwxMzMuOTcsMjg0LjQ2IiBzdHlsZT0ic3Ryb2tlOiMxODE4MTg7c3Ryb2tlLXdpZHRoOjE7Ii8+PHRleHQgZmlsbD0iIzAwMDAwMCIgZm9udC1mYW1pbHk9InNhbnMtc2VyaWYiIGZvbnQtc2l6ZT0iMTMiIGxlbmd0aEFkanVzdD0ic3BhY2luZyIgdGV4dExlbmd0aD0iNTguNSIgeD0iMTE3IiB5PSIyNDYuNzg5MSI+JiMxNzE7aW5jbHVkZSYjMTg3OzwvdGV4dD48L2c+PCEtLWxpbmsgVUMzIHRvIEJhbmstLT48ZyBjbGFzcz0ibGluayIgZGF0YS1lbnRpdHktMT0iVUMzIiBkYXRhLWVudGl0eS0yPSJCYW5rIiBkYXRhLXNvdXJjZS1saW5lPSIzOSIgZGF0YS11aWQ9ImxuazMwIiBpZD0ibGlua19VQzNfQmFuayI+PHBhdGggZD0iTTEwMTIuNDgsMTk5Ljg3IEM5OTEuODcsMjA5LjMzIDk2NS4wOSwyMjAuMDggOTQwLDIyNS41IEM4OTkuMzQsMjM0LjI5IDc5Mi43MywyMjEuMTggNzUzLDIzMy41IEM3MDIuMDgsMjQ5LjI5IDY1NS44NDM0LDI4NC40Njk5IDYzMS44NTM0LDMwNC42Mjk5IiBmaWxsPSJub25lIiBpZD0iVUMzLXRvLUJhbmsiIHN0eWxlPSJzdHJva2U6IzE4MTgxODtzdHJva2Utd2lkdGg6MTsiLz48cG9seWdvbiBmaWxsPSIjMTgxODE4IiBwb2ludHM9IjYyNy4yNiwzMDguNDksNjM2LjcyMzYsMzA1Ljc2MjEsNjMxLjA4NzksMzA1LjI3MzMsNjMxLjU3NjgsMjk5LjYzNzYsNjI3LjI2LDMwOC40OSIgc3R5bGU9InN0cm9rZTojMTgxODE4O3N0cm9rZS13aWR0aDoxOyIvPjx0ZXh0IGZpbGw9IiMwMDAwMDAiIGZvbnQtZmFtaWx5PSJzYW5zLXNlcmlmIiBmb250LXNpemU9IjEzIiBsZW5ndGhBZGp1c3Q9InNwYWNpbmciIHRleHRMZW5ndGg9IjUyIiB4PSI3NTQiIHk9IjI0Ni43ODkxIj4mIzE3MTtleHRlbmQmIzE4Nzs8L3RleHQ+PC9nPjwhLS1saW5rIFVDNSB0byBCYW5rLS0+PGcgY2xhc3M9ImxpbmsiIGRhdGEtZW50aXR5LTE9IlVDNSIgZGF0YS1lbnRpdHktMj0iQmFuayIgZGF0YS1zb3VyY2UtbGluZT0iNDAiIGRhdGEtdWlkPSJsbmszMSIgaWQ9ImxpbmtfVUM1X0JhbmsiPjxwYXRoIGQ9Ik00NTYuNTEsMTk3LjQxIEM0OTIuMzEsMjI1LjY4IDU2Mi45ODE1LDI4MS40OTExIDU5NC4yNDE1LDMwNi4xODExIiBmaWxsPSJub25lIiBpZD0iVUM1LXRvLUJhbmsiIHN0eWxlPSJzdHJva2U6IzE4MTgxODtzdHJva2Utd2lkdGg6MTsiLz48cG9seWdvbiBmaWxsPSIjMTgxODE4IiBwb2ludHM9IjU5OC45NSwzMDkuOSw1OTQuMzY2NSwzMDEuMTgyNyw1OTUuMDI2MywzMDYuODAwOSw1ODkuNDA4LDMwNy40NjA3LDU5OC45NSwzMDkuOSIgc3R5bGU9InN0cm9rZTojMTgxODE4O3N0cm9rZS13aWR0aDoxOyIvPjx0ZXh0IGZpbGw9IiMwMDAwMDAiIGZvbnQtZmFtaWx5PSJzYW5zLXNlcmlmIiBmb250LXNpemU9IjEzIiBsZW5ndGhBZGp1c3Q9InNwYWNpbmciIHRleHRMZW5ndGg9IjUyIiB4PSI1MjAiIHk9IjI0Ni43ODkxIj4mIzE3MTtleHRlbmQmIzE4Nzs8L3RleHQ+PC9nPjwhLS1saW5rIFVDNiB0byBCYW5rLS0+PGcgY2xhc3M9ImxpbmsiIGRhdGEtZW50aXR5LTE9IlVDNiIgZGF0YS1lbnRpdHktMj0iQmFuayIgZGF0YS1zb3VyY2UtbGluZT0iNDEiIGRhdGEtdWlkPSJsbmszMiIgaWQ9ImxpbmtfVUM2X0JhbmsiPjxwYXRoIGQ9Ik02MTIuNDYsMTk3Ljc2IEM2MTEuNTQsMjA3Ljk0IDYxMC40NywyMjEuNDkgNjEwLDIzMy41IEM2MDkuMzUsMjUwLjIxIDYwOS41MjcsMjYyLjcxNjcgNjEwLjI2NywyNzguMzg2NyIgZmlsbD0ibm9uZSIgaWQ9IlVDNi10by1CYW5rIiBzdHlsZT0ic3Ryb2tlOiMxODE4MTg7c3Ryb2tlLXdpZHRoOjE7Ii8+PHBvbHlnb24gZmlsbD0iIzE4MTgxOCIgcG9pbnRzPSI2MTAuNTUsMjg0LjM4LDYxNC4xMjEsMjc1LjIwMTMsNjEwLjMxNDEsMjc5LjM4NTYsNjA2LjEyOTksMjc1LjU3ODcsNjEwLjU1LDI4NC4zOCIgc3R5bGU9InN0cm9rZTojMTgxODE4O3N0cm9rZS13aWR0aDoxOyIvPjx0ZXh0IGZpbGw9IiMwMDAwMDAiIGZvbnQtZmFtaWx5PSJzYW5zLXNlcmlmIiBmb250LXNpemU9IjEzIiBsZW5ndGhBZGp1c3Q9InNwYWNpbmciIHRleHRMZW5ndGg9IjUyIiB4PSI2MTEiIHk9IjI0Ni43ODkxIj4mIzE3MTtleHRlbmQmIzE4Nzs8L3RleHQ+PC9nPjwhLS1saW5rIFVDNCB0byBQcmVwYWlkQ2FyZElzc3Vlci0tPjxnIGNsYXNzPSJsaW5rIiBkYXRhLWVudGl0eS0xPSJVQzQiIGRhdGEtZW50aXR5LTI9IlByZXBhaWRDYXJkSXNzdWVyIiBkYXRhLXNvdXJjZS1saW5lPSI0MiIgZGF0YS11aWQ9ImxuazMzIiBpZD0ibGlua19VQzRfUHJlcGFpZENhcmRJc3N1ZXIiPjxwYXRoIGQ9Ik04MjYuNDgsMjAxLjYyIEM4MjEuNTYsMjIzLjAyIDgxNC45MDU5LDI1MS45MTI5IDgwOC44MDU5LDI3OC40MTI5IiBmaWxsPSJub25lIiBpZD0iVUM0LXRvLVByZXBhaWRDYXJkSXNzdWVyIiBzdHlsZT0ic3Ryb2tlOiMxODE4MTg7c3Ryb2tlLXdpZHRoOjE7Ii8+PHBvbHlnb24gZmlsbD0iIzE4MTgxOCIgcG9pbnRzPSI4MDcuNDYsMjg0LjI2LDgxMy4zNzcsMjc2LjM4NjcsODA4LjU4MTYsMjc5LjM4NzQsODA1LjU4MDgsMjc0LjU5MjEsODA3LjQ2LDI4NC4yNiIgc3R5bGU9InN0cm9rZTojMTgxODE4O3N0cm9rZS13aWR0aDoxOyIvPjx0ZXh0IGZpbGw9IiMwMDAwMDAiIGZvbnQtZmFtaWx5PSJzYW5zLXNlcmlmIiBmb250LXNpemU9IjEzIiBsZW5ndGhBZGp1c3Q9InNwYWNpbmciIHRleHRMZW5ndGg9IjUyIiB4PSI4MTkiIHk9IjI0Ni43ODkxIj4mIzE3MTtleHRlbmQmIzE4Nzs8L3RleHQ+PC9nPjwhLS1saW5rIFVDMyB0byBVQzctLT48ZyBjbGFzcz0ibGluayIgZGF0YS1lbnRpdHktMT0iVUMzIiBkYXRhLWVudGl0eS0yPSJVQzciIGRhdGEtc291cmNlLWxpbmU9IjQ0IiBkYXRhLXVpZD0ibG5rMzQiIGlkPSJsaW5rX1VDM19VQzciPjxwYXRoIGQ9Ik0xMTE3LjE3LDE5NC40MyBDMTE3Ni41OCwyMDYuMzkgMTI2My44MSwyMjcuMDEgMTMzNiwyNTYuNSBDMTM2NS45MSwyNjguNzIgMTM5Mi41NjYxLDI4NC4zNTA1IDE0MTQuNTc2MSwyOTguNTMwNSIgZmlsbD0ibm9uZSIgaWQ9IlVDMy10by1VQzciIHN0eWxlPSJzdHJva2U6IzE4MTgxODtzdHJva2Utd2lkdGg6MTsiLz48cG9seWdvbiBmaWxsPSIjMTgxODE4IiBwb2ludHM9IjE0MTkuNjIsMzAxLjc4LDE0MTQuMjIwNSwyOTMuNTQzMSwxNDE1LjQxNjgsMjk5LjA3MjEsMTQwOS44ODc5LDMwMC4yNjgzLDE0MTkuNjIsMzAxLjc4IiBzdHlsZT0ic3Ryb2tlOiMxODE4MTg7c3Ryb2tlLXdpZHRoOjE7Ii8+PC9nPjwhLS1saW5rIFVDMyB0byBVQzgtLT48ZyBjbGFzcz0ibGluayIgZGF0YS1lbnRpdHktMT0iVUMzIiBkYXRhLWVudGl0eS0yPSJVQzgiIGRhdGEtc291cmNlLWxpbmU9IjQ1IiBkYXRhLXVpZD0ibG5rMzUiIGlkPSJsaW5rX1VDM19VQzgiPjxwYXRoIGQ9Ik0xMDczLjA4LDIwMC43NSBDMTEwOS4wOCwyMjcuNjUgMTE3MC4xMTQsMjczLjI1ODEgMTIwNS4zODQsMjk5LjYxODEiIGZpbGw9Im5vbmUiIGlkPSJVQzMtdG8tVUM4IiBzdHlsZT0ic3Ryb2tlOiMxODE4MTg7c3Ryb2tlLXdpZHRoOjE7Ii8+PHBvbHlnb24gZmlsbD0iIzE4MTgxOCIgcG9pbnRzPSIxMjEwLjE5LDMwMy4yMSwxMjA1LjM3NTYsMjk0LjYxODEsMTIwNi4xODUsMzAwLjIxNjcsMTIwMC41ODYzLDMwMS4wMjYxLDEyMTAuMTksMzAzLjIxIiBzdHlsZT0ic3Ryb2tlOiMxODE4MTg7c3Ryb2tlLXdpZHRoOjE7Ii8+PC9nPjwhLS1saW5rIFVDNCB0byBVQzktLT48ZyBjbGFzcz0ibGluayIgZGF0YS1lbnRpdHktMT0iVUM0IiBkYXRhLWVudGl0eS0yPSJVQzkiIGRhdGEtc291cmNlLWxpbmU9IjQ2IiBkYXRhLXVpZD0ibG5rMzYiIGlkPSJsaW5rX1VDNF9VQzkiPjxwYXRoIGQ9Ik04NTQuNjksMjAxLjA0IEM4ODYuMjUsMjI2LjM5IDkzNy4zMjI1LDI2Ny40MzIyIDk3MS4wNDI1LDI5NC41MjIyIiBmaWxsPSJub25lIiBpZD0iVUM0LXRvLVVDOSIgc3R5bGU9InN0cm9rZTojMTgxODE4O3N0cm9rZS13aWR0aDoxOyIvPjxwb2x5Z29uIGZpbGw9IiMxODE4MTgiIHBvaW50cz0iOTc1LjcyLDI5OC4yOCw5NzEuMjA5LDI4OS41MjUsOTcxLjgyMjEsMjk1LjE0ODUsOTY2LjE5ODYsMjk1Ljc2MTYsOTc1LjcyLDI5OC4yOCIgc3R5bGU9InN0cm9rZTojMTgxODE4O3N0cm9rZS13aWR0aDoxOyIvPjwvZz48IS0tU1JDPVtUTEZCUmk4bTRCcGRBclF2U29YbEFYRzl3Mks3UTBKYjBwUkVZYmcwR3NzNzViTnp6emdrZVJMZlNoOWRuWmx4Mlo5VElxWGRaTnViZUpiM0pITGk1U2FLSzg2NXhJTDE5dmtac0ZqWjhVYzRsNWdXaDdBYmNmaWFwT05JQTNHS1UzY1FZQjBZX0x4QmxHa041d2lhRUk3UnV1dVdWUDRlYjdkNVFtNFJhY1ZFSUFObWNPM3Y2YUtDYkg1akk1SW1oMExUTjhKanVZN2FyeUk4ZG9jR1Q5RWxGcFJGZWduRGJicGlzYnN5blhLOEN5UmdIY1piZV9OLWJfZTZXRXQwTFRlRlo3c1NUalN2N2IwbVdib3lETG5VaW4tNGVZS043M1JRcENNc3FzazZXVDZRVGJuZllSUUpUb09fOTRkSmVQOFYyNVJEaVZKSnRJdjZCVGVkQWhic2ZOZFhFMUdNaVp4cFllOGNYOTRkRGlGaC1hMmRheGRISEswdDFkZW5xOC0xR0dtQ09zMEswLUNPYzJJOUlTUFRwNFIyOHFvZE5CMTNLcjZNNlFSUm9sR1N1dlI0S2xJWHBOT3dQajNBMzVrUGxjRmtWZ0hHVGRFclhWc1VueFZ0ZmZubF0tLT48L2c+PC9zdmc+;" parent="1" vertex="1">
            <mxGeometry x="-360" y="190" width="1565" height="369" as="geometry" />
          </mxCell>
        </UserObject>
      </root>
    </mxGraphModel>
  </diagram>
  <diagram id="EBFyWNDJ-XCyLA7ZJuM7" name="Page-1">
    <mxGraphModel dx="1215" dy="1830" grid="1" gridSize="10" guides="1" tooltips="1" connect="1" arrows="1" fold="1" page="1" pageScale="1" pageWidth="850" pageHeight="1100" math="0" shadow="0">
      <root>
        <mxCell id="0" />
        <mxCell id="1" parent="0" />
        <mxCell id="system" value="FalsoPay Digital Payment System" style="swimlane;fontStyle=1;align=center;strokeWidth=2;" parent="1" vertex="1">
          <mxGeometry x="80" y="-70" width="1200" height="800" as="geometry" />
        </mxCell>
        <mxCell id="auth_module" value="ߔࠁuthentication &amp; Security" style="swimlane;fontStyle=1;align=center;fillColor=#E6F3FF;" parent="system" vertex="1">
          <mxGeometry x="39" y="50" width="300" height="200" as="geometry" />
        </mxCell>
        <mxCell id="uc1" value="Log in via email" style="ellipse;fillColor=#DAF7A6;" parent="auth_module" vertex="1">
          <mxGeometry x="30" y="90" width="260" height="30" as="geometry" />
        </mxCell>
        <mxCell id="uc2" value="Log in via Google" style="ellipse;fillColor=#DAF7A6;" parent="auth_module" vertex="1">
          <mxGeometry x="31" y="150" width="260" height="30" as="geometry" />
        </mxCell>
        <mxCell id="c4JUfkchYNsU64s2WeaD-2" value="Register an account via email" style="ellipse;fillColor=#DAF7A6;" parent="auth_module" vertex="1">
          <mxGeometry x="30" y="40" width="260" height="30" as="geometry" />
        </mxCell>
        <mxCell id="c4JUfkchYNsU64s2WeaD-10" style="edgeStyle=orthogonalEdgeStyle;rounded=0;orthogonalLoop=1;jettySize=auto;html=1;exitX=0.5;exitY=1;exitDx=0;exitDy=0;" parent="system" source="txn_module" edge="1">
          <mxGeometry relative="1" as="geometry">
            <mxPoint x="529" y="430" as="targetPoint" />
          </mxGeometry>
        </mxCell>
        <mxCell id="txn_module" value="ߒ蠔ransaction Management" style="swimlane;fontStyle=1;align=center;fillColor=#FFE6E6;" parent="system" vertex="1">
          <mxGeometry x="379" y="40" width="300" height="400" as="geometry" />
        </mxCell>
        <mxCell id="uc3" value="Send money to another user by phone number" style="ellipse;fillColor=#DAF7A6;" parent="txn_module" vertex="1">
          <mxGeometry y="30" width="300" height="30" as="geometry" />
        </mxCell>
        <mxCell id="c4JUfkchYNsU64s2WeaD-7" value="Set transfer limits per day/week" style="ellipse;fillColor=#DAF7A6;" parent="txn_module" vertex="1">
          <mxGeometry y="330" width="300" height="30" as="geometry" />
        </mxCell>
        <mxCell id="c4JUfkchYNsU64s2WeaD-6" value="Receive success/failure confirmation for transfers" style="ellipse;fillColor=#DAF7A6;" parent="txn_module" vertex="1">
          <mxGeometry y="260" width="300" height="30" as="geometry" />
        </mxCell>
        <mxCell id="c4JUfkchYNsU64s2WeaD-5" value="Check account balance" style="ellipse;fillColor=#DAF7A6;" parent="txn_module" vertex="1">
          <mxGeometry y="180" width="300" height="30" as="geometry" />
        </mxCell>
        <mxCell id="c4JUfkchYNsU64s2WeaD-4" value="View transaction history" style="ellipse;fillColor=#DAF7A6;" parent="txn_module" vertex="1">
          <mxGeometry y="110" width="300" height="30" as="geometry" />
        </mxCell>
        <mxCell id="acc_module" value="Card Management" style="swimlane;fontStyle=1;align=center;fillColor=#E6FFE6;" parent="system" vertex="1">
          <mxGeometry x="9" y="460" width="300" height="190" as="geometry" />
        </mxCell>
        <mxCell id="uc6" value="Link a debit card securely" style="ellipse;fillColor=#DAF7A6;" parent="acc_module" vertex="1">
          <mxGeometry x="20" y="30" width="260" height="30" as="geometry" />
        </mxCell>
        <mxCell id="c4JUfkchYNsU64s2WeaD-9" value="Block/unblock a linked card" style="ellipse;fillColor=#DAF7A6;" parent="acc_module" vertex="1">
          <mxGeometry x="20" y="135" width="260" height="30" as="geometry" />
        </mxCell>
        <mxCell id="c4JUfkchYNsU64s2WeaD-8" value="Link a prepaid card" style="ellipse;fillColor=#DAF7A6;" parent="acc_module" vertex="1">
          <mxGeometry x="20" y="80" width="260" height="30" as="geometry" />
        </mxCell>
        <mxCell id="fin_module" value="Profile and Settings" style="swimlane;fontStyle=1;align=center;fillColor=#F5E6FF;" parent="system" vertex="1">
          <mxGeometry x="360" y="495" width="300" height="250" as="geometry" />
        </mxCell>
        <mxCell id="uc4" value="Edit profile and update phone number" style="ellipse;fillColor=#DAF7A6;" parent="fin_module" vertex="1">
          <mxGeometry x="20" y="30" width="260" height="30" as="geometry" />
        </mxCell>
        <mxCell id="c4JUfkchYNsU64s2WeaD-13" value="Set a PIN for confirming transfers" style="ellipse;fillColor=#DAF7A6;" parent="fin_module" vertex="1">
          <mxGeometry x="11" y="190" width="260" height="30" as="geometry" />
        </mxCell>
        <mxCell id="c4JUfkchYNsU64s2WeaD-12" value="Enable/disable notifications" style="ellipse;fillColor=#DAF7A6;" parent="fin_module" vertex="1">
          <mxGeometry x="11" y="130" width="260" height="30" as="geometry" />
        </mxCell>
        <mxCell id="c4JUfkchYNsU64s2WeaD-11" value="Reset password via email" style="ellipse;fillColor=#DAF7A6;" parent="fin_module" vertex="1">
          <mxGeometry x="20" y="80" width="260" height="30" as="geometry" />
        </mxCell>
        <mxCell id="sys_req" value="⚙️ System Infrastructure" style="swimlane;fontStyle=1;align=center;fillColor=#FFF2E6;strokeWidth=2;" parent="system" vertex="1">
          <mxGeometry x="700" y="40" width="350" height="650" as="geometry" />
        </mxCell>
        <mxCell id="sec" value="ߔ⠓ecurity" style="rounded=1;whiteSpace=wrap;fillColor=#FFFFFF;" parent="sys_req" vertex="1">
          <mxGeometry x="20" y="50" width="310" height="160" as="geometry" />
        </mxCell>
        <mxCell id="sr32" value="Password Hashing" style="ellipse;fillColor=#DAF7A6;" parent="sec" vertex="1">
          <mxGeometry x="10" y="10" width="290" height="30" as="geometry" />
        </mxCell>
        <mxCell id="c4JUfkchYNsU64s2WeaD-14" value="Use biometric authentication (fingerprint/face)" style="ellipse;fillColor=#DAF7A6;" parent="sec" vertex="1">
          <mxGeometry x="10" y="65" width="290" height="30" as="geometry" />
        </mxCell>
        <mxCell id="conn1" style="edgeStyle=orthogonalEdgeStyle;rounded=0;html=1;entryX=0;entryY=0.5;exitX=1;exitY=0.5;" parent="system" source="actor" target="auth_module" edge="1">
          <mxGeometry relative="1" as="geometry" />
        </mxCell>
        <mxCell id="conn2" style="edgeStyle=orthogonalEdgeStyle;rounded=0;html=1;" parent="system" source="actor" target="txn_module" edge="1">
          <mxGeometry relative="1" as="geometry" />
        </mxCell>
        <mxCell id="c4JUfkchYNsU64s2WeaD-1" style="edgeStyle=orthogonalEdgeStyle;rounded=0;orthogonalLoop=1;jettySize=auto;html=1;exitX=0.5;exitY=0;exitDx=0;exitDy=0;" parent="system" source="auth_module" target="auth_module" edge="1">
          <mxGeometry relative="1" as="geometry" />
        </mxCell>
        <mxCell id="actor" value="User" style="shape=umlActor;verticalLabelPosition=bottom;verticalAlign=top;strokeColor=#000000;" parent="1" vertex="1">
          <mxGeometry x="20" y="300" width="30" height="60" as="geometry" />
        </mxCell>
      </root>
    </mxGraphModel>
  </diagram>
</mxfile>
